Jena1330.sfdir
StartChar: exclam
Encoding: 33 33 0
Width: 221
GlyphClass: 2
Flags: W
HStem: 686 20G<84.5 110>
VStem: 20 121<601.937 670.048> 40 111<257.81 448.799> 40 96<320.924 598.746> 51 99<453.3 600.176>
LayerCount: 2
Fore
SplineSet
136 451 m 4x90
 136 404 151 360 151 319 c 4
 151 284 140 255 103 239 c 5
 94 239 91 226 83 226 c 5
 51 233 40 291 40 343 c 4
 40 352 39 361 40 369 c 5
 39 378 40 387 40 396 c 4xa0
 40 440 51 487 51 531 c 6
 51 533 l 6x88
 51 575 20 606 20 626 c 6
 20 630 l 6
 20 652 63 706 106 706 c 4
 114 706 141 668 141 658 c 5xc0
 148 640 150 621 150 601 c 4x88
 150 553 136 500 136 451 c 4x90
96 24 m 1
 73 24 29 79 20 100 c 1xc0
 20 112 45 120 51 127 c 0x88
 60 137 84 188 121 188 c 2
 124 188 l 1
 155 170 182 141 201 108 c 1
 170 81 138 40 96 24 c 1
EndSplineSet
Validated: 1
EndChar
StartChar: numbersign
Encoding: 35 35 178
Width: 514
Flags: W
HStem: 76.0986 124.59<37.3677 53 53.2297 468.574> 325.099 124.59<52.0357 67.668 67.8977 483.242> 655 20G<175 200.5 371 396.5>
VStem: 74.5 111<-93.0608 74.479> 110.5 121<570.937 639.048> 141.5 99<454.544 569.176> 270.5 111<-99.0608 74.2009> 306.5 121<564.937 633.048> 337.5 99<453.674 563.176>
LayerCount: 2
Fore
SplineSet
226.5 420 m 0xe4
 206.5 327.12890625 198.484375 183.493164062 186.5 63.12890625 c 0
 179.181640625 -10.3720703125 185.5 -16.326171875 185.5 -31.87109375 c 0
 185.5 -66.87109375 174.5 -95.87109375 137.5 -111.87109375 c 1
 128.5 -111.87109375 125.5 -124.87109375 117.5 -124.87109375 c 1
 85.5 -117.87109375 74.5 -59.87109375 74.5 -7.87109375 c 0
 74.5 1.12890625 73.5 10.12890625 74.5 18.12890625 c 1
 73.5 27.12890625 73.4482421875 36.1904296875 74.5 45.12890625 c 0xf0
 82.5 113.12890625 141.5 456 141.5 500 c 2
 141.5 502 l 2xe4
 141.5 544 110.5 575 110.5 595 c 2
 110.5 599 l 2
 110.5 621 153.5 675 196.5 675 c 0
 204.5 675 231.5 637 231.5 627 c 1xe8
 238.5 609 240.5 590 240.5 570 c 0
 240.5 522 236.815429688 467.901367188 226.5 420 c 0xe4
422.5 414 m 4
 402.5 321.12890625 394.484375 177.493164062 382.5 57.12890625 c 4
 375.181640625 -16.3720703125 381.5 -22.326171875 381.5 -37.87109375 c 4
 381.5 -72.87109375 370.5 -101.87109375 333.5 -117.87109375 c 5
 324.5 -117.87109375 321.5 -130.87109375 313.5 -130.87109375 c 5
 281.5 -123.87109375 270.5 -65.87109375 270.5 -13.87109375 c 4
 270.5 -4.87109375 269.5 4.12890625 270.5 12.12890625 c 5
 269.5 21.12890625 269.448242188 30.1904296875 270.5 39.12890625 c 4xe2
 278.5 107.12890625 337.5 450 337.5 494 c 6
 337.5 496 l 6xe080
 337.5 538 306.5 569 306.5 589 c 6
 306.5 593 l 6
 306.5 615 349.5 669 392.5 669 c 4
 400.5 669 427.5 631 427.5 621 c 5xe1
 434.5 603 436.5 584 436.5 564 c 4xe080
 436.5 516 432.815429688 461.901367188 422.5 414 c 4
392.666015625 326.098632812 m 2
 384.60546875 326.235351562 67.66796875 329.598632812 67.66796875 329.598632812 c 2
 33.66796875 329.598632812 21.66796875 345.598632812 21.66796875 364.598632812 c 0
 21.66796875 379.598632812 29.66796875 398.598632812 41.66796875 413.598632812 c 0
 66.66796875 444.598632812 52.681640625 454.08203125 100.66796875 453.598632812 c 2
 487.833984375 449.688476562 l 2
 497.708984375 449.522460938 507 447.575195312 507 431.598632812 c 0
 507 407.598632812 496.59375 330.2890625 451.833984375 325.098632812 c 1
 392.666015625 326.098632812 l 2
377.998046875 77.0986328125 m 2
 369.9375 77.2353515625 53 80.5986328125 53 80.5986328125 c 2
 19 80.5986328125 7 96.5986328125 7 115.598632812 c 0
 7 130.598632812 15 149.598632812 27 164.598632812 c 0
 52 195.598632812 38.013671875 205.08203125 86 204.598632812 c 2
 473.166015625 200.688476562 l 2
 483.041015625 200.522460938 492.333984375 198.575195312 492.333984375 182.598632812 c 0
 492.333984375 158.598632812 481.92578125 81.2890625 437.166015625 76.0986328125 c 1
 377.998046875 77.0986328125 l 2
EndSplineSet
Validated: 37
EndChar
StartChar: percent
Encoding: 37 37 172
Width: 408
Flags: HW
HStem: -28 21G<52 64.5>
LayerCount: 2
Fore
SplineSet
109 80.1669921875 m 0
 87 29.1669921875 98 14.1669921875 78 -57.8330078125 c 0
 74 -71.8330078125 68 -77.8330078125 61 -77.8330078125 c 0
 43 -77.8330078125 20 -39.8330078125 20 -18.8330078125 c 0
 20 35.1669921875 82 118.166992188 99 155.166992188 c 1
 110.767578125 178.703125 227.75 404.868164062 271 505.138671875 c 0
 282.87890625 532.678710938 252.260742188 560.130859375 257 567.138671875 c 0
 274.75 593.388671875 344.75 677.388671875 364.75 679.388671875 c 0
 390.58203125 681.97265625 388 682.166992188 388 655.166992188 c 0
 388 574.166992188 208 309.166992188 109 80.1669921875 c 0
EndSplineSet
Refer: 208 176 S 1 0 0 1 170 -506 2
Refer: 208 176 N 1 0 0 1 -10 -246 2
EndChar
StartChar: ampersand
Encoding: 38 38 177
Width: 549
Flags: W
HStem: 0.101562 20G<472.5 476.101> 531 20G<258.199 278.199>
VStem: 7.69922 113<148.566 306.305> 353.699 91<470 544.5>
AnchorPoint: "Anker-0" 193.7 568 basechar 0
LayerCount: 2
Fore
SplineSet
393.69921875 453 m 20
 402.69921875 479 444.69921875 508 444.69921875 543 c 4
 444.69921875 546 444.69921875 548 443.69921875 551 c 5
 444.69921875 556 445.69921875 561 445.69921875 565 c 4
 445.69921875 617 366.69921875 634 340.69921875 666 c 5
 262.69921875 666 234.69921875 605 199.69921875 563 c 5
 183.69921875 556 192.69921875 511 181.69921875 501 c 5
 179.69921875 496 181.69921875 490 181.69921875 485 c 4
 181.69921875 475 196.69921875 470 196.69921875 460 c 4
 196.69921875 458.356445312 203.3515625 401.936523438 229.69921875 401 c 28
 296.755859375 398.6171875 371.750976562 389.59375 393.69921875 453 c 20
260.69921875 115 m 4
 201.69921875 81 151.69921875 122 140.69921875 151 c 4
 120.27734375 204.841796875 120.69921875 207 120.69921875 276 c 4
 120.69921875 307 138.69921875 360 138.69921875 360 c 5
 138.69921875 373 146.69921875 379 157.69921875 379 c 4
 197.69921875 379 295.69921875 340 323.69921875 216 c 4
 344.2734375 124.88671875 442.638671875 50.3896484375 453.298828125 25.701171875 c 4
 455.71484375 20.1083984375 458.900390625 16.1015625 462.900390625 16.1015625 c 4
 466.099609375 16.1015625 470.099609375 19.3017578125 474.900390625 20.1015625 c 5
 477.30078125 17.701171875 481.30078125 16.1015625 484.5 16.1015625 c 5
 530.099609375 32.1005859375 555.69921875 56.1005859375 555.69921875 103.30078125 c 5
 509.298828125 180.901367188 427.69921875 218.500976562 427.69921875 255.299804688 c 4
 427.69921875 279.299804688 496.498046875 330.500976562 546.099609375 376.901367188 c 4
 550.099609375 379.30078125 558.099609375 397.702148438 558.099609375 404.1015625 c 5
 553.298828125 412.1015625 546.955078125 418.296875 541.298828125 415.301757812 c 4
 514.099609375 400.90234375 457.091796875 353.407226562 402.8984375 294.501953125 c 13
 393.4609375 324.7265625 398.6484375 326.403320312 378.69921875 372 c 4
 364.69921875 404 334.69921875 428 293.69921875 448 c 12
 253.109375 467.80078125 227.828125 482.764648438 182.69921875 481 c 28
 151.956054688 479.797851562 120.77734375 448.814453125 114.69921875 441 c 4
 79.69921875 396 63.69921875 410 22.69921875 289 c 4
 9.69921875 252 7.69921875 225 7.69921875 190 c 4
 7.69921875 60 62.69921875 14 131.69921875 -8 c 5
 144.69921875 -11 155.69921875 -13 165.69921875 -13 c 4
 177.69921875 -13 188.69921875 -11 203.69921875 -8 c 5
 225.69921875 8 291.654296875 59.03515625 334.69921875 114 c 28
 380.42578125 172.38671875 405.701171875 184.4765625 427.69921875 255.299804688 c 4
 432.62890625 271.16796875 406.2265625 269.940429688 392.498046875 279.30078125 c 5
 367.69921875 215 279.76171875 125.984375 260.69921875 115 c 4
310.69921875 460 m 4
 277.69921875 460 239.69921875 468 239.69921875 478 c 5
 250.69921875 500 244.69921875 547 271.69921875 551 c 5
 284.69921875 547 353.69921875 490 353.69921875 476 c 4
 353.69921875 464 333.69921875 460 310.69921875 460 c 4
EndSplineSet
Validated: 37
EndChar
StartChar: quotesingle
Encoding: 39 39 180
Width: 154
Flags: W
HStem: 479 244
VStem: -25 169<599.569 673.049>
LayerCount: 2
Fore
SplineSet
24 479 m 1
 19 483 17 488 17 493 c 0
 17 512 45 538 45 550 c 2
 45 552 l 1
 20 574 -25 594 -25 630 c 0
 -25 661 36 723 64 723 c 1
 107 715 141 677 144 650 c 1
 138 613 94 553 69 528 c 0
 57 516 40 484 24 479 c 1
EndSplineSet
Validated: 1
EndChar

StartChar: parenright
Encoding: 41 41 2
Width: 249
GlyphClass: 2
Flags: MW
VStem: 20 58
LayerCount: 2
Fore
SplineSet
99 205 m 0
 107.592 222.844 136.71 266.457 136.71 335.55 c 0
 136.71 371.004 129.043 413.167 107 462.001 c 0
 79 523.001 35 562.001 20 633.001 c 1
 20 684.001 70 736.001 97 750.001 c 1
 106 750.001 116 740.001 117 735.001 c 1
 142 691.001 174 632.001 207 564.001 c 0
 222.209 532.688 229.681 495.15 229.681 453.801 c 0
 229.681 356.493 188.302 238.075 109 130 c 1
 87 79 98 64 78 -8 c 0
 74 -22 68 -28 61 -28 c 0
 43 -28 20 10 20 31 c 0
 20 85 82 168 99 205 c 0
EndSplineSet
EndChar
StartChar: asterisk
Encoding: 42 42 194
Width: 364
Flags: W
HStem: 388 103<24.3747 92.3462 278.296 340.674> 517.254 97.8341<61.9363 136.677 237.619 320.875> 629 103<17.3747 85.3462 273.058 332.355>
VStem: 1.24219 101<647.763 717.229> 8.24219 101<406.763 476.229> 121.875 101.791<616.261 725.32> 136.677 89.6007<615.001 700.025> 142.666 94.953<428.195 517.017> 260.666 101<409.763 479.229 655.317 712.882>
LayerCount: 2
Fore
SplineSet
135.666992188 638 m 0xe280
 135.567382812 660.685546875 120.666992188 687 121.875 700.674804688 c 0
 125.580078125 709.337890625 171.0703125 760.974609375 210.666015625 772 c 1
 237.666992188 773 226.666992188 730 223.666015625 685 c 0xe480
 220.86576645 674.647044974 222.7723533 647.637781399 226.277957399 614.722049942 c 1xe280
 353.44921875 614.326171875 l 2
 360.880859375 614.196289062 367.2734375 612.662109375 361.892578125 600.081054688 c 0
 353.8125 581.180664062 319.888671875 520.30078125 284.197265625 516.211914062 c 1
 239.666015625 517 l 2
 239.380797557 517.005050545 238.685410318 517.010593273 237.619053399 517.016570738 c 1
 242.253164409 474.869825802 245.014461772 438.646040142 240.318359375 427.662109375 c 0
 234.930664062 415.0625 237.150390625 410.137695312 199.666015625 381 c 0
 188.37890625 372.336914062 177.259765625 367.612304688 166.642578125 367.612304688 c 0
 144.650390625 367.612304688 126.0234375 382.575195312 129.724609375 398.325195312 c 0
 132.666992188 416 140.666992188 431 142.666015625 473 c 0xe180
 142.875624189 477.402170163 142.235569051 494.365196842 141.217289656 517.253756943 c 1
 91.6517107374 517.351935124 41.978515625 517.4375 41.978515625 517.4375 c 2
 -13.6551751629 517.559753318 34.6917304627 570.353922142 50.544921875 583.587890625 c 0
 79.943359375 608 72.5322265625 615.200195312 108.755859375 615.087890625 c 2
 136.677231515 615.000972726 l 1
 136.320731641 622.895685033 135.980264529 630.614394413 135.666992188 638 c 0xe280
46.2421875 388 m 1
 28.80078125 388 8.544921875 439.462890625 8.2421875 456 c 0
 11.96875 465.450195312 16.033203125 467.65234375 22.845703125 473.055664062 c 0
 32.775390625 480.930664062 44.607421875 491 72.666015625 491 c 1
 90.58203125 476.82421875 105.083984375 453.987304688 109.2421875 428 c 0xe880
 106.859375 419.674804688 100.947265625 408.440429688 46.2421875 388 c 1
39.2421875 629 m 1
 21.80078125 629 1.544921875 680.462890625 1.2421875 697 c 0
 4.96875 706.450195312 9.033203125 708.65234375 15.845703125 714.055664062 c 0
 25.775390625 721.930664062 37.607421875 732 65.666015625 732 c 1
 83.58203125 717.82421875 98.083984375 694.987304688 102.2421875 669 c 0xf080
 99.859375 660.674804688 93.947265625 649.440429688 39.2421875 629 c 1
292.666015625 633 m 1
 275.224609375 633 254.96875 684.462890625 254.666015625 701 c 0
 258.392578125 710.450195312 262.45703125 712.65234375 269.26953125 718.055664062 c 0
 279.19921875 725.930664062 291.03125 736 319.08984375 736 c 1
 337.005859375 721.82421875 351.5078125 698.987304688 355.666015625 673 c 0
 353.283203125 664.674804688 347.37109375 653.440429688 292.666015625 633 c 1
298.666015625 391 m 1
 281.224609375 391 260.96875 442.462890625 260.666015625 459 c 0
 264.392578125 468.450195312 268.45703125 470.65234375 275.26953125 476.055664062 c 0
 285.19921875 483.930664062 297.03125 494 325.08984375 494 c 1
 343.005859375 479.82421875 357.5078125 456.987304688 361.666015625 431 c 0
 359.283203125 422.674804688 353.37109375 411.440429688 298.666015625 391 c 1
EndSplineSet
Validated: 8912929
EndChar
StartChar: plus
Encoding: 43 43 176
Width: 500
Flags: W
HStem: 0 21G<271.666 293.166> 200.5 124.59<54 199.247 319.303 469.574> 525 20G<232.166 281.666>
VStem: 141.166 176<412.571 474.606> 202.166 164<44.6666 137.803> 202.166 117.137<144.366 202.164>
LayerCount: 2
Fore
SplineSet
141.166015625 446 m 1xf0
 141.166015625 457 209.166015625 531 255.166015625 545 c 1
 308.166015625 528 317.166015625 459 317.166015625 381 c 0xf0
 317.166015625 362.932591469 316.633066644 344.598708448 316.117397651 326.686137148 c 1
 474.166 325.09 l 2
 484.041 324.924 493.333 322.977 493.333 307 c 0
 493.333 283 482.926 205.691 438.166 200.5 c 1
 378.999 201.5 l 2
 376.865751841 201.536255427 353.100811851 201.798438449 319.302720536 202.164431855 c 1xe4
 331.44982792 136.789498644 366.166015625 120.70184495 366.166015625 91 c 0xe8
 366.166015625 75 355.166015625 54 322.166015625 17 c 0
 312.166015625 6 300.166015625 0 286.166015625 0 c 0
 257.166015625 0 224.166015625 19 220.166015625 39 c 1
 202.166015625 50 202.166015625 107 202.166015625 166 c 2
 202.166015625 203.422256774 l 1xe4
 125.954392832 204.236498548 54 205 54 205 c 1
 20 205 8 221 8 240 c 0
 8 255 16 274 28 289 c 0
 53 320 39.0146 329.484 87 329 c 2
 199.246609552 327.866418427 l 1
 189.789418997 365.990665253 159.545307757 423.443596019 141.166015625 446 c 1xf0
EndSplineSet
Validated: 524321
EndChar
StartChar: period
Encoding: 46 46 5
Width: 222
GlyphClass: 2
Flags: W
HStem: 24 164<153.645 208.61>
VStem: 100 177
LayerCount: 2
Fore
SplineSet
172 24 m 1
 149 24 109 79 100 100 c 1
 100 112 116 120 122 127 c 0
 131 137 159 188 196 188 c 2
 200 188 l 1
 231 170 258 141 277 108 c 1
 246 81 214 40 172 24 c 1
EndSplineSet
EndChar
StartChar: zero
Encoding: 48 48 7
Width: 442
GlyphClass: 2
Flags: W
HStem: -37 137<131 262.126> 545 20G<271 311>
VStem: 21 113<230.186 367.288> 321 100<171.239 318.016>
LayerCount: 2
Fore
SplineSet
186 -37 m 0
 76 -37 21 121 21 265 c 0
 21 300 26 334 36 364 c 1
 68 406 l 1
 106 446 182 550 233 563 c 1
 248 563 263 565 279 565 c 0
 343 565 338 520 390 449 c 0
 419 410 421 385 421 323 c 2
 421 242 l 2
 421 173 373 149 355 90 c 1
 323 46 246 -16 224 -32 c 1
 209 -35 198 -37 186 -37 c 0
134 351 m 0
 134 282 163 205 184 151 c 0
 200 110 205 100 241 100 c 0
 255 100 268 104 284 104 c 0
 306 104 321 162 321 217 c 0
 321 235 321 253 316 268 c 0
 295 332 266 438 198 438 c 0
 184 438 165 435 152 435 c 1
 152 435 134 382 134 351 c 0
EndSplineSet
EndChar
StartChar: one
Encoding: 49 49 8
Width: 269
GlyphClass: 2
Flags: HMW
HStem: 0 21G<152.5 174> 525 20G
VStem: 83 113<197 251 251 278 197 308 197 325>
LayerCount: 2
Fore
SplineSet
22 431.5 m 5
 22 442.5 90 516.5 136 530.5 c 5
 189 513.5 198 444.5 198 366.5 c 4
 198 331.5 196 295.5 196 263.5 c 6
 196 236.5 l 6
 196 128.5 247 112.5 247 76.5 c 4
 247 60.5 236 39.5 203 2.5 c 4
 193 -8.5 181 -14.5 167 -14.5 c 4
 138 -14.5 105 4.5 101 24.5 c 5
 83 35.5 83 92.5 83 151.5 c 6
 83 293.5 l 6
 83 327.5 44 404.5 22 431.5 c 5
EndSplineSet
EndChar
StartChar: two
Encoding: 50 50 9
Width: 297
GlyphClass: 2
Flags: MW
HStem: 0 104<90 168 145.5 168 145.5 208> 395 140<80 131 116 268>
VStem: 165 103<282.5 395>
LayerCount: 2
Fore
SplineSet
26 62 m 1
 63 108 165 249 165 316 c 0
 165 353 124 395 88 395 c 0
 72 395 53 383 39 383 c 0
 32 383 26 384 22 395 c 1
 22 425 37 455 50 468 c 0
 66 484 101 535 131 535 c 1
 194 518 268 470 268 403 c 2
 268 395 l 2
 268 304 167 174 122 113 c 1
 128 106 139 104 152 104 c 0
 184 104 230 121 253 121 c 0
 255 121 258 122 260 122 c 0
 267 122 275 118 275 95 c 0
 275 56 233 11 208 0 c 1
 108 0 l 2
 72 0 41 3 26 26 c 1
 26 62 l 1
EndSplineSet
EndChar
StartChar: three
Encoding: 51 51 10
Width: 342
GlyphClass: 2
Flags: W
HStem: 378.19 130.199<103.021 192.816>
VStem: 20.3916 312.768
LayerCount: 2
Fore
SplineSet
168.528320312 302.860351562 m 4
 170.581054688 337.270507812 147.021484375 378.190429688 111.021484375 378.190429688 c 4
 95.021484375 378.190429688 75.3564453125 367.030273438 61.3564453125 367.030273438 c 4
 54.3564453125 367.030273438 48.4111328125 367.959960938 45.021484375 378.190429688 c 5
 46.685546875 406.08984375 63.349609375 433.990234375 77.0712890625 446.080078125 c 4
 93.9580078125 460.959960938 131.787109375 508.389648438 161.787109375 508.389648438 c 5
 223.844726562 492.580078125 280.071289062 446.080078125 276.354492188 383.770507812 c 6
 276.021484375 378.190429688 l 6
 271.137695312 296.350585938 226.124023438 290.181640625 172.740234375 233.451171875 c 5
 172.62890625 231.591796875 l 6
 172.295898438 226.01171875 196.5078125 217.935546875 211.293945312 213.491210938 c 4
 273.184570312 194.890625 324.821289062 140.110351562 333.159179688 95.4697265625 c 5
 332.659179688 87.099609375 l 6
 328.443359375 16.419921875 256.3359375 -18.919921875 227.896484375 -76.580078125 c 5
 210.232421875 -104.479492188 l 5
 197.845703125 -127.729492188 180.346679688 -136.099609375 161.346679688 -136.099609375 c 4
 128.346679688 -136.099609375 91.8994140625 -110.059570312 74.17578125 -88.669921875 c 5
 54.8408203125 -77.509765625 18.505859375 -49.6103515625 20.3916015625 -17.990234375 c 4
 20.5576171875 -15.2001953125 21.6689453125 -13.33984375 21.8349609375 -10.5498046875 c 5
 47.166015625 11.7705078125 84.939453125 58.2705078125 121.383789062 65.7099609375 c 5
 134.383789062 65.7099609375 152.220703125 29.4404296875 161.610351562 19.2099609375 c 5
 167.610351562 19.2099609375 187.279296875 -3.1103515625 194.3359375 -18.919921875 c 5
 223.2265625 -37.51953125 l 5
 223.2265625 -37.51953125 234.169921875 -21.7099609375 234.834960938 -10.5498046875 c 4
 235.056640625 -6.830078125 242.166015625 11.7705078125 238.27734375 13.6298828125 c 5
 230.330078125 48.0400390625 215.692382812 102.8203125 175.4140625 114.911132812 c 4
 142.024414062 125.140625 77.4111328125 148.390625 79.740234375 187.451171875 c 5
 102.984375 251.76171875 164.3203125 232.323242188 168.528320312 302.860351562 c 4
EndSplineSet
Validated: 33
EndChar
StartChar: four
Encoding: 52 52 11
Width: 450
GlyphClass: 2
Flags: MW
HStem: -18 21G<337 343> 57 98<340 347.5>
VStem: 22 113<92 189> 219 108<-75 -57 -75 9 -75 22 23 36 -75 36.5> 358 90<34 149.5>
LayerCount: 2
Fore
SplineSet
225 409 m 1
 170 336 l 1
 168 317 160 315 156 297 c 0
 143 234 135 199 135 179 c 0
 135 156 146 154 174 154 c 2
 219 154 l 2
 225 154 226 202 226 260 c 0
 226 312 225 371 225 409 c 1
358 43 m 0
 358 48 351 57 344 57 c 0
 336 57 327 47 327 25 c 0
 327 21 328 17 328 13 c 0
 329 7 329 1 329 -6 c 0
 329 -24 327 -46 327 -68 c 0
 327 -82 330 -96 330 -109 c 0
 330 -123 298 -153 283 -162 c 1
 278 -162 250 -190 246 -190 c 2
 246 -190 230 -210 226 -191 c 0
 220 -167 219 -149 219 -133 c 2
 219 9 l 1
 220 13 219 18 219 22 c 0
 219 51 218 45 208 49 c 0
 189 56 174 57 157 57 c 2
 127 57 l 2
 124 57 121 55 119 57 c 1
 56 57 l 2
 45 57 37 58 33 64 c 0
 25 76 22 87 22 97 c 0
 22 119 36 141 45 169 c 0
 80 274 150 364 190 413 c 0
 206 432 220 444 231 456 c 0
 236 462 243 471 251 480 c 1
 251 482 252 483 253 485 c 0
 254 485 254 485 255 486 c 0
 272 504 290 521 300 521 c 0
 302 521 304 520 305 518 c 0
 327 466 316 155 328 155 c 0
 408 155 348 171 407 171 c 0
 447 171 448 168 448 131 c 0
 448 67 393 40 367 0 c 1
 364 -2 352 -18 343 -18 c 0
 341 -18 339 -21 337 -18 c 1
 342 -4 358 25 358 43 c 0
EndSplineSet
EndChar
StartChar: five
Encoding: 53 53 12
Width: 378
GlyphClass: 2
Flags: W
HStem: -156 21G<140.342 166.342> 364 138<171.768 261.842>
LayerCount: 2
Fore
SplineSet
63.8418 162 m 1
 34.8418 162 24.8418 179 24.8418 198 c 0
 24.8418 211 29.8418 226 35.8418 239 c 0
 83.8418 332 88.8418 398 166.842 476 c 0
 185.842 495 208.842 502 233.842 502 c 0
 289.842 502 349.842 462 362.842 415 c 1
 362.842 415 366.842 401 362.842 395 c 1
 329.842 364 309.842 335 281.842 325 c 1
 243.842 325 216.842 364 181.842 364 c 0
 159.842 364 129.842 326 121.842 302 c 1
 121.842 298 111.842 274 111.842 263 c 0
 111.842 260 112.842 258 114.842 258 c 0
 140.842 258 176.842 250 180.842 249 c 0
 243.842 229 328.842 182 339.842 134 c 1
 339.842 125 l 2
 339.842 49 270.842 -35 245.842 -97 c 1
 229.842 -127 l 1
 218.842 -152 175.842 -156 156.842 -156 c 0
 123.842 -156 85.8418 -128 66.8418 -105 c 1
 46.8418 -93 8.8418 -63 8.8418 -29 c 0
 8.8418 -26 9.8418 -24 9.8418 -21 c 1
 33.8418 3 68.8418 53 104.842 61 c 1
 117.842 61 137.842 22 147.842 11 c 1
 153.842 11 200.842 -20 208.842 -37 c 1
 238.842 -55 l 1
 238.842 -55 248.842 -38 248.842 -26 c 0
 248.842 -22 254.842 -2 250.842 0 c 1
 240.842 37 191.842 130 150.842 143 c 0
 116.842 154 97.8418 155 63.8418 162 c 1
EndSplineSet
Validated: 1
EndChar
StartChar: seven
Encoding: 55 55 14
Width: 290
GlyphClass: 2
Flags: W
HStem: -192 21G<50.8125 71.3125> 348 138<58.6421 208.463> 356 130<58.6421 208.463>
VStem: 19.3125 67<-180.241 -28.0057>
LayerCount: 2
Fore
SplineSet
86.3125 -112 m 0xd0
 86.3125 -126 82.3125 -192 60.3125 -192 c 0
 41.3125 -192 19.3125 -154 19.3125 -133 c 0
 19.3125 14 159.3125 180 195.3125 308 c 1
 195.3125 314 201.3125 332 210.3125 356 c 1
 203.3125 356 l 2xb0
 155.3125 356 62.3125 348 31.3125 348 c 0
 2.3125 348 -7.6875 365 -7.6875 384 c 1
 6.3125 430 18.3125 493 58.3125 493 c 0
 65.3125 493 74.3125 491 83.3125 486 c 1
 124.3125 486 l 2
 170.3125 486 230.3125 485 266.3125 472 c 0
 280.3125 467 294.3125 459 298.3125 446 c 1
 298.3125 446 301.3125 434 299.3125 427 c 1
 299.3125 419 l 2
 299.3125 338 160.3125 152 93.3125 -28 c 0
 86.3125 -47 84.3125 -61 84.3125 -75 c 0
 84.3125 -87 86.3125 -99 86.3125 -112 c 0xd0
EndSplineSet
EndChar
StartChar: nine
Encoding: 57 57 16
Width: 439
GlyphClass: 2
Flags: MW
HStem: -211 21G<-44.127 -40.627 -41.627 -37.627> 0 21G<134.373 137.373 134.373 134.373>
VStem: 26.373 100 305.373 113
LayerCount: 2
Fore
SplineSet
26.373 242 m 2
 26.373 311 74.373 335 92.373 394 c 1
 124.373 438 201.373 500 223.373 516 c 1
 238.373 519 250.373 521 262.373 521 c 0
 272.373 521 282.373 520 295.373 516 c 0
 364.373 495 418.373 424 418.373 294 c 0
 418.373 259 418.373 223 403.373 195 c 2
 371.373 138 l 1
 310.373 58 105.373 -139 -37.627 -211 c 0
 -38.627 -212 -39.627 -211 -41.627 -211 c 0
 -46.627 -211 -52.627 -206 -52.627 -197 c 0
 -52.627 -185 -41.627 -167 -3.62695 -146 c 0
 102.373 -89 268.373 81 287.373 124 c 1
 287.373 124 305.373 177 305.373 208 c 0
 305.373 277 303.373 285 280.373 338 c 0
 263.373 376 237.373 381 204.373 381 c 2
 163.373 381 l 2
 141.373 381 126.373 322 126.373 267 c 0
 126.373 188 166.373 140 215.373 126 c 1
 219.373 121 220.373 115 220.373 108 c 0
 220.373 66 162.373 0 137.373 0 c 2
 134.373 0 l 1
 109.373 9 89.373 50 49.373 110 c 0
 22.373 150 18.373 174 18.373 236 c 1
 26.373 236 l 1
 26.373 242 l 2
EndSplineSet
EndChar

StartChar: semicolon
Encoding: 59 59 18
AltUni2: 00037e.ffffffff.0
Width: 213
GlyphClass: 2
Flags: MW
HStem: -95 244 372 164<108.5 148>
VStem: 37 169 48 177
LayerCount: 2
Fore
SplineSet
120 372 m 1x50
 97 372 57 427 48 448 c 1
 48 460 64 468 70 475 c 0
 79 485 107 536 144 536 c 2
 148 536 l 1
 179 518 206 489 225 456 c 1
 194 429 162 388 120 372 c 1x50
86 -95 m 1xa0
 81 -91 79 -86 79 -81 c 0
 79 -62 107 -36 107 -24 c 2
 107 -22 l 1
 82 0 37 20 37 56 c 0
 37 87 98 149 126 149 c 1
 169 141 203 103 206 76 c 1
 200 39 156 -21 131 -46 c 0
 119 -58 102 -90 86 -95 c 1xa0
EndSplineSet
EndChar
StartChar: less
Encoding: 60 60 175
Width: 296
Flags: W
VStem: 10 96.8008<234.156 317.466>
LayerCount: 2
Fore
SplineSet
10 274.283203125 m 0
 10 316.194335938 49.800478454 327.245480476 82 354.083007812 c 0
 123.241973513 388.45720154 163.688476562 425.947265625 201.90234375 452.666992188 c 0
 227.12890625 470.3046875 250.751989377 489.602470578 261.568359375 495.328125 c 0
 267.224609375 498.322265625 284.23223877 483 286.23046875 475.001953125 c 1
 289.565572103 465.666666667 275.105521161 453.188420536 271.69921875 450.001953125 c 0
 222.09765625 403.6015625 106.80078125 338.881835938 106.80078125 314.881835938 c 0
 106.80078125 282.666120513 200.647315127 257.832812144 256.233398438 200.66796875 c 0
 264.141601562 192.53515625 283.567382812 200.66796875 287.564453125 181.999023438 c 1
 279.234375 124.66796875 255.69921875 105.202148438 210.09765625 89.2021484375 c 1
 206.8984375 89.2021484375 202.8984375 90.8017578125 200.498046875 93.2021484375 c 1
 195.69921875 92.40234375 191.69921875 89.2021484375 188.498046875 89.2021484375 c 0
 184.498046875 89.2021484375 181.3125 93.2080078125 178.8984375 98.8017578125 c 0
 168.236328125 123.491210938 10 194.028320312 10 274.283203125 c 0
EndSplineSet
Validated: 524321
EndChar
StartChar: equal
Encoding: 61 61 173
Width: 514
Flags: W
HStem: 76.0986 124.59<37.3677 53 53.2297 468.574> 325.099 124.59<52.0357 67.668 67.8977 483.242>
LayerCount: 2
Fore
SplineSet
392.666015625 326.098632812 m 2
 384.60546875 326.235351562 67.66796875 329.598632812 67.66796875 329.598632812 c 2
 33.66796875 329.598632812 21.66796875 345.598632812 21.66796875 364.598632812 c 0
 21.66796875 379.598632812 29.66796875 398.598632812 41.66796875 413.598632812 c 0
 66.66796875 444.598632812 52.681640625 454.08203125 100.66796875 453.598632812 c 6
 487.833984375 449.688476562 l 6
 497.708984375 449.522460938 507 447.575195312 507 431.598632812 c 0
 507 407.598632812 496.59375 330.2890625 451.833984375 325.098632812 c 1
 392.666015625 326.098632812 l 2
377.998046875 77.0986328125 m 2
 369.9375 77.2353515625 53 80.5986328125 53 80.5986328125 c 2
 19 80.5986328125 7 96.5986328125 7 115.598632812 c 0
 7 130.598632812 15 149.598632812 27 164.598632812 c 0
 52 195.598632812 38.013671875 205.08203125 86 204.598632812 c 2
 473.166015625 200.688476562 l 2
 483.041015625 200.522460938 492.333984375 198.575195312 492.333984375 182.598632812 c 0
 492.333984375 158.598632812 481.92578125 81.2890625 437.166015625 76.0986328125 c 1
 377.998046875 77.0986328125 l 2
EndSplineSet
Validated: 33
EndChar
StartChar: greater
Encoding: 62 62 174
Width: 299
Flags: W
VStem: 188.898 96.8008<240.536 323.846>
LayerCount: 2
Fore
SplineSet
285.69921875 283.71875 m 0
 285.69921875 241.807918382 245.898361022 230.756927696 213.698242188 203.918945312 c 24
 145.231445312 146.853515625 56.0008351505 83.9984224151 28.7998 69.5996 c 0
 23.1436 66.6055 16.7998 72.7998 12 80.7998 c 1
 12 87.2002 20.5934387823 104.813255475 24 108 c 0
 73.6006 154.4 188.8984375 219.120117188 188.8984375 243.120117188 c 0
 188.8984375 279.918945312 60.7998 304 14.4004 381.6 c 1
 14.4004 428.8 40 452.8 85.6006 468.8 c 1
 88.7998 468.8 92.7998 467.2 95.2002 464.8 c 1
 100 465.6 104 468.8 107.2 468.8 c 0
 111.2 468.8 114.385540788 464.79377849 116.801 459.2 c 0
 127.462 434.511 285.69921875 363.973632812 285.69921875 283.71875 c 0
EndSplineSet
Validated: 524289
EndChar
StartChar: at
Encoding: 64 64 20
Width: 558
GlyphClass: 2
Flags: W
HStem: -152.937 133.898<219.654 333.673> -24.123 20G<438.915 454.306> 567.326 110.676<371.671 495>
VStem: 28 110.999<159.658 307.718> 163 110.999<260.543 314.994> 211 100.614<138.006 177.403> 403.999 96.001<180.646 259.567> 576 97.286<264.047 378.203>
LayerCount: 2
Fore
SplineSet
312 178 m 1x37
 312 171.611 311.614 165.686 311.614 160.458 c 0
 311.614 146.867 314.223 138 333 138 c 0
 335 138 337 139 339 139 c 0
 353 135 358 128 358 120 c 0
 358 97 318 65 314 53 c 0
 309 37 290 29 261 29 c 1
 232 42 211 50 211 102 c 0
 211 161 239 185 258 209 c 1
 342 279 l 1
 354 277 358 272 358 266 c 1
 340 225 326 224 312 178 c 1x37
357 566 m 0
 208 543 138.999 406.002 138.999 247.002 c 0
 138.999 119.002 175.999 3.00195 224.999 0.00195312 c 1
 224.999 0.00195312 245.627 -19.0391 309.194 -19.0391 c 0
 333.032 -19.0391 362.908 -16.3613 399.999 -8.99805 c 0
 419.31 -5.5498 433.655 -4.12305 444.175 -4.12305 c 0
 464.437 -4.12305 470.502 -9.41699 470.502 -15.7559 c 0
 470.502 -25.2139 456.999 -36.999 456.999 -36.999 c 1
 378.976 -117.859 310.512 -152.937 241.972 -152.937 c 0
 213.882 -152.937 185.779 -147.045 157 -135.998 c 1
 67 -106.998 26 111.002 26 161.002 c 1
 26 161.002 26.1797 159.652 26.4316 159.652 c 0
 27.0195 159.652 28 167.002 28 216.002 c 0
 28 400.002 318 678.002 446 678.002 c 0
 544 678.002 599 562.002 643 496.002 c 0
 670 456.002 646 472.002 668 414.002 c 0
 671.544 404.732 673.286 391.95 673.286 376.656 c 0
 673.286 279.761 603.37 82.0488 479 38.001 c 0
 474.587 36.4482 470.394 35.7236 466.414 35.7236 c 0
 421.707 35.7236 403.999 127.188 403.999 163.001 c 0
 403.999 181.001 402.999 198.001 399.999 214.001 c 0
 396.999 229.001 391.999 244.001 383.999 257.001 c 0
 367.999 283.001 316.999 354.001 263.999 366.001 c 1
 259.999 358.001 258.999 349.001 258.999 341.001 c 0
 258.999 314.001 251.999 325.001 268.999 315.001 c 1
 268.999 315.001 273.999 305.001 273.999 300.001 c 0
 273.999 275.001 241.999 251.001 233.999 243.001 c 0
 214.426 224.039 201.213 211.812 188.41 211.812 c 0
 180.282 211.812 172.319 216.739 163 228.001 c 1
 161 235.001 163 243.001 163 250.001 c 0xbb
 163 308.001 216 363.001 229 387.001 c 0
 248 421.001 297 453.001 322 486.001 c 0
 329 495.001 335 498.001 341 498.001 c 0
 422 498.001 500 362.001 500 273.001 c 0
 500 218.001 510 182.001 548 152.001 c 1
 565 171.001 l 1
 574.966 195.622 577.027 225.054 577.027 249.627 c 0
 577.027 266.973 576 281.897 576 291.001 c 2
 576 315.001 l 1
 562.627 371.359 491.768 567.326 373.883 567.326 c 0
 368.358 567.326 362.73 566.896 357 566 c 0
EndSplineSet
EndChar
StartChar: A
Encoding: 65 65 21
AltUni2: 000410.ffffffff.0 000391.ffffffff.0
Width: 416
GlyphClass: 2
Flags: HMW
HStem: -21 21G<84.1837 117.684 320.184 320.184> 696 20G<215.184 225.184>
VStem: -20.8163 103<89.5 194.5> 278.184 111<161.5 217 217 245 161.5 267 161.5 292.5> 285.184 145
AnchorPoint: "Anker-0" 213.184 700 basechar 0
LayerCount: 2
Fore
SplineSet
96.1836 -21 m 0xe0
 72.1836 -21 48.1836 6 32.1836 35 c 1
 34.1836 53 10.1836 39 7.18359 53 c 1
 -12.8164 67 -20.8164 82 -20.8164 97 c 0
 -20.8164 138 35.1836 182 55.1836 215 c 1
 90.1836 237 139.184 303 179.184 327 c 1
 181.184 327 184.184 327 187.184 325 c 1
 187.184 316 158.184 287 158.184 284 c 1
 129.184 244 82.1836 209 82.1836 180 c 1
 97.1836 137 149.184 113 182.184 85 c 1
 160.184 47 139.184 -21 96.1836 -21 c 0xe0
278.184 127 m 2xf0
 278.184 267 l 2
 278.184 318 278.184 369 268.184 418 c 1
 255.184 489 200.184 549 139.184 596 c 1
 113.184 584 83.1836 557 68.1836 532 c 1
 68.1836 519 79.1836 500 86.1836 490 c 1
 92.1836 470 88.1836 461 106.184 461 c 0
 126.184 461 133.184 453 133.184 444 c 0
 133.184 432 121.184 415 110.184 404 c 1
 110.184 396 97.1836 376 92.1836 376 c 1
 84.1836 369 74.1836 366 64.1836 366 c 0
 42.1836 366 18.1836 379 8.18359 393 c 1
 -7.81641 393 -20.8164 461 -20.8164 461 c 1
 -20.8164 461 4.18359 506 10.1836 516 c 0
 24.1836 541 66.1836 585 107.184 620 c 1
 127.184 626 133.184 654 147.184 672 c 0
 162.184 690 215.184 716 215.184 716 c 1
 235.184 716 233.184 684 248.184 684 c 0
 259.184 684 288.184 646 300.184 634 c 1
 311.184 631 333.184 602 342.184 597 c 1
 383.184 558 375.184 456 398.184 397 c 1
 398.184 391 395.184 387 395.184 380 c 1
 397.184 370 398.184 360 398.184 351 c 0
 398.184 320 389.184 291 389.184 245 c 2
 389.184 217 l 2xf0
 389.184 106 398.184 123 430.184 61 c 1
 423.184 36 384.184 -9 362.184 -9 c 1
 320.184 -21 l 1
 285.184 6 l 1xe8
 280.184 46 278.184 86 278.184 127 c 2xf0
EndSplineSet
EndChar
StartChar: B
Encoding: 66 66 22
AltUni2: 000392.ffffffff.0 000412.ffffffff.0
Width: 526
GlyphClass: 2
Flags: W
HStem: -54 21G<305.573 322.073> 36 107<78.0742 198.49> 36 31<-48.8174 -27.2509> 705 20G<275.073 324.573>
VStem: 412.073 116<164.936 284.961>
LayerCount: 2
Fore
SplineSet
313.073 504 m 0xd8
 313.073 544 230.073 618 200.073 618 c 0
 189.073 618 177.073 606 169.073 606 c 4
 167.073 606 165.073 607 163.073 609 c 5
 163.073 622 251.073 720 299.073 725 c 1
 350.073 713 429.073 642 429.073 576 c 1
 414.073 543 376.073 495 353.073 473 c 1
 353.073 468 334.073 452 334.073 444 c 0
 334.073 439 365.073 438 365.073 438 c 1
 386.073 438 411.073 440 429.073 440 c 2
 443.073 440 l 1
 449.073 452 455.073 432 462.073 434 c 1
 511.073 419 528.073 357 528.073 293 c 0
 528.073 260 523.073 225 516.073 197 c 0
 500.073 137 471.073 62 403.073 12 c 1
 397.073 -10 332.073 -54 312.073 -54 c 0
 299.073 -54 269.073 -39 265.073 -29 c 1
 265.073 -28 l 2
 265.073 -18 232.073 -20 232.073 -12 c 1
 204.073 9 187.073 36 128.073 36 c 2xd8
 40.0742 36 l 2
 32.0742 36 26.0742 35 18.0742 36 c 1
 11.0742 35 -8.92578 31 -24.9258 31 c 0
 -38.9248 31 -49.9248 35 -49.9248 47 c 0
 -49.9248 58 -30.9248 67 -52.9248 67 c 1xb8
 -30.9248 67 0.0742188 116 7.07422 132 c 0
 26.0742 176 58.0742 181 58.0742 292 c 4
 58.0742 335 41.0742 362 32.0742 390 c 5
 8.07422 417 -8.92578 468 -52.9248 474 c 5
 -79.9248 448 -102.925 389 -145.925 389 c 4
 -156.925 389 -160.925 399 -160.925 413 c 4
 -160.925 443 -140.925 492 -121.925 506 c 5
 -121.925 508 -115.925 515 -108.925 523 c 6
 -76.9248 558 l 5
 -56.9248 592 -28.9248 606 -0.925781 606 c 4
 53.0742 606 111.074 557 136.073 507 c 5
 138.073 507 139.073 505 139.073 503 c 5
 159.073 473 167.073 434 167.073 393 c 4
 167.073 334 149.073 272 124.074 234 c 1
 123.074 225 104.074 198 101.074 192 c 1
 99.0742 192 78.0742 158 78.0742 146 c 2
 78.0742 143 l 1
 126.074 143 l 2
 193.073 143 279.073 140 300.073 109 c 1
 327.073 98 347.073 63 378.073 63 c 1
 378.073 63 402.073 68 402.073 77 c 0
 402.073 85 401.073 90 401.073 95 c 0
 401.073 102 405.073 107 412.073 118 c 1
 411.073 125 412.073 133 412.073 141 c 2
 412.073 215 l 2
 412.073 303 350.073 328 265.073 328 c 2
 232.073 328 l 1
 218.073 333 212.073 340 212.073 349 c 1
 226.073 403 313.073 443 313.073 504 c 0xd8
412.073 572 m 1
 407.073 571 406.073 570 406.073 568 c 0
 406.073 566 409.073 565 412.073 565 c 0
 414.073 565 415.073 565 417.073 567 c 1
 417.073 569 412.073 572 412.073 572 c 1
EndSplineSet
EndChar
StartChar: C
Encoding: 67 67 23
AltUni2: 000421.ffffffff.0
Width: 251
GlyphClass: 2
Flags: W
HStem: -47 103<150 223>
VStem: -3 113<284.376 593.368>
LayerCount: 2
Fore
SplineSet
278 48 m 1
 255 11 223 -37 175 -47 c 1
 150 -47 123 -28 104 -6 c 0
 11 108 -3 318 -3 484 c 0
 -3 552 17 593 40 636 c 1
 40 636 62 664 116 710 c 1
 128 730 144 736 161 736 c 0
 221 736 276 690 291 638 c 1
 291 630 285 624 270 622 c 1
 260 614 241 602 233 592 c 1
 228 581 220 565 199 565 c 2
 186 565 l 2
 151 565 157 591 135 596 c 1
 117 596 110 560 110 509 c 0
 110 341 148 88 268 56 c 0
 275 55 278 52 278 48 c 1
EndSplineSet
EndChar
StartChar: D
Encoding: 68 68 24
Width: 462
GlyphClass: 2
Flags: HW
HStem: -10 126<208.852 309.352> 0 116<235.927 285.524> 567 20G<39.3522 88.852>
VStem: 73.3522 117<243.5 426> 346.352 104<224.848 332.569>
LayerCount: 2
Fore
SplineSet
-30.6475 451 m 1x78
 -30.6475 451 -74.6475 404 -91.6475 393 c 1
 -95.6475 393 -98.6475 396 -102.647 402 c 1
 -102.647 415 -78.6475 446 -76.6475 453 c 1
 -35.6475 495 5.35254 587 73.3525 587 c 0
 104.352 587 151.352 518 171.352 485 c 0
 185.352 462 190.352 438 190.352 414 c 0
 190.352 344 144.352 275 128.352 223 c 1
 136.352 186 197.352 166 225.352 145 c 0
 247.352 128 273.352 116 295.352 116 c 0xb8
 323.352 116 346.352 135 346.352 189 c 2
 346.352 201 l 2
 346.352 332 295.352 393 253.352 482 c 0
 225.352 543 188.352 581 173.352 652 c 1
 173.352 703 223.352 753 250.352 767 c 1
 259.352 767 269.352 759 270.352 754 c 1
 339.352 630 450.352 499 450.352 343 c 0
 450.352 296 440.352 248 416.352 196 c 1
 387.352 160 351.352 94 311.352 51 c 1
 282.352 18 l 2
 275.352 9 265.352 0 262.352 0 c 1x78
 251.352 -8 236.352 -10 220.352 -10 c 0xb8
 197.352 -10 172.352 -8 156.352 0 c 1
 145.352 23 94.3516 48 81.3516 70 c 1
 71.3525 73 58.3525 95 40.3525 95 c 0
 38.3525 95 35.3525 95 33.3525 94 c 1
 16.3525 94 11.3525 113 11.3525 133 c 0
 11.3525 198 73.3525 208 73.3525 279 c 0
 73.3525 335 44.3525 412 21.3525 412 c 1
 10.3525 426 -30.6475 451 -30.6475 451 c 1x78
EndSplineSet
EndChar
StartChar: E
Encoding: 69 69 25
AltUni2: 000395.ffffffff.0 000415.ffffffff.0
Width: 297
GlyphClass: 2
Flags: W
HStem: -47 21G<192.947 228.947> 608 64<394.42 441.594> 692 41G<258 272.5 445.5 453.5> 692 7<460.903 466.897>
VStem: 78 91<451 600> 247 45<472.456 523.596> 460.447 9<692.246 697.061>
AnchorPoint: "Anker-0" 242 738 basechar 0
LayerCount: 2
Fore
SplineSet
59 258 m 2xee
 59 264 l 2
 59 353 46 328 30 367 c 1
 26 398 13 432 5 468 c 1
 5 523 l 1
 15 543 68 577 78 600 c 1
 78 639 193 708 202 725 c 1
 221 742 258 753 258 753 c 1
 287 749 333 692 339 662 c 1
 356 641 340 630 360 620 c 1
 360 620 360 619 361 619 c 0
 369 619 411 672 416 672 c 1
 421 675 440 692 451 692 c 0
 456 692 460 685 460 678 c 0
 460 668 452 652 452 646 c 1
 443 633 433 608 416 608 c 0
 413 608 410 606 406 608 c 1
 390 608 372 571 352 566 c 1
 344 566 342 565 342 558 c 1
 337 537 292 511 292 502 c 2
 292 501 l 1
 286 491 269 471 269 471 c 1
 256 476 247 497 247 516 c 0
 247 524 249 532 252 538 c 1
 247 558 225 616 190 616 c 0
 185 616 180 611 174 608 c 1
 170 577 169 519 169 451 c 0
 169 339 173 214 179 197 c 0
 206 122 255 62 297 56 c 0
 304 55 307 52 307 48 c 1
 284 11 252.447 -36 205.447 -47 c 1
 180.447 -47 153.447 -28 133.447 -6 c 0
 60.4473 73 59 134 59 258 c 2xee
460.447 699 m 0xde
 463.447 699 469.447 694 469.447 692 c 0
 469.447 691 468.447 693 466.447 692 c 1
 463.447 692 460.447 695 460.447 697 c 0
 461.447 699 459.447 699 460.447 699 c 0xde
EndSplineSet
Validated: 1
EndChar
StartChar: F
Encoding: 70 70 26
Width: 273
GlyphClass: 2
Flags: W
HStem: -41 21G<79.0996 114.1> 384 124<154.938 232.577 232.6 333.068> 571 21G<303.1 338.6> 742 20G<195.1 269.6>
VStem: 34.5996 114<75.918 387.439>
LayerCount: 2
Fore
SplineSet
158.6 638 m 0
 154.6 620 154.6 508 154.6 508 c 1
 398.6 508 l 2
 405.6 508 410.6 507 410.6 503 c 0
 410.6 497 401.6 485 377.6 461 c 1
 339.6 415 l 2
 320.6 391 329.6 384 302.6 384 c 2
 232.6 384 l 1
 232.6 384 200.6 389 176.6 389 c 0
 161.6 389 149.6 390 149.6 384 c 0
 149.6 361 148.6 325 148.6 288 c 0
 148.6 192 152.6 79 176.6 71 c 0
 186.6 67 190.6 62 190.6 55 c 1
 183.6 30 131.6 -41 96.5996 -41 c 0
 61.5996 -41 34.5996 26 34.5996 87 c 0
 34.5996 94 33.5996 100 34.5996 107 c 1
 33.5996 114 34.5996 121 34.5996 128 c 2
 34.5996 297 l 2
 34.5996 370 -6.40039 414 -6.40039 471 c 0
 -6.40039 487 -3.40039 504 4.59961 523 c 1
 34.5996 563 l 1
 89.5996 640 149.6 723 240.6 762 c 1
 298.6 746 372.6 719 389.6 662 c 1
 377.6 631 348.6 595 328.6 571 c 1
 277.6 580 226.6 635 170.6 647 c 1
 164.6 647 159.6 645 158.6 638 c 0
EndSplineSet
Validated: 1
EndChar
StartChar: G
Encoding: 71 71 27
Width: 452
GlyphClass: 2
Flags: W
HStem: -26 121<232.806 295.993> 581 134<352.512 424.395> 617 118<212.446 301.964> 617 98<182.494 238.665>
VStem: 2.99316 130<262.546 493.527> 331.993 102<142.5 301.561>
LayerCount: 2
Fore
SplineSet
433.993 617 m 1x9c
 433.993 596 412.993 581 390.993 581 c 0
 377.993 581 362.993 584 351.993 589 c 1
 347.993 589 338.993 581 338.993 581 c 1xcc
 318.993 581 275.993 617 238.993 617 c 0
 231.993 617 224.993 620 218.993 617 c 1xac
 186.993 617 135.993 578 135.993 536 c 0
 135.993 533 135.993 529 136.993 526 c 1
 133.993 511 132.993 485 132.993 456 c 0
 132.993 398 137.993 330 144.993 317 c 1
 154.993 224 185.993 190 221.993 136 c 1
 227.993 114 253.993 95 277.993 95 c 0
 302.993 95 331.993 128 331.993 157 c 0
 331.993 184 318.993 216 318.993 242 c 1
 301.993 306 259.993 355 212.993 393 c 1
 212.993 404 264.993 435 264.993 451 c 0
 264.993 484 302.993 473 318.993 483 c 1
 322.993 488 327.993 490 331.993 490 c 0
 348.993 490 362.993 453 374.993 448 c 1
 400.993 402 433.993 335 433.993 268 c 0
 433.993 244 429.993 219 418.993 196 c 1
 357.993 124 295.993 -6 195.993 -26 c 1
 179.993 -26 l 2
 160.993 -26 147.993 -16 140.993 -7 c 0
 93.9932 48 38.9932 115 26.9932 200 c 1
 17.9932 207 2.99316 318 2.99316 403 c 0
 2.99316 436 4.99316 465 10.9932 483 c 1
 51.9932 550 109.993 623 170.993 675 c 1
 170.993 685 200.993 715 210.993 715 c 1x9c
 241.993 729 272.993 735 302.993 735 c 0xac
 334.993 735 365.993 728 399.993 715 c 1xcc
 414.993 715 411.993 697 424.993 693 c 0
 438.993 688 446.993 667 446.993 647 c 0
 446.993 632 442.993 625 433.993 617 c 1x9c
EndSplineSet
Validated: 1
EndChar
StartChar: H
Encoding: 72 72 28
AltUni2: 00041d.ffffffff.0 000397.ffffffff.0
Width: 464
GlyphClass: 2
Flags: HMW
HStem: -21 21G<124.973 141.473> 525 20G<387.973 387.973> 736 20G<62.4728 81.4728>
VStem: 59.9728 125<184 187 187 248 167 417>
LayerCount: 2
Fore
SplineSet
73.9736 756 m 0
 88.9736 756 95.9736 725 109.974 725 c 0
 132.974 725 170.974 762 199.974 762 c 1
 199.974 762 204.974 755 204.974 751 c 0
 186.974 638 183.974 540 183.974 435 c 0
 183.974 376 184.974 315 184.974 248 c 2
 184.974 187 l 2
 184.974 147 188.974 114 214.974 80 c 1
 224.974 78 237.974 58 237.974 58 c 1
 237.974 58 217.974 30 207.974 21 c 1
 203.974 21 157.974 -21 124.974 -21 c 1
 62.9736 -7 59.9736 104 59.9736 184 c 2
 59.9736 417 l 1
 42.9736 486 14.9736 565 -25.0264 613 c 0
 -33.0264 623 -48.0264 643 -48.0264 663 c 0
 -48.0264 692 -18.0264 714 4.97363 725 c 0
 16.9736 731 50.9736 756 73.9736 756 c 0
269.973 368 m 0
 253.974 368 230.974 327 218.974 325 c 1
 215.974 330 214.974 336 214.974 342 c 0
 214.974 384 267.973 451 269.973 461 c 0
 271.973 471 313.973 503 321.973 512 c 0
 338.973 530 387.973 545 387.973 545 c 1
 387.973 540 l 1
 406.973 524 409.973 505 411.973 491 c 0
 422.973 404 446.973 237 446.973 77 c 1
 425.973 22 401.973 -10 359.973 -55 c 0
 334.973 -82 322.973 -106 281.973 -115 c 0
 278.973 -115 276.973 -114 276.973 -110 c 1
 289.973 -73 315.973 -34 323.973 6 c 1
 303.973 86 299.973 231 283.973 342 c 0
 280.973 361 275.973 368 269.973 368 c 0
EndSplineSet
EndChar
StartChar: I
Encoding: 73 73 29
AltUni2: 000399.ffffffff.0 000406.ffffffff.0 0004c0.ffffffff.0
Width: 223
GlyphClass: 2
Flags: W
HStem: -7 21G<113.124 144.124> 705 20G<-12.876 10.624 165.124 185.124>
VStem: 30.624 111<125.67 501.612> 83.624 83<671 706.627>
AnchorPoint: "Anker-0" 85.9814 749.9 basechar 0
LayerCount: 2
Fore
SplineSet
30.624 162 m 2xe0
 30.624 485 l 1xe0
 31.624 493 6.62402 499 6.62402 505 c 1
 0.624023 516 -22.376 537 -31.376 545 c 1
 -33.376 550 -103.376 596 -118.376 596 c 0
 -132.376 596 -137.376 602 -137.376 609 c 0
 -137.376 631 -75.376 674 -61.376 692 c 1
 -31.376 712 l 1
 -25.376 718 -17.376 725 -8.37598 725 c 0
 29.624 725 83.624 671 83.624 671 c 1
 83.624 681 l 1
 92.624 700 146.624 747 183.624 762 c 1
 186.624 754 187.624 746 187.624 739 c 0
 187.624 707 166.624 678 166.624 644 c 0xd0
 166.624 638 167.624 632 168.624 626 c 1
 154.624 514 141.624 348 141.624 227 c 0
 141.624 177 165.624 91 195.624 91 c 1
 195.624 91 204.624 89 204.624 86 c 1
 195.624 64 161.624 -7 126.624 -7 c 0
 99.624 -7 60.624 10 48.624 39 c 0
 31.624 81 30.624 121 30.624 162 c 2xe0
EndSplineSet
Validated: 1
EndChar
StartChar: J
Encoding: 74 74 30
AltUni2: 000408.ffffffff.0
Width: 286
GlyphClass: 2
Flags: HMW
HStem: -115 17<41.299 44.299 41.299 84.799> 1 20G<63.299 73.799> 705 20G<42.799 66.299>
VStem: 124.299 111 139.299 83
LayerCount: 2
Fore
SplineSet
82.2988 384 m 1xf0
 82.2988 426 l 2
 82.2988 432 84.2988 438 82.2988 443 c 1
 82.2988 466 l 2
 82.2988 472 84.2988 478 77.2988 485 c 1
 78.2988 492 62.2988 498 62.2988 505 c 1
 56.2988 516 33.2988 538 24.2988 545 c 1
 22.2988 551 -47.7012 596 -62.7012 596 c 0
 -76.7012 596 -81.7012 603 -81.7012 609 c 0
 -81.7012 631 -19.7012 674 -5.70117 692 c 1
 24.2988 712 l 1
 30.2988 718 38.2988 725 47.2988 725 c 0
 85.2988 725 139.299 671 139.299 671 c 1
 139.299 681 l 1
 149.299 700 202.299 747 239.299 762 c 1
 242.299 754 243.299 746 243.299 739 c 0
 243.299 707 222.299 677 222.299 643 c 0xe8
 222.299 637 223.299 632 224.299 626 c 1
 223.299 622 223.299 618 223.299 613 c 0
 223.299 598 226.299 582 227.299 574 c 1
 218.299 524 l 1
 230.299 426 235.299 303 235.299 185 c 0
 235.299 115 231.299 55 221.299 49 c 1
 206.299 5 121.299 -115 48.2988 -115 c 0
 25.2988 -115 4.29883 -103 -13.7012 -74 c 1
 -13.7012 -26 24.2988 -17 47.2988 9 c 1
 50.2988 18 58.2988 21 68.2988 21 c 0
 79.2988 21 93.2988 17 102.299 16 c 1
 126.299 22 120.299 70 124.299 102 c 1
 124.299 196 104.299 304 82.2988 384 c 1xf0
61.2988 -86 m 0
 60.2988 -83 59.2988 -86 57.2988 -86 c 0
 51.2988 -86 41.2988 -98 41.2988 -98 c 1
 47.2988 -98 61.2988 -89 61.2988 -86 c 0
EndSplineSet
EndChar
StartChar: K
Encoding: 75 75 31
AltUni2: 00039a.ffffffff.0 00041a.ffffffff.0
Width: 503
GlyphClass: 2
Flags: W
HStem: -16 0G<101.275 131.775 438.275 447.775> 531 20G<319.775 368.275> 736 20G<29.7754 63.7754>
VStem: 55.7754 170<46.6642 107.388> 55.7754 115<134.156 521.694> 61.7754 116<272.845 551.135> 269.775 174<173.808 241.704> 330.775 46<274.209 338.963>
LayerCount: 2
Fore
SplineSet
269.775 198 m 0xe2
 269.775 244 330.775 275 330.775 330 c 0xe1
 330.775 362 289.775 408 269.775 416 c 1xe2
 262.775 416 260.775 410 254.775 392 c 1
 243.775 377 214.775 340 199.775 327 c 1
 189.775 324 200.775 342 201.775 351 c 1
 235.775 423 280.775 524 358.775 551 c 1
 377.775 551 402.775 510 414.775 494 c 0
 426.775 477 440.775 452 440.775 424 c 0
 440.775 363 397.775 355 376.775 304 c 1xe1
 376.775 269 443.775 233 443.775 217 c 2
 443.775 215 l 1xe2
 478.775 157 466.775 146 506.775 107 c 0
 514.775 99 517.775 90 517.775 81 c 0
 517.775 51 482.775 19 476.775 0 c 1
 469.775 -6 471.775 -19 465.775 -29 c 1
 448.775 -39 449.775 -30 445.775 -37 c 1
 430.775 -27 417.775 -16 396.775 -6 c 0
 377.775 3 343.775 115 330.775 117 c 1xe1
 314.775 139 269.775 163 269.775 198 c 0xe2
167.775 774 m 0
 178.775 774 179.775 763 179.775 752 c 0
 179.775 728 175.775 698 175.775 668 c 0
 175.775 627 177.775 586 177.775 551 c 2
 177.775 526 l 2xe4
 177.775 434 170.775 351 170.775 269 c 0xe8
 170.775 224 172.775 178 179.775 132 c 1
 187.775 114 225.775 98 225.775 78 c 0
 225.775 72 221.775 65 211.775 58 c 1
 204.775 41 182.775 24 175.775 7 c 1
 161.775 -4 131.775 -16 131.775 -16 c 1
 70.7754 -16 55.7754 -1 55.7754 85 c 2xf0
 55.7754 344 l 2xe8
 55.7754 384 61.7754 431 61.7754 473 c 0xe4
 61.7754 506 55.7754 534 37.7754 554 c 0
 28.7754 564 14.7754 580 10.7754 590 c 0
 -5.22461 629 -41.2246 638 -41.2246 672 c 1
 -17.2246 708 3.77539 748 55.7754 756 c 1xe8
 71.7754 756 80.7754 736 95.7754 736 c 0
 118.775 736 146.775 774 167.775 774 c 0
EndSplineSet
Validated: 1
EndChar
StartChar: L
Encoding: 76 76 32
Width: 298
GlyphClass: 2
Flags: HMW
HStem: -39 21G 648 52<-93.9456 -65.9456> 717 20G<10.5544 26.0544>
VStem: 68.0544 133<291 359 291 380 291 462>
LayerCount: 2
Fore
SplineSet
68.0547 380 m 2
 68.0547 544 50.0547 537 -54.9453 630 c 0
 -66.9453 641 -93.9453 648 -93.9453 648 c 1
 -93.9453 648 -76.9453 700 -65.9453 700 c 1
 -48.9453 710 -34.9453 725 -10.9453 725 c 1
 -1.94531 731 6.05469 737 15.0547 737 c 0
 37.0547 737 58.0547 722 68.0547 705 c 1
 106.055 737 109.055 762 170.055 762 c 0
 203.055 762 192.055 704 203.055 668 c 1
 198.055 628 196.055 588 196.055 545 c 0
 196.055 472 201.055 395 201.055 323 c 0
 201.055 259 197.055 197 183.055 140 c 1
 183.055 133 194.055 117 200.055 117 c 1
 213.055 100 286.055 109 290.055 99 c 0
 295.055 86 297.055 74 297.055 62 c 0
 297.055 14 262.055 -27 216.055 -39 c 1
 183.055 -31 119.055 -20 100.055 7 c 1
 86.0547 19 45.0547 28 45.0547 52 c 1
 66.0547 110 68.0547 202 68.0547 291 c 2
 68.0547 380 l 2
EndSplineSet
EndChar
StartChar: M
Encoding: 77 77 33
AltUni2: 00039c.ffffffff.0 00041c.ffffffff.0
Width: 655
GlyphClass: 2
Flags: HMW
HStem: -149 75<35.5782 45.5782 35.5782 51.0782> -11 21G<344.578 356.078> 658 20G<228.078 281.578>
VStem: -11.4218 178<414 524> 109.578 89<-3 113> 275.578 99<281.5 319 319 450 450 450> 275.578 128<112 116 112 450> 275.578 151<62 75 62 450> 492.578 107<124.5 280.5>
LayerCount: 2
Fore
SplineSet
187.578 566 m 1xe480
 170.578 556 166.578 536 166.578 512 c 0xf480
 166.578 480 174.578 442 174.578 412 c 0
 174.578 406 174.578 400 173.578 395 c 1
 173.578 264 198.578 224 198.578 127 c 2
 198.578 113 l 2
 198.578 51 184.578 13 156.578 -11 c 1
 145.578 -30 103.578 -56 103.578 -88 c 0
 103.578 -93 107.578 -97 109.578 -102 c 1
 109.578 -118 l 1
 91.5781 -137 66.5781 -149 35.5781 -149 c 0
 11.5781 -149 -25.4219 -141 -25.4219 -132 c 2
 -25.4219 -130 l 1
 -31.4219 -124 -34.4219 -118 -34.4219 -112 c 0
 -34.4219 -92 -3.42188 -77 13.5781 -69 c 1
 14.5781 -71 29.5781 -74 41.5781 -74 c 0
 49.5781 -74 55.5781 -73 57.5781 -69 c 0
 59.5781 -65 73.5781 -57 73.5781 -57 c 1
 101.578 -52 109.578 -21 109.578 15 c 0xe880
 109.578 47 102.578 84 96.5781 106 c 0
 80.5781 166 88.5781 228 64.5781 301 c 0
 48.5781 349 -11.4219 397 -11.4219 431 c 0
 -11.4219 440 39.5781 468 54.5781 534 c 0
 62.5781 566 90.5781 579 120.578 599 c 0
 171.578 634 199.578 678 256.578 678 c 0
 306.578 678 318.578 658 341.578 625 c 1
 353.578 621 374.578 533 374.578 458 c 2
 374.578 319 l 2xf480
 374.578 244 379.578 165 403.578 116 c 1xe280
 403.578 108 419.578 103 418.578 94 c 1
 424.578 87 426.578 79 426.578 71 c 0
 426.578 53 414.578 36 400.578 28 c 1
 391.578 11 367.578 -11 344.578 -11 c 1
 314.578 -3 282.578 26 275.578 58 c 1xe180
 275.578 450 l 1
 264.578 509 241.578 549 187.578 566 c 1xe480
553.578 -11 m 1
 502.578 19 492.578 84 492.578 165 c 0
 492.578 220 497.578 280 497.578 336 c 0
 497.578 383 493.578 427 481.578 463 c 0
 473.578 486 451.578 551 414.578 551 c 0
 412.578 551 409.578 553 407.578 552 c 1
 387.578 552 380.578 558 380.578 568 c 1
 398.578 620 423.578 673 478.578 689 c 1
 508.578 689 527.578 649 542.578 633 c 0
 594.578 578 600.578 474 600.578 365 c 0
 600.578 331 599.578 297 599.578 264 c 0
 599.578 191 622.578 114 635.578 79 c 1
 623.578 35 587.578 9 553.578 -11 c 1
EndSplineSet
EndChar
StartChar: N
Encoding: 78 78 34
AltUni2: 00039d.ffffffff.0
Width: 467
GlyphClass: 2
Flags: HMW
HStem: -153 86 0 21G<326.282 362.782 358.782 384.782> 727 20G<251.282 316.782>
VStem: -19.2177 203<476.5 483 483 498 429 509> 85.7823 119<148.5 221 136.5 259> 277.782 120<244 427> 277.782 130<423.5 427 427 452 452 458.5>
LayerCount: 2
Fore
SplineSet
266.782 747 m 0xf0
 366.782 747 407.782 572 407.782 461 c 2
 407.782 452 l 2xf2
 407.782 395 397.782 323 397.782 257 c 0xe4
 397.782 231 399.782 207 403.782 184 c 1
 403.782 177 l 2
 403.782 137 437.782 118 450.782 94 c 1
 440.782 69 396.782 13 384.782 0 c 1
 375.782 -2 366.782 0 358.782 0 c 0
 293.782 0 283.782 82 283.782 152 c 0
 283.782 209 277.782 254 277.782 301 c 2
 277.782 427 l 2
 277.782 490 275.782 571 235.782 595 c 1
 231.782 600 211.782 627 197.782 627 c 1
 184.782 618 181.782 593 181.782 565 c 0
 181.782 542 183.782 517 183.782 498 c 2
 183.782 483 l 2xf2
 183.782 375 204.782 276 204.782 166 c 0xe8
 204.782 107 194.782 49 185.782 -13 c 0
 178.782 -59 131.782 -113 97.7822 -140 c 0
 86.7822 -149 63.7822 -153 43.7822 -153 c 0
 10.7822 -153 -24.2178 -141 -24.2178 -117 c 0
 -24.2178 -113 -22.2178 -107 -19.2178 -102 c 0xf0
 -4.21777 -72 46.7822 -74 69.7822 -67 c 1
 91.7822 -42 97.7822 -7 97.7822 31 c 0
 97.7822 76 85.7822 126 85.7822 171 c 0xe8
 85.7822 347 54.7822 343 4.78223 421 c 1
 -1.21777 443 -19.2178 465 -19.2178 488 c 0
 -19.2178 530 44.7822 551 67.7822 578 c 0
 80.7822 594 131.782 653 144.782 664 c 0
 158.782 676 182.782 688 190.782 704 c 1
 209.782 717 235.782 747 266.782 747 c 0xf0
EndSplineSet
EndChar
StartChar: O
Encoding: 79 79 35
AltUni2: 000555.ffffffff.0 00041e.ffffffff.0 00039f.ffffffff.0
Width: 418
GlyphClass: 2
Flags: HMW
HStem: 34 55<273.986 278.486 228.486 282.986> 657 21G
VStem: 30.9864 104<364 399 399 399> 304.986 94<158 405.5>
AnchorPoint: "Anker-0" 137.986 720 basechar 0
LayerCount: 2
Fore
SplineSet
398.986 342 m 0
 398.986 254 380.986 170 332.986 113 c 1
 329.986 113 318.986 93 318.986 87 c 1
 304.986 81 291.986 34 273.986 34 c 1
 253.986 21 203.986 -22 177.986 -22 c 0
 41.9863 -22 30.9863 104 30.9863 310 c 2
 30.9863 399 l 1
 30.9863 399 25.9863 397 20.9863 397 c 0
 16.9863 397 11.9863 399 10.9863 405 c 0
 -1.01367 476 -9.01367 486 -14.0137 509 c 1
 -14.0137 541 66.9863 600 84.9863 623 c 0
 94.9863 636 129.986 677 158.986 677 c 1
 158.986 677 134.986 446 134.986 371 c 0
 134.986 357 137.986 342 137.986 327 c 0
 137.986 237 179.986 89 276.986 89 c 0
 279.986 89 282.986 90 286.986 90 c 1
 300.986 117 304.986 140 304.986 176 c 0
 304.986 349 270.986 458 214.986 585 c 0
 200.986 617 170.986 663 170.986 663 c 1
 179.986 674 233.986 757 261.986 757 c 0
 286.986 757 302.986 711 314.986 689 c 0
 360.986 606 398.986 469 398.986 342 c 0
EndSplineSet
EndChar
StartChar: P
Encoding: 80 80 36
AltUni2: 0003a1.ffffffff.0 000420.ffffffff.0
Width: 417
GlyphClass: 2
Flags: W
HStem: -191 21G<154.395 174.895> 520 20G<41.8945 65.8945 152.395 163.395> 695 20G<266.895 285.395>
VStem: 111.395 95<182.016 318.124 320.75 370.461> 111.395 86<199.876 366.296> 123.395 91<-63 11.4108> 206.395 86<558.329 665.316> 304.395 98<229.489 341.911 342 343.53>
LayerCount: 2
Fore
SplineSet
304.395 106 m 1xe3
 303.395 111 304.395 115 304.395 120 c 0
 304.395 150 315.395 181 318.395 210 c 1
 309.395 219 313.395 342 304.395 342 c 1
 304.395 452 223.395 491 206.395 592 c 1
 206.395 644 250.395 689 283.395 715 c 1
 287.395 715 289.395 707 295.395 695 c 1
 293.395 687 292.395 681 292.395 673 c 0
 292.395 655 294.395 639 304.395 625 c 1
 309.395 625 324.395 605 330.395 605 c 1
 347.395 578 366.395 551 374.395 520 c 1
 374.395 496 390.395 485 396.395 464 c 0
 407.395 419 399.395 393 413.395 344 c 1
 411.395 334 401.395 322 401.395 307 c 0
 401.395 304 401.395 302 402.395 299 c 1
 402.395 280 l 2
 402.395 194 356.395 153 304.395 106 c 1xe3
275.395 -124 m 0
 275.395 -127 274.395 -130 273.395 -133 c 1
 241.395 -139 212.395 -145 199.395 -168 c 1
 189.395 -175 185.395 -191 164.395 -191 c 1
 144.395 -180 123.395 -151 123.395 -120 c 2
 123.395 36 l 1xe5
 122.395 37 57.3945 79 57.3945 120 c 0
 57.3945 138 90.3945 176 97.3945 182 c 1
 106.395 182 111.395 204 111.395 233 c 2
 111.395 352 l 2xf1
 111.395 377 73.3945 364 73.3945 386 c 0
 73.3945 418 17.3945 450 -10.6055 450 c 0
 -16.6055 450 -18.6055 453 -18.6055 457 c 0
 -16.6055 476 29.3945 540 54.3945 540 c 0
 77.3945 540 93.3945 520 111.395 510 c 1xe9
 123.395 510 143.395 564 161.395 564 c 0
 165.395 564 169.395 561 172.395 555 c 0
 196.395 505 206.395 441 206.395 367 c 1xf1
 202.395 352 197.395 336 197.395 320 c 0xe9
 197.395 280 206.395 238 206.395 198 c 1xf1
 213.395 190 214.395 181 214.395 170 c 0
 214.395 163 213.395 154 212.395 146 c 1
 217.395 115 249.395 102 282.395 102 c 1
 282.395 102 304.395 98 304.395 85 c 1
 283.395 39 261.395 26 214.395 0 c 1
 214.395 -63 l 1xe5
 230.395 -80 l 1
 243.395 -101 275.395 -104 275.395 -124 c 0
EndSplineSet
EndChar
StartChar: Q
Encoding: 81 81 37
Width: 630
GlyphClass: 2
Flags: W
HStem: -20 63<525 552.437> -8 21G<259.218 290.178> 604 91<275.599 312.74>
VStem: 79.4785 144.48<371.974 537.107> 134.52 86.859<173.171 362.832> 433 77<274.631 439.166>
LayerCount: 2
Fore
SplineSet
260 604 m 1xa4
 249 611 248 679 287 695 c 1
 428 664 510 567 510 392 c 0
 510 325 478 249 460 173 c 1
 460 157 466 145 479 140 c 0
 527 119 525 69 610 43 c 1
 583 14 566 -20 523 -20 c 0
 471 -20 462 15 420 55 c 0
 415 60 374 68 374 88 c 0
 374 89 375 91 375 93 c 0
 375 130 415 156 423 192 c 0
 430 226 433 260 433 295 c 0
 433 441 374 582 260 604 c 1xa4
354.681 131 m 0
 354.681 66 300.498 -8 279.858 -8 c 0
 238.578 -8 134.52 50 134.52 205 c 1x6c
 131.078 211 130.219 229 130.219 287 c 0
 130.219 387 125.918 349 101.838 369 c 1
 99.2578 389 79.4785 434 79.4785 472 c 0
 79.4785 567 155.158 556 200.738 604 c 0
 207.618 611 213.64 619 218.799 619 c 0
 222.239 619 226.539 614 226.539 601 c 0
 226.539 587 223.959 569 223.959 553 c 2
 223.959 520 l 2x74
 223.959 464 221.379 405 221.379 348 c 0x6c
 221.379 225 235.14 115 321.999 86 c 1
 341.779 86 342.641 144 352.96 144 c 1
 352.96 144 354.681 135 354.681 131 c 0
EndSplineSet
Validated: 33
EndChar
StartChar: R
Encoding: 82 82 38
Width: 452
GlyphClass: 2
Flags: W
HStem: -12 21G<75.585 102.585 402.585 413.085> 674 20G<190.826 239.585>
VStem: 19.585 88<232.771 532.391> 251.585 27<406.976 418.677>
LayerCount: 2
Fore
SplineSet
251.585 453 m 0
 251.585 516 206.585 558 168.585 585 c 1
 141.585 585 141.585 560 134.585 545 c 0
 125.585 526 107.585 513 107.585 484 c 0
 107.585 395 108.585 216 129.585 112 c 0
 135.585 83 161.585 80 181.585 71 c 1
 169.585 61 124.585 -12 80.585 -12 c 0
 70.585 -12 61.585 -8 52.585 0 c 0
 17.585 33 7.58496 114 7.58496 203 c 0
 7.58496 303 19.585 415 19.585 484 c 0
 19.585 536 124.585 615 147.585 636 c 2
 213.585 694 l 1
 265.585 694 346.585 608 346.585 528 c 0
 346.585 477 299.585 435 278.585 400 c 1
 278.585 389 292.585 368 292.585 364 c 1
 341.585 302 373.585 189 414.585 122 c 1
 414.585 121 l 2
 414.585 110 466.585 80 466.585 60 c 0
 466.585 44 423.585 -17 402.585 -17 c 1
 402.585 -17 367.585 0 358.585 0 c 1
 315.585 14 279.585 151 226.585 247 c 0
 209.585 277 179.585 316 178.585 323 c 1
 192.585 354 251.585 398 251.585 453 c 0
EndSplineSet
EndChar
StartChar: S
Encoding: 83 83 39
AltUni2: 000405.ffffffff.0 00054f.ffffffff.0
Width: 475
GlyphClass: 2
Flags: W
HStem: -45 21G<-52.5918 -40.5918> -8 102<189.908 317.012> 43 118<46.448 135.7> 524 138<179.834 269.908>
VStem: 355.908 105<129 250.5>
LayerCount: 2
Fore
SplineSet
-55.0918 -21 m 0xb8
 -55.0918 18 -28.0918 61 -17.0918 75 c 0
 20.9082 121 53.9082 161 114.908 161 c 0xb8
 173.908 161 255.908 94 310.908 94 c 0
 343.908 94 355.908 115 355.908 143 c 0
 355.908 195 311.908 272 275.908 282 c 1
 252.908 298 118.908 305 71.9082 322 c 1
 42.9082 322 32.9082 339 32.9082 358 c 0
 32.9082 371 37.9082 386 43.9082 399 c 0
 91.9082 492 96.9082 558 174.908 636 c 0
 193.908 655 216.908 662 241.908 662 c 0
 297.908 662 357.908 622 370.908 575 c 1
 370.908 575 374.908 561 370.908 555 c 1
 337.908 524 317.908 495 289.908 485 c 1
 251.908 485 224.908 524 189.908 524 c 0
 167.908 524 137.908 486 129.908 462 c 1
 129.908 457 133.908 454 143.908 454 c 0
 258.908 454 401.908 430 435.908 335 c 0
 440.908 321 460.908 270 460.908 231 c 0
 460.908 223 459.908 216 457.908 209 c 1
 396.908 107 370.908 -8 220.908 -8 c 0xd8
 158.908 -8 127.908 43 62.9082 43 c 0
 2.9082 43 -30.0918 -4 -51.0918 -45 c 1
 -54.0918 -37 -55.0918 -29 -55.0918 -21 c 0xb8
EndSplineSet
Validated: 1
EndChar
StartChar: T
Encoding: 84 84 40
AltUni2: 000422.ffffffff.0 0003a4.ffffffff.0
Width: 643
GlyphClass: 2
Flags: HMW
HStem: -12 102<376.05 508.55> -5 95<431.55 443.05> 517 98<164.05 260.55 208.55 225.55>
VStem: 190.55 110 350.55 92
LayerCount: 2
Fore
SplineSet
711.55 639 m 2xb8
 711.55 623 689.55 594 686.55 586 c 1
 686.55 584 l 2
 686.55 558 639.55 573 613.55 561 c 0
 581.55 546 576.55 540 534.55 517 c 1
 498.55 500 l 1
 470.55 488 406.55 482 399.55 455 c 1
 365.55 417 300.55 386 300.55 307 c 0
 300.55 200 394.55 90 468.55 90 c 0xb8
 548.55 90 530.55 190 585.55 217 c 1
 589.55 212 591.55 205 591.55 197 c 0
 591.55 165 561.55 119 548.55 113 c 1
 532.55 86 459.55 -5 426.55 -5 c 1x78
 426.55 -5 402.55 -12 387.55 -12 c 0
 364.55 -12 341.55 -6 333.55 6 c 1
 294.55 24 190.55 121 190.55 217 c 0
 190.55 234 193.55 250 200.55 266 c 0
 230.55 335 276.55 399 329.55 446 c 0
 347.55 463 356.55 469 356.55 477 c 1
 336.55 513 279.55 517 225.55 517 c 2
 177.55 517 l 2
 150.55 517 124.551 512 112.551 493 c 0
 78.5518 440 67.5518 376 14.5518 347 c 1
 3.55176 347 -0.448242 350 -0.448242 361 c 0
 -0.448242 467 104.552 579 182.55 613 c 1
 193.55 613 203.55 615 213.55 615 c 0
 307.55 615 364.55 565 488.55 565 c 0
 527.55 565 682.55 642 707.55 642 c 0
 710.55 642 711.55 641 711.55 640 c 2
 711.55 639 l 2xb8
350.55 319 m 0
 350.55 357 378.55 378 393.55 394 c 1
 393.55 394 442.55 319 442.55 267 c 0
 442.55 259 441.55 252 439.55 246 c 0
 436.55 236 415.55 201 400.55 201 c 1
 369.55 220 350.55 275 350.55 319 c 0
EndSplineSet
EndChar

StartChar: U
Encoding: 85 85 41
Width: 606
GlyphClass: 2
Flags: W
HStem: -28 21G<286.5 400.5>
VStem: 461 111<215.016 425.5>
LayerCount: 2
Fore
SplineSet
-55 525 m 1
 -28 573 11 631 79 631 c 0
 87 631 95 631 103 629 c 0
 136 623 189 582 217 531 c 0
 288 402 320 303 343 168 c 0
 345 155 364 54 377 54 c 4
 410 54 449 139 455 172 c 0
 459 193 461 215 461 237 c 0
 461 340 413 485 380 520 c 1
 385 541 443 595 490 595 c 0
 495 595 501 595 506 593 c 1
 535 567 572 469 572 382 c 0
 572 362 571.314 324.293 569 306 c 0
 548 140 471 9 330 -28 c 1
 243 -6 223 158 195 230 c 0
 163 313 89 509 -18 509 c 0
 -45 509 -55 515 -55 525 c 1
EndSplineSet
EndChar
StartChar: W
Encoding: 87 87 43
Width: 758
GlyphClass: 2
Flags: W
HStem: 0 21G<273.284 315.284 459.29 552.117> 506 111<-114.383 -18.3828>
VStem: 605.617 118<295.498 439.923>
LayerCount: 2
Fore
SplineSet
554.284 121 m 1
 603.281 145.498 605.617 234.081 605.617 300 c 0
 605.617 403 564.617 513 531.617 548 c 1
 536.617 569 594.617 623 641.617 623 c 0
 646.617 623 652.617 623 657.617 621 c 1
 686.617 595 723.617 497 723.617 410 c 0
 723.617 390 721.617 372 717.617 354 c 0
 682.617 204 622.617 37 481.617 0 c 1
 436.963 11.292 423.688 89.8877 400.617 159 c 0
 379.667 221.759 372.489 262.441 355.617 312 c 0
 332.083 381.126 324.858 392.727 283.617 450 c 0
 258.642 484.685 220.617 490.034 220.617 522 c 0
 220.617 566 287.617 603 310.617 630 c 1
 338.368 609.958 387.771 564.151 421.617 504 c 0
 453.632 447.103 470.756 376.11 475.617 345 c 0
 487.617 269 518.284 200 543.284 134 c 0
 546.284 125 550.284 121 554.284 121 c 1
374.284 78 m 1
 365.284 39 337.284 0 293.284 0 c 0
 287.284 0 280.284 -2 273.284 0 c 1
 249.284 0 221.284 47 218.284 56 c 2
 191.284 135 l 1
 165.284 197 159.077 216.698 134.284 267 c 0
 76.6172 384 23.6172 489 -103.383 506 c 0
 -107.383 507 -111.383 506 -114.383 506 c 0
 -139.383 506 -151.383 472 -174.383 472 c 0
 -176.383 472 -186.383 473 -186.383 476 c 0
 -186.383 515 -117.383 568 -66.3828 612 c 1
 -48.3828 615 -32.3828 617 -18.3828 617 c 0
 31.6172 617 62.6172 598 108.617 557 c 2
 133.617 534 l 1
 232.617 440 258.284 295 316.284 161 c 0
 331.284 127 374.284 109 374.284 78 c 1
EndSplineSet
EndChar

StartChar: X
Encoding: 88 88 44
AltUni2: 000425.ffffffff.0 0003a7.ffffffff.0
Width: 630
GlyphClass: 2
Flags: MW
HStem: -148 91<152 234.5> -34 21G<487 523 487 487> 502 111<82.5 223> 646 20G
LayerCount: 2
Fore
SplineSet
108 508 m 0
 106 500 121 512 118 514 c 0
 116 515 109 510 108 508 c 0
505 452 m 1
 465 470 396 517 396 577 c 0
 396 588 399 600 404 612 c 0
 411 627 449 660 473 666 c 1
 479 663 491 643 500 625 c 1
 514 611 548 551 572 551 c 1
 576 544 577 537 577 530 c 0
 577 493 531 455 505 452 c 1
259 216 m 2
 259 222 l 2
 259 245 297 303 309 313 c 1
 251 406 214 502 94 502 c 0
 71 502 54 467 32 467 c 0
 28 467 24 468 20 471 c 1
 20 510 95 563 149 607 c 1
 168 611 184 613 199 613 c 0
 247 613 279 593 321 552 c 1
 343 529 l 1
 398 478 430 401 455 327 c 1
 479 331 531 335 531 335 c 1
 550 335 575 333 575 313 c 0
 575 259 536 226 491 211 c 1
 517 161 518 97 576 79 c 1
 598 79 616 123 628 123 c 1
 633 119 635 113 635 107 c 0
 635 83 606 46 606 46 c 2
 596 25 570 0 556 -13 c 1
 553 -23 523 -34 523 -34 c 1
 487 -34 l 1
 463 -29 448 1 435 27 c 0
 414 68 390 125 379 161 c 1
 341 66 336 44 297 -11 c 0
 284 -30 239 -55 239 -90 c 0
 239 -94 240 -98 241 -102 c 1
 241 -118 l 1
 230 -138 196 -148 164 -148 c 0
 140 -148 118 -143 107 -132 c 1
 107 -130 l 1
 104 -123 102 -117 102 -112 c 0
 102 -74 178 -67 211 -57 c 1
 258 -57 297 60 302 86 c 0
 308 120 315 153 323 190 c 1
 318 189 312 189 307 189 c 0
 282 189 259 197 259 216 c 2
EndSplineSet
EndChar
StartChar: Y
Encoding: 89 89 45
AltUni2: 0004ae.ffffffff.0 0003d2.ffffffff.0 0003a5.ffffffff.0
Width: 529
GlyphClass: 2
Flags: HMW
HStem: -248 21G<138.104 153.104> 525 20G<405.104 421.104> 582 21G 742 20G<257.604 263.604>
VStem: 230.604 9 396.604 115<250 371 273.5 288>
LayerCount: 2
Fore
SplineSet
255.603 582 m 1
 223.603 603 186.603 629 176.603 666 c 1
 176.603 700 227.603 728 236.603 736 c 0
 243.603 742 251.603 762 263.603 762 c 1
 285.603 754 339.603 709 339.603 687 c 1
 323.603 644 282.603 613 255.603 582 c 1
-62.3965 509 m 0
 -89.3965 509 -99.3965 515 -99.3965 525 c 1
 -72.3965 573 -33.3965 631 34.6025 631 c 0
 91.6025 631 151.603 567 172.603 531 c 1
 230.603 438 l 1
 276.603 359 316.603 269 316.603 181 c 0
 316.603 168 344.603 114 351.603 114 c 0
 395.603 114 396.603 198 396.603 250 c 2
 396.603 257 l 2
 396.603 319 382.603 368 339.603 416 c 1
 314.603 451 l 1
 314.603 451 322.603 505 336.603 505 c 1
 353.603 513 363.603 538 391.603 538 c 1
 396.603 541 402.603 545 407.603 545 c 0
 434.603 545 453.603 505 463.603 494 c 0
 495.603 457 511.603 400 511.603 342 c 0
 511.603 205 440.603 163 372.603 75 c 2
 299.603 -19 l 2
 275.603 -51 239.603 -89 239.603 -123 c 0
 239.603 -139 266.603 -152 266.603 -165 c 0
 266.603 -183 224.603 -198 206.603 -205 c 0
 190.603 -211 164.603 -248 141.603 -248 c 0
 134.603 -248 126.603 -244 120.603 -234 c 1
 138.603 -150 230.603 -102 230.603 -11 c 0
 230.603 5 227.603 23 219.603 42 c 0
 167.603 173 159.603 256 97.6025 367 c 1
 73.6025 406 l 1
 26.6035 466 13.6035 509 -62.3965 509 c 0
180.603 320 m 0
 180.603 318 182.603 316 184.603 316 c 0
 185.603 316 187.603 317 187.603 320 c 0
 187.603 322 184.603 323 184.603 323 c 1
 181.603 323 180.603 321 180.603 320 c 0
EndSplineSet
EndChar
StartChar: Z
Encoding: 90 90 46
AltUni2: 000396.ffffffff.0
Width: 319
GlyphClass: 2
Flags: W
HStem: -19 21G<87.0643 153.564>
VStem: 41.0645 88.9995<31 130> 230.064 104<437.5 570.395>
LayerCount: 2
Fore
SplineSet
35.0645 615 m 1
 43.0645 618 50.0645 619 56.0645 619 c 0
 102.064 619 98.0645 545 159.064 545 c 0
 213.064 545 271.064 606 302.064 610 c 1
 327.064 603 334.064 584 334.064 557 c 0
 334.064 476 252.064 398 230.064 344 c 1
 237.064 319 270.064 342 270.064 312 c 0
 270.064 288 240.064 222 222.064 222 c 2
 210.064 222 l 2
 171.064 222 141.064 156 130.064 130 c 1
 130.064 102 152.064 95 177.064 95 c 0
 201.064 95 231.064 101 254.064 101 c 0
 260.064 101 265.064 101 270.064 100 c 1
 256.064 29 193.064 -19 114.064 -19 c 0
 60.0645 -19 41.0645 2 41.0645 31 c 0
 41.0645 85 103.064 168 120.064 205 c 1
 112.064 206 104.064 208 104.064 208 c 1
 70.0645 208 58.0645 224 58.0645 243 c 0
 58.0645 258 66.0645 277 78.0645 292 c 0
 103.064 323 89.0645 332 137.064 332 c 2
 147.064 332 l 2
 183.064 332 180.064 334 203.064 378 c 0
 218.064 408 230.064 429 230.064 446 c 0
 230.064 460 222.064 472 205.064 484 c 1
 173.064 471 130.064 427 79.0645 427 c 1
 79.0645 427 63.0645 426 59.0645 426 c 0
 15.0645 426 10.0645 484 -37.9365 484 c 0
 -44.9355 484 -51.9355 486 -59.9355 484 c 1
 -59.9355 524 -19.9355 552 9.06445 587 c 1
 35.0645 615 l 1
EndSplineSet
Validated: 1
EndChar
StartChar: bracketleft
Encoding: 91 91 182
Width: 287
Flags: W
HStem: -144 124.59<135.29 270.742> 627.252 126.248<151.576 277.143>
VStem: 29.834 99.5<-14.5723 270.651> 52.833 98.7427<147.295 626.341>
LayerCount: 2
Fore
SplineSet
145.5 408.400390625 m 0xd0
 145.5 378.371802999 129.333984375 232.013671875 129.333984375 86 c 0
 129.333984375 46.6588663719 134.272637778 9.40961480694 137.677119103 -15.7609369137 c 1
 275.333984375 -19.41015625 l 2
 285.208984375 -19.576171875 294.501953125 -21.5234375 294.501953125 -37.5 c 0
 294.501953125 -61.5 284.09375 -138.809570312 239.333984375 -144 c 1
 180.166015625 -143 l 2
 172.10546875 -142.86328125 94.833984375 -139.5 94.833984375 -139.5 c 2
 87.1799399922 -139.186118007 80.6367315306 -138.197742979 75.0930401881 -136.636639568 c 0
 74.3826171818 -136.870236865 73.6332552274 -137 72.833984375 -137 c 0
 40.833984375 -130 29.833984375 -72 29.833984375 -20 c 0
 29.833984375 -11 28.833984375 -2 29.833984375 6 c 0xe0
 28.833984375 15 49.5 344.400390625 49.5 353.400390625 c 0
 49.5 397.400390625 52.8330078125 534.599609375 52.8330078125 578.599609375 c 2
 52.8330078125 580.599609375 l 2
 52.8330078125 622.599609375 21.8330078125 653.599609375 21.8330078125 673.599609375 c 2
 21.8330078125 677.599609375 l 2
 21.8330078125 699.599609375 64.8330078125 753.599609375 107.833007812 753.599609375 c 0
 108.491162981 753.599609375 109.277914967 753.342415741 110.167649892 752.864779777 c 0
 115.547692788 753.557542458 122.522969026 753.746778259 131.833007812 753.5 c 2
 279.333007812 749.58984375 l 2
 289.208007812 749.423828125 298.499023438 747.4765625 298.499023438 731.5 c 0
 298.499023438 707.5 288.092773438 630.190429688 243.333007812 625 c 1
 184.165039062 626 l 2
 181.003418573 626.053625741 167.193867994 626.603650075 151.575755031 627.252414009 c 1
 150.388942253 567.225137453 145.5 451.45290515 145.5 408.400390625 c 0xd0
EndSplineSet
Validated: 8912929
EndChar
StartChar: backslash
Encoding: 92 92 47
Width: 441
GlyphClass: 2
Flags: W
HStem: -32 21G<324.5 361> 730 20G<83.5 101.5>
LayerCount: 2
Fore
SplineSet
320 278 m 0
 347 186 359 130 406 81 c 0
 410 77 421 67 421 51 c 0
 421 49 421 46 420 43 c 0
 397 6 385 -22 337 -32 c 1
 312 -32 308 -22 289 0 c 0
 254 43 223 190 176 310 c 0
 152 371 131 439 107 462 c 1
 79 523 35 562 20 633 c 1
 20 684 70 736 97 750 c 1
 106 750 116 740 117 735 c 1
 173 636 265 465 320 278 c 0
EndSplineSet
Validated: 1
EndChar
StartChar: bracketright
Encoding: 93 93 183
Width: 305
Flags: W
HStem: -145.021 127.5<36.7044 161.09> 627.89 124.59<41.9241 177.376> 725.479 20G<239.432 255.832>
VStem: 161.09 98.7427<-17.8613 461.184> 183.332 99.5<337.828 623.052>
LayerCount: 2
Fore
SplineSet
167.166015625 200.079101562 m 0xb0
 167.166015625 230.107421875 183.33203125 376.465820312 183.33203125 522.479492188 c 0
 183.33203125 561.820625816 178.393377847 599.069877381 174.988896522 624.240429102 c 1
 37.33203125 627.889648438 l 2
 27.45703125 628.055664062 18.1640625 630.002929688 18.1640625 645.979492188 c 0
 18.1640625 669.979492188 28.572265625 747.2890625 73.33203125 752.479492188 c 1xc8
 132.5 751.479492188 l 2
 140.560546875 751.342773438 217.83203125 747.979492188 217.83203125 747.979492188 c 2
 225.486075633 747.665610195 232.029284094 746.677235167 237.572975437 745.116131756 c 0
 238.283398443 745.349729053 239.032760398 745.479492188 239.83203125 745.479492188 c 0
 271.83203125 738.479492188 282.83203125 680.479492188 282.83203125 628.479492188 c 0
 282.83203125 619.479492188 283.83203125 610.479492188 282.83203125 602.479492188 c 0xa8
 283.83203125 593.479492188 263.166015625 264.079101562 263.166015625 255.079101562 c 0
 263.166015625 211.079101562 259.833007812 73.8798828125 259.833007812 29.8798828125 c 2
 259.833007812 27.8798828125 l 2
 259.833007812 -14.1201171875 290.833007812 -45.1201171875 290.833007812 -65.1201171875 c 2
 290.833007812 -69.1201171875 l 2
 290.833007812 -91.1201171875 247.833007812 -145.120117188 204.833007812 -145.120117188 c 0
 204.174852643 -145.120117188 203.388100657 -144.862923554 202.498365731 -144.385287589 c 0
 197.118322835 -145.07805027 190.143046597 -145.267286071 180.833007812 -145.020507812 c 2
 33.3330078125 -141.110351562 l 2
 23.4580078125 -140.944335938 14.1669921875 -138.997070312 14.1669921875 -123.020507812 c 0
 14.1669921875 -99.0205078125 24.5732421875 -21.7109375 69.3330078125 -16.5205078125 c 1
 128.500976562 -17.5205078125 l 2
 131.662597052 -17.5741335538 145.47214763 -18.1241578871 161.090260593 -18.7729218219 c 1
 162.277073371 41.2543547341 167.166015625 157.026587037 167.166015625 200.079101562 c 0xb0
EndSplineSet
Validated: 8912929
EndChar
StartChar: asciicircum
Encoding: 94 94 184
Width: 297
Flags: W
HStem: 549 188 556 21G<30.334 37.334>
VStem: 238.334 57<561.193 584.594>
AnchorPoint: "Anker-0" 148.667 583 mark 0
LayerCount: 2
Fore
SplineSet
43.333984375 559 m 0xa0
 41.333984375 556 39.333984375 556 35.333984375 556 c 0x60
 25.333984375 556 6.333984375 556 6.333984375 563 c 0
 6.333984375 566 7.333984375 570 8.333984375 573 c 1
 15.333984375 579 75.6669921875 667 85.6669921875 671 c 1
 108.666992188 698 125.666992188 737 175.666992188 737 c 1
 191.666992188 716 296.333984375 645 296.333984375 612 c 0
 296.333984375 609 295.333984375 607 295.333984375 603 c 2
 295.333984375 598 l 2
 295.333984375 576 264.333984375 553 260.333984375 549 c 0
 259.333984375 548 238.333984375 546 238.333984375 555 c 0
 238.333984375 564 165.333007812 646 131.666992188 664 c 1
 114.666992188 661 53.333984375 576 43.333984375 559 c 0xa0
EndSplineSet
Validated: 1
EndChar
StartChar: underscore
Encoding: 95 95 48
Width: 1000
GlyphClass: 2
Flags: MW
HStem: -161.5 124.59
LayerCount: 2
Fore
SplineSet
880.999 -160.5 m 2
 872.938 -160.363 54 -157 54 -157 c 2
 20 -157 8 -141 8 -122 c 0
 8 -107 16 -88 28 -73 c 0
 53 -42 39.0166 -32.7891 87 -33 c 2
 976.166 -36.9102 l 2
 986.041 -37.0762 995.333 -39.0234 995.333 -55 c 0
 995.333 -79 984.926 -156.309 940.166 -161.5 c 1
 880.999 -160.5 l 2
EndSplineSet
EndChar

StartChar: a
Encoding: 97 97 49
Width: 374
GlyphClass: 2
Flags: W
HStem: -19 27G<58.3506 87.3506 277.5 316.5> 562 20G<176 189>
VStem: 1 134<301.64 360.766> 1.85059 101<54 179 364.869 406.058> 236 133<19.4483 162.427> 242 92<131.743 343.566>
AnchorPoint: "Anker-0" 178.851 581 basechar 0
LayerCount: 2
Fore
SplineSet
307 -13 m 1xc8
 248 2 236 53 236 113 c 0xc8
 236 156 242 203 242 247 c 0xc4
 242 282 238 314 222 341 c 0
 206 367 155 438 102 450 c 1
 98 442 97 433 97 425 c 0
 97 398 113 371 130 361 c 1
 133 356 135 352 135 346 c 0
 135 321 106 289 95 289 c 0
 69 289 87 266 55 266 c 0
 10 266 19 290 1 312 c 1
 -1 319 1 327 1 334 c 0
 1 392 54 447 67 471 c 0
 86 505 135 537 160 570 c 0
 167 579 173 582 179 582 c 0
 199 582 217 548 236 545 c 1xe8
 252 534 271 513 285 504 c 1
 285 503 l 2
 285 495 305 480 305 471 c 1
 332 445 338 404 338 357 c 0
 338 319 334 278 334 239 c 0xc4
 334 182 342 130 384 99 c 0
 390 95 392 90 392 86 c 0
 392 72 369 55 369 36 c 0
 369 34 369 31 370 29 c 1
 361 11 326 -7 307 -13 c 1xc8
102.851 156 m 1xd0
 102.851 133 125.851 97 151.851 97 c 0
 153.851 97 155.851 98 157.851 98 c 0
 171.851 94 176.851 87 176.851 79 c 0
 176.851 56 136.851 24 132.851 12 c 0
 127.851 -4 101.851 -19 72.8506 -19 c 1
 43.8506 -6 1.85059 28 1.85059 80 c 0
 1.85059 139 35.8506 154 48.8506 187 c 1
 175.851 301 l 1
 187.851 299 191.851 294 191.851 288 c 1
 173.851 247 116.851 202 102.851 156 c 1xd0
EndSplineSet
EndChar
StartChar: b
Encoding: 98 98 50
Width: 396
GlyphClass: 2
Flags: W
HStem: 0 21G<148.547 183.547> 74 40<242.049 259.548> 547 20G<293.047 304.547> 666 20G<48.0469 58.5469 143.547 161.547>
VStem: -40.4531 211<565.116 636.73> 23.5469 114<245.207 536.762> 264.547 121<214.526 363.15>
LayerCount: 2
Fore
SplineSet
170.547 641 m 2xfa
 170.547 556 139.547 472 139.547 372 c 0
 139.547 362 138.547 353 137.547 346 c 1
 137.547 314 153.547 271 159.547 243 c 1
 191.547 208 190.547 126 240.547 114 c 1
 253.547 114 264.547 127 264.547 163 c 2
 264.547 177 l 2
 264.547 245 263.547 327 237.547 375 c 0
 223.547 402 205.547 426 200.547 461 c 0
 199.547 463 199.547 466 199.547 468 c 0
 199.547 492 241.547 514 249.547 537 c 1
 251.547 538 283.547 567 302.547 567 c 0
 306.547 567 309.547 566 312.547 563 c 0
 356.547 513 385.547 423 385.547 335 c 0
 385.547 272 370.547 210 335.547 166 c 0
 323.547 150 300.547 106 257.547 74 c 1
 244.547 74 247.547 48 231.547 48 c 1
 208.547 35 199.547 0 167.547 0 c 0
 162.547 0 155.547 -3 148.547 0 c 1
 98.5469 0 73.5469 84 51.5469 120 c 0
 28.5469 158 23.5469 210 23.5469 266 c 2
 23.5469 519 l 1xf6
 12.5469 542 -40.4531 569 -40.4531 599 c 0
 -40.4531 606 -37.4531 613 -31.4531 620 c 0
 -14.4531 639 7.54688 684 39.5469 684 c 1
 39.5469 684 46.5469 686 49.5469 686 c 0
 67.5469 686 74.5469 666 90.5469 666 c 1
 114.547 671 133.547 694 153.547 694 c 0
 169.547 694 170.547 651 170.547 642 c 2
 170.547 641 l 2xfa
EndSplineSet
EndChar
StartChar: c
Encoding: 99 99 51
AltUni2: 000441.ffffffff.0
Width: 282
GlyphClass: 2
Flags: W
HStem: -12 21G<83.6547 150.154> 421 138<122.294 197.654>
VStem: 7.65527 105<247.559 372>
LayerCount: 2
Fore
SplineSet
202.654 113 m 4
 213.654 113 216.654 119 235.654 119 c 4
 240.654 119 245.654 118 246.654 114 c 5
 238.654 81 178.654 2 121.654 -12 c 5
 45.6553 9 7.65527 248 7.65527 372 c 5
 7.65527 372 32.6553 438 42.6553 458 c 5
 51.6553 464 64.6553 487 118.654 533 c 5
 133.654 552 151.654 559 171.654 559 c 4
 223.654 559 282.654 505 293.654 460 c 5
 293.654 452 287.654 446 272.654 444 c 5
 262.654 436 242.654 424 234.654 414 c 5
 229.654 403 222.654 387 201.654 387 c 6
 189.654 387 l 6
 152.654 387 158.654 421 129.654 421 c 4
 116.655 421 112.655 408 112.655 389 c 4
 112.655 358 122.654 310 130.654 268 c 4
 139.654 220 158.654 113 202.654 113 c 4
EndSplineSet
Validated: 1
EndChar
StartChar: d
Encoding: 100 100 52
Width: 351
GlyphClass: 2
Flags: W
HStem: -14 136<124.187 192.187>
VStem: -11.8135 118.001<250.486 389.355> 229.187 107<171.474 341.492>
LayerCount: 2
Fore
SplineSet
106.187 369 m 0
 106.187 300 136.187 223 156.187 169 c 0
 169.187 135 181.187 122 192.187 122 c 0
 214.187 122 229.187 180 229.187 235 c 0
 229.187 253 228.187 271 224.187 286 c 0
 210.187 345 174.187 451 144.187 480 c 1
 144.187 480 106.187 400 106.187 369 c 0
336.187 302 m 0
 336.187 181 305.187 150 262.187 84 c 1
 260.187 72 153.187 -14 124.187 -14 c 1
 32.1865 33 14.1865 128 -11.8135 228 c 0
 -12.8135 233 -11.8135 237 -11.8135 241 c 2
 -11.8135 320 l 2
 -11.8135 400 79.1865 476 120.187 516 c 1
 92.1865 577 72.1865 580 57.1865 651 c 1
 57.1865 702 107.187 754 134.187 768 c 1
 143.187 768 153.187 758 154.187 753 c 1
 223.187 629 336.187 458 336.187 302 c 0
EndSplineSet
Validated: 1
EndChar

StartChar: e
Encoding: 101 101 53
AltUni2: 000435.ffffffff.0 000435.ffffffff.0 000435.ffffffff.0
Width: 278
GlyphClass: 2
Flags: W
HStem: 0 21G<152.93 180.43> 567 20G<147.005 177.505>
VStem: 4.00488 118<295.486 445.125> 97.9297 155<59.8719 116.46>
LayerCount: 2
Fore
SplineSet
168.005 389 m 1xe0
 169.005 392 169.005 395 169.005 397 c 0
 169.005 422 142.005 439 130.005 446 c 1
 124.005 440 122.005 429 122.005 415 c 0
 122.005 378 137.005 326 137.005 326 c 1
 137.005 326 137.005 309 141.005 299 c 0
 175.005 224 190.93 151 243.93 126 c 0
 250.93 123 252.93 117 252.93 110 c 1
 239.93 58 201.93 13 158.93 0 c 1
 146.93 0 134.93 7 124.93 27 c 1
 109.93 38 100.93 56 97.9297 74 c 1xd0
 51.9297 164 18.0049 256 4.00488 383 c 0
 3.00488 388 4.00488 392 4.00488 396 c 0
 4.00488 437 27.0049 458 47.0049 480 c 1
 79.0049 493 123.005 587 171.005 587 c 0
 184.005 587 197.005 580 211.005 562 c 0
 218.005 552 225.005 541 231.005 533 c 0
 241.005 522 250.005 477 266.005 477 c 2
 268.005 477 l 2
 291.005 477 322.005 525 341.005 527 c 1
 347.005 517 349.005 511 349.005 506 c 0
 349.005 494 332.005 492 310.005 462 c 0
 265.005 400 232.005 353 173.005 325 c 1
 167.005 330 165.005 336 165.005 345 c 0
 165.005 357 168.005 371 168.005 383 c 2
 168.005 389 l 1xe0
EndSplineSet
Validated: 1
EndChar
StartChar: f
Encoding: 102 102 54
AltUni2: 000584.ffffffff.0
Width: 364
GlyphClass: 2
Flags: W
HStem: -14 21G<82.501 117.501> 402 101<236 252.988 253.617 284.985> 561 21G<306.5 342> 732 20G<198.5 273>
VStem: 38.001 113.999<102.537 387.594>
LayerCount: 2
Fore
SplineSet
38.001 298 m 2
 38.001 364 -2.99902 409 -2.99902 464 c 0
 -2.99902 479 0.000976562 495 8.00098 513 c 1
 38.001 553 l 1
 93.001 630 153 713 244 752 c 1
 302 736 376 709 393 652 c 1
 381 621 352 585 332 561 c 1
 281 570 230 625 174 637 c 1
 168 637 163 635 162 628 c 0
 158 610 158 508 158 508 c 1
 158 508 192 503 219 503 c 0
 237 503 253 505 253 513 c 1
 266 509 289 503 311 503 c 0
 325 503 338 509 349 509 c 1
 383 504 394 493 394 479 c 0
 394 457 363 426 343 402 c 0
 301 353 288 300 232 271 c 0
 230 271 228 271 227 273 c 1
 227 303 278 350 285 382 c 1
 285 401 265 402 236 402 c 1
 236 402 153 397 153 381 c 0
 153 358 152 325 152 288 c 0
 152 204 156 106 180 98 c 0
 190 94 194 89 194 82 c 1
 187 57 135 -14 100.001 -14 c 0
 65.001 -14 38.001 53 38.001 114 c 0
 38.001 121 37.001 127 38.001 134 c 1
 37.001 140 38.001 146 38.001 152 c 2
 38.001 298 l 2
EndSplineSet
Substitution2: "'medi' Medial Forms in Latin lookup-1" f.med
Substitution2: "'init' Initiale Formen in Latin lookup 2 subtable" f.med
EndChar

StartChar: g
Encoding: 13 103 55
Width: 551
GlyphClass: 2
Flags: W
HStem: -249 119<224.682 288.655> 398 128<359.654 466.385>
VStem: 14 118<267.726 315.766> 252 98<176.652 282.435>
LayerCount: 2
Fore
SplineSet
443 31 m 2
 443 -14 l 1
 384 -94 l 1
 347 -146 315 -220 280 -232 c 1
 269 -245 257 -249 243 -249 c 0
 223 -249 200 -240 174 -235 c 1
 170 -228 65 -199 65 -152 c 0
 65 -144 68 -135 76 -126 c 0
 121 -72 132 -44 159 0 c 1
 83 58 37 160 14 266 c 1
 14 300 l 2
 14 306 16 311 14 316 c 1
 35 373 29 433 56 469 c 1
 65 469 71 476 71 487 c 1
 89 504 119 533 139 545 c 1
 146 545 161 575 171 575 c 1
 171 575 200 592 214 592 c 0
 245 592 278 571 296 545 c 0
 307 528 314 523 322 523 c 0
 326 523 330 524 335 524 c 0
 379 524 432 526 513 526 c 2
 556 526 l 2
 572 526 581 509 581 492 c 2
 581 488 l 2
 581 463 580 469 544 423 c 1
 506 377 l 2
 495 364 477 333 461 328 c 1
 455 332 453 337 453 342 c 0
 453 359 480 382 480 398 c 0
 480 403 476 406 467 410 c 1
 454 405 433 398 413 398 c 0
 405 398 397 395 390 398 c 1
 363 398 359 387 359 364 c 2
 359 336 l 2
 359 322 362 302 362 284 c 0
 362 250 350 256 350 211 c 0
 350 196 354 182 368 178 c 1
 415 149 403 136 425 85 c 1
 429 80 433 75 433 73 c 1
 441 60 443 63 443 31 c 2
132 381 m 0
 132 323 150 261 173 232 c 1
 171 228 170 225 170 222 c 0
 170 208 192 202 192 186 c 0
 192 183 191 180 190 177 c 1
 190 161 224 149 224 149 c 1
 224 149 252 177 252 189 c 2
 252 191 l 1
 253 199 252 208 252 216 c 0
 252 293 229 375 194 418 c 1
 182 420 169 458 151 458 c 0
 149 458 147 459 145 458 c 1
 136 436 132 408 132 381 c 0
288 -130 m 0
 316 -130 341 -116 341 -85 c 0
 341 -31 327 12 306 20 c 1
 303 32 275 65 252 65 c 0
 244 65 238 61 233 52 c 0
 215 21 182 -23 160 -37 c 1
 159 -41 158 -42 158 -46 c 0
 158 -83 204 -114 238 -114 c 1
 251 -124 270 -130 288 -130 c 0
EndSplineSet
EndChar
StartChar: h
Encoding: 104 104 56
AltUni2: 000570.ffffffff.0
Width: 425
GlyphClass: 2
Flags: W
HStem: -146 21G<219 247.5> 0 21G<83.499 131.5> 531 20G<317 342.5> 703 20G<37.998 63.998 139 156.5>
VStem: 48.998 121.002<124.223 540.55> 302 98<32.8538 241.303>
LayerCount: 2
Fore
SplineSet
176 684 m 0
 171 660 170 635 170 609 c 0
 170 559 175 505 175 455 c 0
 175 431 174 407 170 385 c 1
 180 306 164 153 204 100 c 1
 214 98 228 79 228 79 c 1
 228 79 207 51 197 42 c 1
 192 42 148 0 115 0 c 1
 51.998046875 14 48.998046875 128 48.998046875 209 c 2
 48.998046875 489 l 1
 43.998046875 538 43.998046875 536 25.998046875 541 c 1
 2.998046875 566 -15.001953125 632 -51.001953125 640 c 1
 -44.001953125 668 -10.001953125 664 -0 698 c 0
 4.998046875 714 26.998046875 723 48.998046875 723 c 0
 78.998046875 723 84.998046875 703 106.998046875 703 c 1
 106.998046875 703 129 709 149 709 c 0
 164 709 177 702 177 689 c 0
 177 687 176 686 176 684 c 0
360 529 m 0
 382 432 400 310 400 191 c 0
 400 150 398 109 393 69 c 0
 390 46 373 25 365 15 c 0
 328 -32 276 -108 219 -146 c 1
 219 -144 l 2
 219 -107 275 -65 289 -26 c 1
 302 0 l 1
 302 60 l 1
 288 154 279 267 267 362 c 0
 260 417 259 435 244 435 c 0
 236 435 226 430 208 423 c 1
 204 423 202 425 202 430 c 1
 221 480 293 534 341 551 c 1
 344 551 357 543 360 529 c 0
EndSplineSet
Validated: 1
EndChar

StartChar: dotlessi
Encoding: 105 105 57
Width: 199
GlyphClass: 2
Flags: W
HStem: 0 21G<112.5 134>
VStem: 39 117<128.391 379.31>
LayerCount: 2
Fore
SplineSet
-18 446 m 1
 -18 457 30 520 76 534 c 1
 153 509 156 384 156 278 c 2
 156 251 l 2
 156 182 164 123 210 91 c 1
 216 91 219 88 219 85 c 0
 219 70 173 33 163 17 c 0
 155 4 141 0 127 0 c 0
 98 0 65 19 61 39 c 1
 43 50 39 107 39 166 c 2
 39 308 l 2
 39 342 4 419 -18 446 c 1
EndSplineSet
Substitution2: "Single Substitution lookup 0 subtable" i.var
EndChar

StartChar: i
Encoding: 105 105 57
AltUni2: 000456.ffffffff.0
Width: 198
GlyphClass: 2
Flags: W
HStem: 0 21G<111.805 133.305> 527 20G<52.3047 113.805>
VStem: 38.3047 117<128.392 392.31>
LayerCount: 2
Fore
SplineSet
-18.6953 459 m 1
 -18.6953 470 29.3047 533 75.3047 547 c 1
 152.305 522 155.305 397 155.305 291 c 2
 155.305 251 l 2
 155.304 182.003 163.305 123 209.305 91 c 1
 215.305 91 218.305 88 218.305 85 c 0
 218.305 70 172.305 33 162.305 17 c 0
 154.305 4 140.305 0 126.305 0 c 0
 97.3047 0 64.3047 19 60.3047 39 c 1
 42.3047 50 38.3047 107.001 38.3047 166 c 2
 38.3047 321 l 2
 38.3047 355 3.30469 432 -18.6953 459 c 1
61.7354 656 m 1
 38.7354 656 -1.26465 698 -10.2646 719 c 1
 -10.2646 731 5.73535 739 11.7354 746 c 0
 20.7354 756 48.7354 807 85.7354 807 c 2
 89.7354 807 l 1
 120.735 789 147.735 760 166.735 727 c 1
 135.735 700 103.735 672 61.7354 656 c 1
EndSplineSet
EndChar

StartChar: j
Encoding: 106 106 58
AltUni2: 000458.ffffffff.0
Width: 205
GlyphClass: 2
Flags: W
HStem: -116 136<-33.5449 21.4053> 515 20G<61.6328 105.632>
VStem: 68.1328 94.998<93.133 320.516>
LayerCount: 2
Fore
SplineSet
-10.8672 446 m 1
 -10.8672 457 39.1328 521 84.1328 535 c 1
 127.131 535 166.131 431 166.131 385 c 2
 166.131 385 163.131 312 163.131 182 c 0
 163.131 96 50.1328 -116 -22.8672 -116 c 0
 -52.8672 -116 -70.8672 -97 -82.8672 -74 c 1
 -82.8672 -25 -44.8672 -15 -21.8672 9 c 0
 -13.8672 18 -3.86719 20 6.13281 20 c 0
 22.1328 20 38.1328 14 50.1328 14 c 0
 61.1328 14 68.1328 20 68.1328 41 c 2
 68.1328 123 l 2
 68.1328 245 45.1328 391 -10.8672 446 c 1
82.1328 623 m 1
 59.1328 623 19.1318 678 10.1318 699 c 1
 10.1318 711 26.1318 718 32.1318 725 c 0
 41.1318 735 69.1318 787 106.131 787 c 2
 110.131 787 l 1
 141.131 769 168.131 740 187.131 707 c 1
 156.131 680 124.131 639 82.1328 623 c 1
EndSplineSet
Substitution2: "'hist' Historical Forms in Latin lookup-1" dotlessi
EndChar
StartChar: k
Encoding: 107 107 59
Width: 447
GlyphClass: 2
Flags: MWO
HStem: -20 41G<101.5 132 365.854 388.354> 372 132<240.354 328.354> 734 0G<29.3564 63.8564 154.5 170>
VStem: 56 124<121.538 267.171 271.766 308.2 309.073 528>
DStem2: 346.854 309 241.854 210 0.511747 -0.859136<12.7377 263.04>
LayerCount: 2
Fore
SplineSet
165 754 m 0
 175 754 178 743 178 734 c 1
 174 709 173 675 173 642 c 0
 173 602 175 560 175 528 c 2
 175 462 l 2
 175 388 170 328 170 269 c 0
 170 230 172 190 180 147 c 0
 184 128 225 112 225 92 c 0
 225 86 222 80 212 73 c 1
 205 56 183 39 176 22 c 1
 162 11 132 0 132 0 c 1
 71 0 56 14 56 100 c 2
 56 106 l 1
 56 227 l 1
 56 249 l 2
 56 271 56 292 51 309 c 1
 51 309 56 410 56 460 c 0
 56 499 54 534 36 534 c 1
 27 544 13 560 9 570 c 0
 -7 608 -44 618 -44 651 c 2
 -44 652 l 1
 -20 688 2.85645 734 55.8564 734 c 0
 71.8564 734 77.8564 711 93.8564 711 c 0
 116.856 711 144 754 165 754 c 0
250.854 372 m 0
 229.854 372 207.854 303 191.854 303 c 1
 189.854 310 188.854 317 188.854 324 c 0
 188.854 362 214.854 398 214.854 439 c 0
 214.854 460 242.854 463 257.854 481 c 0
 270.854 497 287.854 504 304.854 504 c 0
 351.854 504 403.854 452 403.854 410 c 2
 403.854 406 l 2
 403.854 385 356.854 333 346.854 309 c 1
 363.854 261 410.854 219 418.854 161 c 0
 422.854 133 471.854 103 471.854 76 c 0
 471.854 67 476.854 68 461.854 60 c 1
 461.854 60 451.854 40 432.854 29 c 1
 415.854 6 397.854 -20 378.854 -20 c 0
 352.854 -20 318.854 52 314.854 67 c 1
 314.854 110 261.854 173 241.854 210 c 1
 244.854 239 284.854 290 293.854 320 c 1
 293.854 344 270.854 372 250.854 372 c 0
EndSplineSet
Validated: 8912897
EndChar
StartChar: l
Encoding: 108 108 60
Width: 215
GlyphClass: 2
Flags: W
HStem: 0 21G<84.3691 103.869 103.869 130.869>
VStem: -58.1309 222<635.106 704.293> 36.8691 127<189.32 344.219 388.356 540> 43.8691 128<112.594 493.434>
LayerCount: 2
Fore
SplineSet
168.869 213 m 0x90
 168.869 150 179.869 113 216.869 96 c 1
 192.869 59 144.869 19 116.869 0 c 1
 113.869 0 109.869 -2 103.869 0 c 1
 101.869 -1 99.8691 0 97.8691 0 c 0
 70.8691 0 43.8691 49 43.8691 49 c 1
 43.8691 182 l 2x90
 43.8691 340 36.8691 379 36.8691 499 c 2
 36.8691 540 l 1xa0
 14.8691 574 l 1
 -4.13086 632 -58.1309 622 -58.1309 675 c 0xc0
 -58.1309 694 29.8691 765 29.8691 765 c 1
 51.8691 765 67.8691 722 87.8691 722 c 0
 103.869 722 138.869 765 152.869 765 c 0
 159.869 765 163.869 754 163.869 720 c 2xa0
 163.869 680 l 2xc0
 163.869 578 171.869 441 171.869 346 c 0
 171.869 308 170.869 271 166.869 234 c 1
 167.869 228 168.869 221 168.869 213 c 0x90
EndSplineSet
EndChar
StartChar: m
Encoding: 109 109 61
Width: 673
GlyphClass: 2
Flags: W
HStem: 5 16G<139 161 338 378.5 576.5 625.5> 418 17<199 246> 539 20G<62.5 104.5 313 348.5 557.5 602>
VStem: 79 170<59.9427 123.165> 79 124<125.329 381.257> 296 134<266.406 393.437> 301 160<68.2083 134.511> 306 117<138.879 353.261> 535 125<69.1078 313.701> 543 117<133.207 349.746>
LayerCount: 2
Fore
SplineSet
667 352 m 2xe8
 667 304 660 251 660 203 c 0
 660 159 666 120 690 91 c 1
 690 73 646 0 605 0 c 1
 548 19 535 71 535 131 c 0xe880
 535 178 543 230 543 280 c 0
 543 332 534 385 499 418 c 1
 493 427 488 437 480 437 c 1
 465 427 430 412 426 394 c 1
 429 382 430 369 430 355 c 0xe440
 430 318 423 275 423 235 c 0xe1
 423 215 425 195 430 178 c 1xe4
 436 162 426 139 450 125 c 0
 458 120 461 112 461 104 c 0
 461 88 450 70 440 67 c 1
 421 51 393 12 364 12 c 1
 312 31 301 79 301 137 c 0xe2
 301 177 306 222 306 265 c 0xe1
 306 295 305 324 296 350 c 1
 296 352 l 2
 296 362 265 418 246 418 c 0
 208 418 199 357 199 295 c 0
 199 264 203 233 203 209 c 2
 203 195 l 2xec
 203 185 204 174 204 161 c 0
 204 121 249 123 249 98 c 0
 249 94 248 90 246 85 c 0
 239 68 211 46 202 30 c 1
 199 15 173 5 149 5 c 0
 129 5 110 12 105 27 c 0
 96 55 79 39 79 98 c 2xf0
 79 253 l 2
 79 336 70 424 -17 424 c 0
 -36 424 -36 422 -38 433 c 1
 -13 488 29 559 96 559 c 0
 113 559 129 551 140 527 c 1
 164 500 189 473 199 435 c 0
 200 435 206 441 212 448 c 2
 233 474 l 2
 239 481 246 490 247 494 c 1
 263 506 298 545 328 545 c 1
 369 529 389 526 409 474 c 0
 413 464 419 460 425 460 c 0
 439 460 455 478 459 492 c 0
 466 514 544 571 571 571 c 1
 633 531 667 457 667 365 c 2
 667 352 l 2xe8
EndSplineSet
Validated: 1
EndChar
StartChar: n
Encoding: 110 110 62
AltUni2: 000578.ffffffff.0 000578.ffffffff.0 000578.ffffffff.0
Width: 440
GlyphClass: 2
Flags: W
HStem: -11 21G<83.4714 147.703 350.972 381.972> 551 20G<60.4707 91.9714 276.472 312.972>
VStem: 48.4707 114.001<104.868 394.577> 293.472 102<143.021 380.478>
AnchorPoint: "Anker-0" 184 566 basechar 0
LayerCount: 2
Fore
SplineSet
395.472 327 m 2
 395.472 267 l 2
 395.472 225 397.472 185 410.472 152 c 0
 418.472 132 462.472 129 462.472 109 c 1
 446.472 72 404.472 8 359.472 -11 c 1
 342.472 0 308.472 6 308.472 34 c 2
 308.472 35 l 1
 296.472 63 293.472 99 293.472 138 c 2
 293.472 260 l 2
 293.472 335 285.472 401 218.472 419 c 1
 177.472 405 162.472 371 162.472 307 c 0
 162.472 229 173.472 97 194.472 88 c 1
 198.472 81 199.472 74 199.472 69 c 0
 199.472 46 173.472 36 153.472 15 c 2
 128.472 -11 l 1
 111.472 -11 l 1
 55.4707 11 48.4707 71 48.4707 141 c 2
 48.4707 249 l 2
 48.4707 329 41.4707 414 6.4707 430 c 0
 -12.5293 439 -20.5293 450 -20.5293 464 c 0
 -20.5293 505 47.4707 559 73.4707 571 c 1
 110.472 551 121.472 477 163.472 464 c 1
 183.472 469 209.472 487 209.472 493 c 1
 233.472 516 259.472 554 293.472 563 c 1
 332.472 549 355.472 481 381.472 446 c 1
 393.472 409 395.472 368 395.472 327 c 2
EndSplineSet
Validated: 1
EndChar
StartChar: o
Encoding: 111 111 63
AltUni2: 0000ba.ffffffff.0 0003bf.ffffffff.0 00043e.ffffffff.0 000585.ffffffff.0
Width: 346
GlyphClass: 2
Flags: W
HStem: -12 21G<101.093 158.38> 563 20G<191.092 231.592>
VStem: 4.59277 113<253.404 387.288> 240.592 100<191.239 338.984>
AnchorPoint: "Anker-0" 206 568 basechar 0
LayerCount: 2
Fore
SplineSet
135.593 -12 m 1
 66.5928 10 4.59277 155 4.59277 285 c 0
 4.59277 320 9.59277 354 19.5928 384 c 1
 51.5928 426 l 1
 89.5928 466 165.593 570 216.592 583 c 1
 246.592 583 265.592 535 309.592 469 c 0
 336.592 429 340.592 405 340.592 343 c 2
 340.592 262 l 2
 340.592 193 292.592 169 274.592 110 c 1
 237.592 58 135.593 -12 135.593 -12 c 1
117.593 371 m 0
 117.593 302 147.593 225 167.593 171 c 0
 180.592 137 192.592 124 203.592 124 c 0
 225.592 124 240.592 182 240.592 237 c 0
 240.592 255 239.592 273 235.592 288 c 0
 221.592 347 173.593 455 135.593 455 c 1
 135.593 455 117.593 402 117.593 371 c 0
EndSplineSet
EndChar

StartChar: q
Encoding: 113 113 65
Width: 433
GlyphClass: 2
Flags: W
HStem: -147 21G<349.798 387.298> 445 94<146.799 185.097> 553 12G<201.798 226.298 367.298 384.798>
VStem: 25.7979 121<222 443.99> 285.798 111<141.701 345.78 346.283 397.537>
LayerCount: 2
Fore
SplineSet
146.798 409 m 1
 144.798 390 143.798 373 143.798 355 c 0
 143.798 256 176.798 174 233.798 131 c 1
 229.798 118 163.798 55 151.798 48 c 1
 153.798 44 137.798 33 126.798 33 c 0
 123.798 33 120.798 34 118.798 36 c 1
 84.7979 36 83.7979 74 63.7979 90 c 1
 35.7979 147 25.7979 215 25.7979 287 c 0
 25.7979 334 29.7979 383 36.7979 431 c 0
 42.7979 474 81.7979 484 94.7979 511 c 1
 100.798 511 125.798 540 143.798 540 c 0
 144.798 540 146.798 539 147.798 539 c 0
 167.798 539 187.798 573 215.798 573 c 1
 236.798 568 309.798 520 309.798 520 c 1
 328.798 532 l 1
 350.798 536 360.798 565 373.798 565 c 1
 395.798 560 397.798 521 397.798 478 c 2
 397.798 453 l 2
 397.798 438 396.798 425 396.798 414 c 1
 411.798 290 386.798 153 429.798 44 c 1
 429.798 34 440.798 28 440.798 19 c 1
 447.798 1 461.798 -19 461.798 -37 c 0
 461.798 -47 457.798 -57 446.798 -65 c 0
 432.798 -74 409.798 -135 364.798 -147 c 1
 334.798 -147 311.798 -93 309.798 -86 c 0
 298.798 -23 285.798 159 285.798 228 c 1
 280.798 230 283.798 343 279.798 346 c 1
 277.798 352 291.798 361 285.798 371 c 1
 287.798 386 273.798 388 273.798 398 c 0
 273.798 399 273.798 401 274.798 403 c 0
 277.798 409 277.798 409 270.798 405 c 1
 264.798 403 258.798 402 253.798 402 c 0
 213.798 402 187.798 445 153.798 445 c 0
 147.798 445 146.798 444 146.798 433 c 2
 146.798 409 l 1
EndSplineSet
EndChar
StartChar: r
Encoding: 114 114 66
Width: 313
GlyphClass: 2
Flags: W
HStem: -14 21G<104.654 127.654> 540 20G<62.1543 105.154 254.654 271.654 377.654 380.154>
VStem: -10.3457 171<414.353 494.473> 52.6543 108<134.287 331>
LayerCount: 2
Fore
SplineSet
87.6543 560 m 0xe0
 122.654 560 160.654 499 160.654 466 c 2
 160.654 463 l 1xe0
 167.654 441 169.654 417 169.654 392 c 0
 169.654 340 160.654 283 160.654 232 c 0
 160.654 190 166.654 152 190.654 123 c 1
 194.654 108 224.654 102 224.654 85 c 0
 224.654 61 179.654 17 166.654 0 c 1
 166.654 -4 137.654 -14 117.654 -14 c 0
 112.654 -14 108.654 -16 104.654 -14 c 1
 74.6543 21 52.6543 47 52.6543 93 c 2
 52.6543 331 l 1xd0
 22.6543 397 l 1
 16.6543 420 -10.3457 420 -10.3457 441 c 1
 -2.3457 477 36.6543 560 87.6543 560 c 0xe0
175.654 448 m 1
 175.654 448 170.654 464 170.654 475 c 0
 170.654 479 171.654 481 172.654 483 c 0
 187.654 517 202.654 525 236.654 563 c 0
 244.654 572 251.654 575 257.654 575 c 0
 285.654 575 298.654 503 321.654 503 c 0
 339.654 503 371.654 556 388.654 556 c 1
 366.654 473 316.654 420 240.654 382 c 1
 235.654 382 231.654 385 231.654 390 c 1
 223.654 403 175.654 437 175.654 448 c 1
EndSplineSet
Substitution2: "Single Substitution lookup 0 subtable" uniA75B
EndChar
StartChar: s
Encoding: 115 115 67
Width: 323
VWidth: 1043
Flags: W
HStem: -16 21G<133.261 159.761> 532 20G<155.261 208.761>
VStem: 209.261 45<335.621 372.088>
LayerCount: 2
Fore
SplineSet
33.2607421875 361 m 6
 34.35546875 353.599609375 32.0478515625 364.08203125 33.2607421875 378 c 5
 44.2607421875 389 35.2607 436 51.2607 443 c 1
 87.2607 488 115.261 552 195.261 552 c 1
 222.261 518 302.261 500 302.261 445 c 0
 302.261 441 301.261 436 300.261 431 c 1
 301.261 428 301.261 425 301.261 422 c 0
 301.261 385 254.261 365 254.261 331 c 0
 254.261 329 254.261 325 255.261 323 c 1
 290.261 312 298.261 271 311.261 247 c 1
 311.261 235 l 2
 311.261 155 239.261 117 215.261 51 c 1
 198.261 19 l 1
 187.261 -7 169.261 -16 150.261 -16 c 0
 116.261 -16 77.2607 13 58.2607 37 c 1
 38.2607 50 -1.73926 81 -1.73926 117 c 0
 -1.73926 120 -0.739258 123 -0.739258 126 c 1
 23.2607 151 59.2607 205 96.2607 213 c 1
 109.261 213 131.261 172 141.261 160 c 1
 147.261 160 169.261 134 177.261 116 c 1
 209.261 95 l 1
 209.261 95 218.261 113 218.261 126 c 0
 218.261 130 213.261 135 209.261 137 c 1
 199.261 176 168.261 205 126.261 219 c 0
 91.2607 231 18.2607 218 18.2607 263 c 0
 18.2607 286 41.2607 309 41.2607 320 c 1
 38.2607 332 33.2607421875 361 33.2607421875 361 c 6
165.261 334 m 0
 188.261 334 209.261 338 209.261 351 c 0
 209.261 366 138.261 426 125.261 430 c 1
 97.2607 426 103.261 376 92.2607 353 c 1
 92.2607 342 131.261 334 165.261 334 c 0
EndSplineSet
Validated: 524289
Substitution2: "'init' Initiale Formen in Latin lookup 2 subtable" longs
Substitution2: "'medi' Medial Forms in Latin lookup-1" longs
Substitution2: "'hist' Historical Forms in Latin lookup-1" longs
EndChar
StartChar: t
Encoding: 116 116 68
Width: 346
GlyphClass: 2
Flags: W
HStem: -0 21G<138 167> 52 47<220.044 269.125> 294 7<240.188 249.95> 397 90<174.757 283.96> 542 20G<110.5 144.5>
VStem: 59.999 114.001<128.987 266.295 267.396 394.627> 286 90<365 481.392>
LayerCount: 2
Fore
SplineSet
274 105 m 4
 278 105 280 103 280 98 c 4
 280 86 262 61 247 52 c 5
 242 52 214 24 210 24 c 5
 199 7 178 -0 156 -0 c 4
 120 -0 81.9990234375 18 81.9990234375 52 c 5
 60.9990234375 135 59.9990234375 229 59.9990234375 340 c 5
 60.9990234375 344 59.9990234375 349 59.9990234375 353 c 4
 59.9990234375 382 20.9990234375 417 -0.0009765625 428 c 5
 26.9990234375 490 84.9990234375 522 136 562 c 5
 153 556 149 487 176 487 c 4
 256 487 276 502 335 502 c 4
 375 502 376 499 376 462 c 4
 376 398 321 370 295 330 c 5
 292 328 280 313 271 313 c 4
 269 313 267 314 265 317 c 5
 270 331 286 356 286 374 c 4
 286 386 279 397 255 397 c 6
 222 397 l 6
 184 397 170 390 170 344 c 4
 170 312 178 275 180 267 c 5
 176 252 174 235 174 217 c 4
 174 161 195 99 242 99 c 4
 251 99 267 105 274 105 c 4
240 294 m 4
 239 294 238 293 237 294 c 5
 237 297 250 301 250 301 c 5
 249 299 244 294 240 294 c 4
EndSplineSet
Validated: 1
Substitution2: "'medi' Medial Forms in Latin lookup-1" t.med
Substitution2: "'init' Initiale Formen in Latin lookup 2 subtable" t.med
EndChar

StartChar: u
Encoding: 117 117 69
AltUni2: 00057d.ffffffff.0
Width: 452
GlyphClass: 2
Flags: W
HStem: -19 135<108.342 231.342> 0 21G<317.342 388.842> 526 20G<70.8408 127.341 323.842 338.842>
VStem: 56.3418 113<141.485 392.272> 280.342 118<119.075 399.087>
AnchorPoint: "Anker-0" 195 550 basechar 0
LayerCount: 2
Fore
SplineSet
442.342 98 m 0x78
 466.342 92 479.342 87 479.342 78 c 0
 479.342 73 474.342 66 463.342 58 c 0
 436.342 36 416.342 7 361.342 0 c 1
 336.342 0 l 1
 317.342 13 l 1
 286.342 51 280.342 106 280.342 165 c 2
 280.342 266 l 2
 280.342 302 280.342 337 272.342 370 c 0
 263.342 406 238.342 412 238.342 453 c 0
 238.342 480 285.342 519 302.342 536 c 1
 304.342 546 317.342 546 330.342 546 c 0
 347.342 546 366.342 543 369.342 536 c 0
 396.342 484 402.342 419 402.342 353 c 0
 402.342 301 398.342 245 398.342 189 c 0
 398.342 150 421.342 103 442.342 98 c 0x78
169.342 277 m 2
 169.342 230 l 2
 169.342 183 191.342 116 223.342 116 c 0xb8
 239.342 116 255.342 134 264.342 141 c 1
 267.342 139 268.342 136 268.342 132 c 1
 248.342 84 208.342 31 179.342 0 c 1x78
 166.342 -6 163.342 -19 136.342 -19 c 0xb8
 80.3418 -19 66.3418 42 51.3418 84 c 1
 51.3418 98 56.3418 117 56.3418 134 c 0
 56.3418 139 57.3418 144 56.3418 149 c 1
 56.3418 265 l 2
 56.3418 325 53.3418 385 33.3418 395 c 1
 29.3418 401 18.3418 426 4.3418 426 c 0
 3.3418 426 1.3418 426 0.341797 425 c 1
 -12.6582 425 -26.6582 431 -26.6582 436 c 1
 -2.6582 470 51.3408 530 90.3408 546 c 1
 164.342 533 169.342 390 169.342 277 c 2
EndSplineSet
EndChar

StartChar: v
Encoding: 118 118 70
Width: 406
GlyphClass: 2
Flags: W
HStem: -6 110<198.165 274.665> 525 20G<289.165 309.165>
VStem: -9.83398 151.999<412.422 484.439> 300.165 103<196.5 369>
LayerCount: 2
Fore
SplineSet
283.165 127 m 1
 295.165 155 300.165 183 300.165 210 c 0
 300.165 301 245.165 387 219.165 453 c 1
 219.165 476 278.165 545 300.165 545 c 0
 318.165 545 323.165 519 339.165 496 c 1
 361.165 434 403.165 406 403.165 332 c 0
 403.165 219 393.165 232 367.165 190 c 0
 345.165 155 324.165 122 295.165 94 c 1
 290.165 74 279.165 74 275.165 59 c 1
 257.165 38 237.165 -6 201.165 -6 c 0
 195.165 -6 188.165 -3 181.165 0 c 0
 156.165 10 136.165 63 128.165 98 c 0
 110.166 171 92.166 288 51.166 343 c 0
 35.166 364 25.166 397 0.166016 412 c 1
 -6.83398 421 -9.83398 430 -9.83398 439 c 0
 -9.83398 480 51.166 524 75.166 534 c 1
 100.166 534 134.165 463 142.165 453 c 1
 142.165 451 168.165 407 168.165 401 c 1
 218.165 315 218.165 193 261.165 107 c 1
 264.165 105 267.165 104 270.165 104 c 0
 279.165 104 283.165 114 283.165 127 c 1
EndSplineSet
Substitution2: "'init' Initiale Formen in Latin lookup 2 subtable" v.init
EndChar
StartChar: w
Encoding: 119 119 71
Width: 654
GlyphClass: 2
Flags: W
HStem: 0 102<397.679 483.679> 525 20G<68.6787 88.6787 279.679 293.679 501.679 534.679>
VStem: 523.679 119<213.461 330.013>
LayerCount: 2
Fore
SplineSet
497.679 109 m 1
 515.679 141 523.679 178 523.679 215 c 0
 523.679 297 486.679 383 447.679 430 c 0
 441.679 437 428.679 455 428.679 470 c 0
 428.679 476 430.679 481 434.679 485 c 1
 461.679 492 479.679 545 523.679 545 c 0
 526.679 545 531.679 546 534.679 545 c 0
 598.679 512 642.679 414 642.679 318 c 0
 642.679 269 630.679 221 604.679 184 c 0
 572.679 140 550.679 111 508.679 71 c 2
 444.679 11 l 2
 434.679 2 424.679 0 416.679 0 c 0
 378.679 0 359.679 77 352.679 113 c 0
 329.679 227 290.679 323 236.679 407 c 1
 217.679 421 207.679 440 207.679 459 c 0
 207.679 477 216.679 495 236.679 508 c 1
 241.679 514 268.679 545 290.679 545 c 0
 296.679 545 301.679 540 306.679 535 c 1
 309.679 535 328.679 513 328.679 509 c 1
 391.679 416 421.679 316 448.679 196 c 0
 460.679 142 463.679 102 481.679 102 c 0
 485.679 102 491.679 104 497.679 109 c 1
-1.32129 436 m 0
 -7.32129 442 -9.32129 448 -9.32129 453 c 0
 -9.32129 470 15.6787 485 27.6787 505 c 1
 27.6787 510 45.6787 525 49.6787 525 c 1
 57.6787 533 64.6787 537 72.6787 537 c 0
 104.679 537 133.679 481 143.679 462 c 0
 203.679 348 218.679 190 293.679 87 c 1
 293.679 85 l 1
 271.679 49 251.679 18 213.679 0 c 1
 207.679 0 201.679 -2 195.679 6 c 0
 108.679 126 99.6787 328 -1.32129 436 c 0
EndSplineSet
EndChar
StartChar: x
Encoding: 120 120 72
AltUni2: 0003c7.ffffffff.0 000445.ffffffff.0
Width: 379
GlyphClass: 2
Flags: W
HStem: -174 98<-98.6798 -47.1497> -34 21G<242.037 290.037> 543 2G<103.037 115.037 309.537 324.037>
VStem: 110.037 145<302.259 366.643> 129.037 133<141.397 202.992> 243.037 151<424.338 484.671>
LayerCount: 2
Fore
SplineSet
28.0371 434 m 0xe0
 26.0371 426 45.0371 435 34.0371 438 c 0
 32.0371 438 29.0371 436 28.0371 434 c 0xe0
326.037 386 m 1
 287.037 400 243.037 431 243.037 471 c 0
 243.037 483 247.037 496 256.037 509 c 1
 260.037 525 298.037 557 321.037 563 c 1
 327.037 560 341.037 540 351.037 522 c 1
 366.037 508 363.037 485 387.037 485 c 1
 392.037 478 394.037 470 394.037 462 c 0xe4
 394.037 426 353.037 386 326.037 386 c 1
-72.9629 -174 m 0
 -101.963 -174 -113.963 -158 -113.963 -138 c 0
 -113.963 -110 -89.9629 -76 -57.9629 -76 c 0
 -53.9629 -76 -50.9629 -76 -46.9629 -77 c 1
 56.0371 -58 116.037 47 129.037 163 c 1
 129.037 170 l 2xe8
 129.037 198 109.037 206 86.0371 206 c 0
 74.0371 206 62.0371 204 51.0371 201 c 1
 44.0371 201 41.0371 203 41.0371 207 c 0
 50.0371 248 110.037 268 110.037 312 c 0
 110.037 335 76.0371 398 58.0371 398 c 1
 52.0371 416 19.0371 420 19.0371 438 c 0
 19.0371 439 20.0371 441 20.0371 443 c 0
 20.0371 480 103.037 545 103.037 545 c 1
 127.037 545 188.037 487 201.037 461 c 1
 201.037 462 l 1
 203.037 462 255.037 411 255.037 364 c 0xf0
 255.037 359 254.037 353 253.037 348 c 0
 248.037 329 268.037 347 273.037 338 c 1
 277.037 335 294.037 335 294.037 335 c 1
 309.037 335 329.037 335 329.037 323 c 0
 329.037 321 329.037 320 328.037 318 c 1
 331.037 310 333.037 303 333.037 296 c 0
 333.037 274 318.037 258 297.037 247 c 1
 297.037 246 l 2
 297.037 235 262.037 228 262.037 216 c 0xe8
 262.037 149 299.037 113 333.037 79 c 1
 348.037 79 373.037 123 385.037 123 c 1
 391.037 119 394.037 113 394.037 106 c 0
 394.037 82 368.037 46 368.037 46 c 1
 360.037 25 335.037 0 322.037 -13 c 1
 319.037 -23 290.037 -34 290.037 -34 c 1
 254.037 -34 l 1
 230.037 -29 211.037 9 198.037 27 c 0
 194.037 32 185.037 31 185.037 41 c 1
 176.037 51 172.037 55 166.037 55 c 0
 162.037 55 158.037 54 152.037 51 c 0
 108.037 33 63.0371 -67 26.0371 -99 c 1
 17.0371 -124 2.03711 -151 -24.9629 -161 c 1
 -24.9629 -164 -50.9629 -174 -72.9629 -174 c 0
EndSplineSet
EndChar
StartChar: z
Encoding: 122 122 74
Width: 303
GlyphClass: 2
Flags: HW
HStem: -5 111<161.664 235.32> 421 84<159.96 215.817> 551 20G<38.3197 79.3199 240.82 296.82>
LayerCount: 2
Fore
SplineSet
243.821 198 m 1
 239.821 199 234.821 200 230.821 200 c 0
 200.821 200 174.821 169 171.821 145 c 1
 171.821 140 l 2
 171.821 108 202.821 114 226.821 106 c 1
 243.821 106 264.821 113 277.821 118 c 1
 261.821 75 230.821 29 195.821 0 c 1
 191.821 -1 186.821 -5 181.821 -5 c 0
 172.821 -5 160.821 0 148.821 0 c 0
 113.821 0 77.8213 6 77.8213 33 c 0
 77.8213 74 129.821 144 140.821 182 c 1
 132.821 183 125.821 185 125.821 185 c 1
 96.8213 185 75.8213 197 75.8213 218 c 1
 81.8213 244 106.821 311 131.821 311 c 1
 131.821 311 150.821 308 157.821 308 c 0
 207.821 308 199.821 364 215.821 410 c 1
 215.821 418 211.821 421 205.821 421 c 1
 170.821 411 132.821 385 88.8213 385 c 0
 56.8213 385 40.8203 421 13.8203 421 c 0
 -9.17969 421 -25.1797 394 -34.1797 394 c 0
 -35.1797 394 -36.1797 394 -37.1797 395 c 1
 -18.1797 461 9.82031 535 66.8213 571 c 1
 91.8213 566 126.821 504 159.821 504 c 0
 162.821 504 164.821 504 167.821 505 c 1
 193.821 505 215.821 522 240.821 540 c 0
 250.821 547 296.821 551 296.821 551 c 1
 296.821 482 l 1
 296.821 482 279.821 431 274.821 413 c 1
 264.821 405 243.821 347 239.821 330 c 1
 244.821 299 286.821 320 286.821 288 c 0
 286.821 263 256.821 198 243.821 198 c 1
EndSplineSet
EndChar
StartChar: braceleft
Encoding: 123 123 211
Width: 269
Flags: W
HStem: -40 21G<151 172.5>
VStem: 81.5 113<90.7677 271.103>
LayerCount: 2
Fore
SplineSet
99.5 630 m 0
 106.13671875 642.506835938 193.264648438 688.000976562 229.264648438 722.000976562 c 0
 246.772460938 738.536132812 260.448030891 713.263627136 249 698 c 0
 235.499633789 680 209.201035101 666.818387551 203.264648438 638.000976562 c 0
 188.306640625 565.391601562 214.519979139 470.154929365 197.5 448 c 0
 194.415713455 443.985180123 180.895222999 434.712884854 162.312720105 421.890663086 c 1
 190.872559963 392.72813487 196.5 336.677787453 196.5 275 c 0
 196.5 240 194.5 235.5 194.5 203.5 c 2
 194.5 176.5 l 2
 194.5 68.5 245.5 87 245.5 51 c 0
 245.5 35 234.5 14 201.5 -23 c 0
 191.5 -34 179.5 -40 165.5 -40 c 0
 136.5 -40 103.5 -21 99.5 -1 c 1
 81.5 10 81.5 67.1641578581 81.5 126 c 2
 81.5 202 l 2
 81.5 236 42.5 313 20.5 340 c 1
 20.5 348.174687258 59.4542447777 387.259292672 77.5 406.5 c 0
 109.576171875 440.700195312 68.602084656 571.773160416 99.5 630 c 0
EndSplineSet
Validated: 33
EndChar
StartChar: bar
Encoding: 124 124 199
Width: 170
Flags: W
HStem: 708.167 20G<82.875 108.375>
VStem: 22.375 112<-39.8938 156.31 624.104 696.723> 49.375 99<360.553 622.343> 49.375 85<444.84 620.913>
LayerCount: 2
Fore
SplineSet
134.375 473.166992188 m 0x90
 126.375 376.30859375 128.375 236.30859375 134.375 116.295898438 c 0
 138.063476562 42.5234375 133.375 36.8408203125 133.375 21.2958984375 c 0
 133.375 -13.7041015625 122.375 -42.7041015625 85.375 -58.7041015625 c 1
 76.375 -58.7041015625 73.375 -71.7041015625 65.375 -71.7041015625 c 1
 33.375 -64.7041015625 22.375 -6.7041015625 22.375 45.2958984375 c 0
 22.375 54.2958984375 21.375 63.2958984375 22.375 71.2958984375 c 1
 21.375 80.2958984375 21.3232421875 89.357421875 22.375 98.2958984375 c 0xc0
 30.375 166.295898438 49.375 509.166992188 49.375 553.166992188 c 2
 49.375 555.166992188 l 2
 49.375 597.166992188 18.375 628.166992188 18.375 648.166992188 c 2
 18.375 652.166992188 l 2
 18.375 674.166992188 61.375 728.166992188 104.375 728.166992188 c 0
 112.375 728.166992188 139.375 690.166992188 139.375 680.166992188 c 1
 146.375 662.166992188 148.375 643.166992188 148.375 623.166992188 c 0xa0
 148.375 575.166992188 138.408203125 522.000976562 134.375 473.166992188 c 0x90
EndSplineSet
Validated: 33
EndChar
StartChar: braceright
Encoding: 125 125 212
Width: 269
Flags: W
HStem: 706.12 20G<111.5 172.712>
VStem: 81.5 113<419.748 553.902>
LayerCount: 2
Fore
SplineSet
99.5 289.48046875 m 0
 106.13671875 301.987304688 193.263671875 347.481445312 229.263671875 381.481445312 c 0
 246.771484375 398.016601562 260.447265625 372.744140625 249 357.48046875 c 0
 235.5 339.48046875 209.201171875 326.298828125 203.263671875 297.481445312 c 24
 188.306640625 224.872070312 214.51953125 87.775390625 197.5 65.6201171875 c 0
 189.750976562 55.533203125 107.771484375 -21.5 53.5 -70.8798828125 c 0
 42.5107421875 -80.87890625 6.2783203125 -55.4833984375 31.5 -26.3798828125 c 0
 57.5 3.6201171875 56.0517578125 1.251953125 77.5 24.1201171875 c 0
 109.576171875 58.3203125 68.6015625 231.252929688 99.5 289.48046875 c 0
20.5 627.120117188 m 1
 20.5 638.120117188 88.5 712.120117188 134.5 726.120117188 c 1
 210.924804688 701.606445312 194.5 556.032226562 194.5 505.48046875 c 0
 194.5 397.48046875 245.5 415.98046875 245.5 379.98046875 c 0
 245.5 363.98046875 234.5 342.98046875 201.5 305.98046875 c 0
 191.5 294.98046875 179.5 288.98046875 165.5 288.98046875 c 0
 136.5 288.98046875 103.5 307.98046875 99.5 327.98046875 c 1
 81.5 338.98046875 81.5 396.14453125 81.5 454.98046875 c 2
 81.5 489.120117188 l 2
 81.5 516.868164062 42.0732421875 600.659179688 20.5 627.120117188 c 1
EndSplineSet
Validated: 37
EndChar
StartChar: asciitilde
Encoding: 126 126 214
Width: 421
Flags: W
HStem: 226.3 159.338
LayerCount: 2
Fore
SplineSet
339.7421875 279.3046875 m 0
 308.766601562 253.756835938 277.009351588 226.911902235 250.678710938 226.299804688 c 0
 207.678710938 225.300201416 158.135742188 329.59375 98.6787109375 313.299804688 c 0
 83.6455078125 309.180664062 27.4922415482 235.071799994 12.6787109375 224.299804688 c 0
 11.791015625 223.654296875 10.94921875 223.354492188 10.1572265625 223.354492188 c 0
 5.17578125 223.354492188 2.162109375 235.233398438 2.162109375 247.88671875 c 0
 2.162109375 280.743787254 27.4623534075 296.582777856 45.208984375 312.224609375 c 0
 47.8216573329 314.527412104 106.760068694 370.158893573 108.534179688 372.2265625 c 0
 117.534179688 382.2265625 133.276367188 385.637695312 170.276367188 385.637695312 c 1
 192.270507812 387.296875 266.678710938 287.300201416 319.75390625 317.135742188 c 0
 344.154463067 330.852202456 378.120117188 369.779296875 387.678710938 373.299804688 c 0
 399.1015625 377.107421875 409.075195312 369.676757812 406.678710938 355.299804688 c 0
 402.623046875 335.01953125 353.679024047 290.799425067 339.7421875 279.3046875 c 0
EndSplineSet
Validated: 524321
EndChar
StartChar: cent
Encoding: 162 162 196
Width: 282
Flags: W
HStem: -12 21G<83.6547 150.154>
VStem: 7.65527 105<247.559 372> 26.6543 58<-110.176 -38.3319>
LayerCount: 2
Fore
SplineSet
139.654296875 50.375 m 0xa0
 123.8359375 -2.8681640625 105.183153693 -29.7740011361 84.654296875 -101.625 c 0
 80.654296875 -115.625 74.654296875 -121.625 67.654296875 -121.625 c 0
 49.654296875 -121.625 26.654296875 -83.625 26.654296875 -62.625 c 0
 26.654296875 -8.625 88.654296875 74.375 105.654296875 111.375 c 1
 117.096679688 134.258789062 166.47362604 412.742456975 196.654296875 522.872070312 c 0
 206.0390625 557.1171875 198.646484375 550.197265625 197.646484375 564.198242188 c 0
 196.649414062 578.162109375 223.36866918 644.158001075 247.654296875 704.872070312 c 0
 249.654296875 709.872070312 254.654296875 718.872070312 260.654296875 716.872070312 c 0
 285.654296875 709.872070312 299.634981933 685.954057126 292.654296875 659.872070312 c 0
 237.654174805 454.374694824 221.654296875 326.374023438 139.654296875 50.375 c 0xa0
202.654 113 m 0
 213.654 113 216.654 119 235.654 119 c 0
 240.654 119 245.654 118 246.654 114 c 1
 238.654 81 178.654 2 121.654 -12 c 1
 45.6553 9 7.65527 248 7.65527 372 c 1
 7.65527 372 32.6553 438 42.6553 458 c 1
 51.6553 464 64.6553 487 118.654 533 c 1
 133.654 552 151.654 559 171.654 559 c 0
 223.654 559 282.654 505 293.654 460 c 1
 293.654 452 287.654 446 272.654 444 c 1
 262.654 436 242.654 424 234.654 414 c 1
 229.654 403 222.654 387 201.654 387 c 2
 189.654 387 l 2
 152.654 387 158.654 421 129.654 421 c 0
 116.655 421 112.655 408 112.655 389 c 0xc0
 112.655 358 122.654 310 130.654 268 c 0
 139.654 220 158.654 113 202.654 113 c 0
EndSplineSet
Validated: 37
EndChar
StartChar: sterling
Encoding: 163 163 195
Width: 215
Flags: W
HStem: 0 21G<84.3691 103.869 103.869 130.869 342.547 377.547> 74 40<436.049 453.548> 547 20G<487.047 498.547> 666 20G<242.047 252.547 337.547 355.547>
VStem: -58.1309 222<635.106 704.293> 36.8691 127<189.32 344.219 388.356 540> 43.8691 128<112.594 493.434> 153.547 211<565.116 636.73> 217.547 114<245.207 536.762> 458.547 121<214.526 363.15>
LayerCount: 2
Fore
SplineSet
31.0869140625 489.375976562 m 16xf040
 19.12109375 479.35546875 7.8095703125 467.666015625 -2.6015625 452.596679688 c 0
 -3.4892578125 451.951171875 -4.3310546875 451.650390625 -5.123046875 451.650390625 c 0
 -10.1044921875 451.650390625 -13.1181640625 463.530273438 -13.1181640625 476.18359375 c 0
 -13.1181640625 486.45703125 -11.1318359375 497.2421875 -6.6005859375 502.595703125 c 0
 0.7607421875 511.877929688 8.9423828125 520.723632812 17.5 529.033203125 c 0
 20.8916015625 533.377929688 25.8046875 537.118164062 29.9287109375 540.520507812 c 0
 31.130859375 541.581054688 32.388671875 542.572265625 33.5439453125 543.668945312 c 0
 34.2314453125 544.321289062 175.59375 646.899414062 176.283203125 647.369140625 c 0
 199.473632812 663.182617188 209.044921875 677.3125 218.708007812 680.533203125 c 0
 221.708007812 681.533203125 228.708007812 681.533203125 234.708007812 678.533203125 c 0
 237.708007812 676.533203125 238.708007812 668.533203125 237.708007812 662.533203125 c 0
 233.65234375 642.251953125 210.208007812 621.033203125 196.271484375 609.538085938 c 0
 165.295898438 583.990234375 91.466796875 539.940429688 31.0869140625 489.375976562 c 16xf040
EndSplineSet
Refer: 50 98 N 1 0 0 1 194 0 2
Refer: 60 108 N 1 0 0 1 0 0 2
Validated: 5
EndChar
StartChar: currency
Encoding: 164 164 218
Width: 379
Flags: W
HStem: -174 98<-98.6798 -24.9818> -34 21G<242.037 290.037> 202.041 121.864<-42.8394 105.941> 213.798 124.723<262.297 366.361> 525 20G<103.037 115.037 309.537 324.037>
VStem: 129.037 133.013<141.397 202.891> 243.037 151<424.338 484.671>
LayerCount: 2
Fore
SplineSet
-72.9629 -174 m 0xda
 -101.963 -174 -113.963 -158 -113.963 -138 c 0
 -113.963 -110 -89.9629 -76 -57.9629 -76 c 0
 -53.9629 -76 -50.9629 -76 -46.9629 -77 c 0
 56.0371 -58 116.037 47 129.037 163 c 1
 129.037 170 l 2
 129.037 192.545003912 116.070744863 202.123752686 99.0124164815 205.000338199 c 0
 85.1697445672 204.251818644 71.4711463565 203.510917497 58.3201100544 202.799515226 c 0
 55.8522531158 202.253438464 53.4211894327 201.650206486 51.0371 201 c 0
 48.12132132 201 45.8995642981 201.347010829 44.299557038 202.041032182 c 0
 -8.4138289024 199.1891787 -49.1875000165 196.981445618 -49.1875 196.981445312 c 0
 -83.3525390625 194.772460938 -92.6611328125 210.092773438 -89.396484375 229.212890625 c 0
 -86.818359375 244.306640625 -75.515625 263.946289062 -60.880859375 279.8203125 c 0
 -30.4326171875 312.639648438 -42.8564453125 321.274414062 5.279296875 323.905273438 c 2xec
 106.469652073 329.435614431 l 1
 97.2779512458 357.350837727 72.4957595003 398 58.0371 398 c 1
 52.0371 416 19.0371 420 19.0371 438 c 0
 19.0371 439 20.0371 441 20.0371 443 c 0
 20.0371 480 103.037 545 103.037 545 c 1
 127.037 545 188.037 487 201.037 461 c 1
 201.037 462 l 2
 203.037 462 255.037 411 255.037 364 c 0
 255.037 359 254.037 353 253.037 348 c 0
 248.139735594 329.390395257 267.22566985 346.275924534 272.71014192 338.521130475 c 1
 393.650390625 345.130859375 l 2
 403.544921875 345.60546875 412.546875 344.25 409.803710938 328.172851562 c 0
 405.678710938 304.022460938 381.938476562 225.551757812 336.068359375 217.41796875 c 1
 276.786132812 214.580078125 l 2
 275.834398249 214.534620428 270.58005516 214.255477588 262.050400418 213.798358034 c 1xdc
 262.851326817 148.207570638 299.411317226 112.625682774 333.037 79 c 1
 348.037 79 373.037 123 385.037 123 c 1
 391.037 119 394.037 113 394.037 106 c 0
 394.037 82 368.037 46 368.037 46 c 2
 360.037 25 335.037 0 322.037 -13 c 1
 319.037 -23 290.037 -34 290.037 -34 c 1
 254.037 -34 l 1
 230.037 -29 211.037 9 198.037 27 c 0
 194.037 32 185.037 31 185.037 41 c 1
 176.037 51 172.037 55 166.037 55 c 0
 162.037 55 158.037 54 152.037 51 c 0
 108.037 33 63.0371 -67 26.0371 -99 c 1
 17.0371 -124 2.03711 -151 -24.9629 -161 c 0
 -24.9629 -164 -50.9629 -174 -72.9629 -174 c 0xda
326.037 386 m 1
 287.037 400 243.037 431 243.037 471 c 0
 243.037 483 247.037 496 256.037 509 c 1
 260.037 525 298.037 557 321.037 563 c 1
 327.037 560 341.037 540 351.037 522 c 1
 366.037 508 363.037 485 387.037 485 c 1
 392.037 478 394.037 470 394.037 462 c 0xca
 394.037 426 353.037 386 326.037 386 c 1
28.0371 434 m 0
 26.0371 426 45.0371 435 34.0371 438 c 0
 32.0371 438 29.0371 436 28.0371 434 c 0
EndSplineSet
EndChar
StartChar: brokenbar
Encoding: 166 166 198
Width: 221
Flags: W
VStem: 52.9951 108<-62.7231 254.634 358.055 491.792 563.701 627.927> 57.3467 95<349.463 491.792 563.701 627.927>
LayerCount: 2
Fore
SplineSet
170.48828125 271.31640625 m 0x00
 164.942382812 212.069335938 169.180664062 151.97265625 163.5390625 95.31640625 c 0
 156.220703125 21.8154296875 162.5390625 15.861328125 162.5390625 0.31640625 c 0
 162.5390625 -34.68359375 151.5390625 -63.68359375 114.5390625 -79.68359375 c 1
 105.5390625 -79.68359375 102.5390625 -92.68359375 94.5390625 -92.68359375 c 1
 62.5390625 -85.68359375 51.5390625 -27.68359375 51.5390625 24.31640625 c 0
 51.5390625 33.31640625 50.5390625 42.31640625 51.5390625 50.31640625 c 1
 50.5390625 59.31640625 50.4873046875 68.3779296875 51.5390625 77.31640625 c 0
 53.921875 97.5654296875 56.017578125 112.1875 64.5390625 166.033203125 c 0
 68.3779296875 190.290039062 53.986328125 209.004882812 53.5390625 223.31640625 c 0
 52.5400390625 255.31640625 111.68359375 273.65625 155.5390625 304.31640625 c 0
 162.334960938 309.067382812 166.118164062 295.869140625 169.5390625 288.31640625 c 24
 172.279296875 282.267578125 172.138671875 288.944335938 170.48828125 271.31640625 c 0x00
57.9951171875 578 m 0
 57.5469435862 590.383035208 52.8037109375 596.806640625 51.759765625 609.154296875 c 24
 51.1328125 616.579101562 48.0849609375 623.325195312 53.759765625 628.154296875 c 24
 86.544921875 656.056640625 107.598632812 669.229492188 145.759765625 689.154296875 c 24
 153.052734375 692.961914062 160.561523438 692.563476562 166.759765625 687.154296875 c 24
 171.462890625 683.05078125 168.63671875 685.590820312 166.389648438 671.154296875 c 0
 153.583980691 588.883029469 152.346679688 520.668945312 152.346679688 502.033203125 c 2
 152.346679688 500.033203125 l 2x40
 152.346679688 458.033203125 160.995117188 419 160.995117188 399 c 2
 160.995117188 395 l 2
 160.995117188 373 108.995117188 317.283203125 65.9951171875 317.283203125 c 0
 57.9951171875 317.283203125 54.365234375 349.489257812 52.9951171875 371 c 24x80
 50.9581844683 402.972667505 56.3464355469 411.033081055 57.3466796875 453.033203125 c 0x40
 58.48948849 501.019596905 60.3464355469 513.033081055 57.9951171875 578 c 0
EndSplineSet
Validated: 524321
EndChar
StartChar: section
Encoding: 167 167 206
Width: 340
VWidth: 1043
Flags: W
HStem: 649.8 20G<151.858 206.318>
VStem: 9.46289 315.615
LayerCount: 2
Fore
SplineSet
174.166015625 451.799804688 m 0
 197.166015625 451.799804688 217.940429688 455.799804688 217.20703125 468.799804688 c 0
 216.359375 483.799804688 141.97265625 543.799804688 128.74609375 547.799804688 c 1
 100.97265625 543.799804688 109.794921875 493.799804688 100.09375 470.799804688 c 1
 100.71484375 459.799804688 140.166015625 451.799804688 174.166015625 451.799804688 c 0
242.933230737 176.925146133 m 1
 266.764636953 161.770629689 287.026614686 145.590078736 287.96484375 128.966796875 c 0
 292.481445312 48.966796875 228.239257812 20.7998046875 207.96484375 -45.2001953125 c 1
 192.771484375 -77.2001953125 l 2
 183.239257812 -103.200195312 165.748046875 -112.200195312 146.748046875 -112.200195312 c 0
 112.748046875 -112.200195312 94.333984375 -107.829101562 73.9794921875 -83.8291015625 c 1
 53.2451171875 -70.8291015625 11.4951171875 -39.8291015625 9.462890625 -3.8291015625 c 0
 9.29296875 -0.8291015625 10.1240234375 2.1708984375 9.9541015625 5.1708984375 c 0
 32.54296875 30.1708984375 65.494140625 84.1708984375 102.04296875 92.1708984375 c 0
 115.04296875 92.1708984375 139.357421875 51.1708984375 150.03515625 39.1708984375 c 0
 159.73046875 20.9267578125 177.266601562 12.857421875 199.481445312 -1.2001953125 c 1
 199.481445312 -1.2001953125 207.46484375 16.7998046875 206.73046875 29.7998046875 c 0
 206.504882812 33.7998046875 201.22265625 38.7998046875 197.109375 40.7998046875 c 0
 191.34765625 59.2177734375 181.026367188 75.40625 167.23046875 88.837890625 c 0
 151.81640625 103.845703125 72.302734375 145.759765625 55.2626953125 175.170898438 c 0
 42.8291015625 196.631835938 25.279296875 214.017578125 35.875 235.170898438 c 0
 53.69140625 270.737304688 77.2998046875 304.842773438 114.416015625 319.599609375 c 0
 124.249023438 323.509765625 128.397460938 290.728515625 133.946289062 281.17578125 c 0
 147.244140625 258.280273438 152.80078125 242.025390625 171.552734375 223.171875 c 0
 182.876697496 211.786490841 206.616980284 198.919976479 229.725926065 185.055421314 c 1
 232.256950253 201.41622603 237.609846141 222.558623048 236.82421875 236.470703125 c 0
 234.177734375 283.34765625 184.42578125 322.807617188 141.659179688 336.799804688 c 0
 105.981445312 348.799804688 33.7158203125 335.799804688 31.1748046875 380.799804688 c 0
 30.2158203125 397.793945312 46.55078125 435.901367188 51.130859375 479 c 0
 54.900390625 514.46484375 45.9501953125 557.18359375 54.0126953125 560.799804688 c 1
 87.4716796875 605.799804688 111.858398438 669.799804688 191.858398438 669.799804688 c 1
 220.778320312 635.799804688 301.794921875 617.799804688 304.899414062 562.799804688 c 0
 305.125 558.799804688 304.408203125 553.799804688 303.690429688 548.799804688 c 0
 304.859375 545.799804688 305.028320312 542.799804688 305.198242188 539.799804688 c 0
 307.287109375 502.799804688 261.416015625 482.799804688 263.3359375 448.799804688 c 0
 263.448242188 446.799804688 263.674804688 442.799804688 264.787109375 440.799804688 c 0
 300.408203125 429.799804688 310.723632812 388.799804688 325.078125 364.799804688 c 1
 325.755859375 352.799804688 l 2
 330.083888938 276.139873501 266.121300214 238.046081702 242.933230737 176.925146133 c 1
EndSplineSet
Validated: 33
EndChar
StartChar: dieresis
Encoding: 4 168 76
Width: 293
GlyphClass: 2
Flags: HMW
HStem: 578 7.21399 730.409 31.591
VStem: 34 52.3057 155 34<618.001 649.5 643 644.542>
AnchorPoint: "Anker-0" 118.412 531.8 mark 0
LayerCount: 2
Fore
SplineSet
98.9639 658.542 m 24
 112.863 627.973 131.331 596.181 150.386 589.479 c 0
 153.868 588.366 154.862 586.14 154.862 583.543 c 1
 148.396 564.252 137.655 555.864 116.263 551.042 c 1
 110.292 551.042 104.323 553.639 99.3467 561.059 c 1
 91.8838 565.139 43.7627 623.583 43.7627 654.042 c 0
 43.7627 672.042 39.5254 689.583 55.7627 715.542 c 0
 79.3008 753.171 83 725 103 750 c 0
 111 759 120 762.002 129 762.002 c 0
 135.469 762 141.938 759.403 148.902 752.727 c 0
 152.385 749.016 155.867 744.935 158.854 741.967 c 0
 163.828 737.887 168.305 721.193 176.266 721.193 c 2
 177.262 721.193 l 2
 188.703 721.193 204.127 739 213.58 739.741 c 1
 216.566 736.032 217.561 733.806 217.561 731.951 c 0
 217.561 727.499 209.102 726.758 198.156 715.628 c 0
 175.77 692.627 159.35 675.191 129.996 664.803 c 1
 127.01 666.658 126.016 668.885 126.016 672.223 c 0
 126.016 676.675 127.508 681.868 127.508 686.32 c 2
 127.508 688.546 l 1xe0
 128.006 689.659 128.006 690.772 128.006 691.514 c 0
 128.006 694.126 126.038 696.875 124.374 699 c 0
 111.564 716.188 97.165 729.052 86.3057 730.409 c 1
 86.3057 712.993 87.1836 684.449 98.9639 658.542 c 24
EndSplineSet
EndChar
StartChar: copyright
Encoding: 169 169 216
Width: 682
Flags: W
HStem: -152.937 133.898<219.654 333.673> -24.123 20G<438.915 454.306> 5.46875 21G<257 323.5> 357.469 138<305.639 381> 567.326 110.676<375.859 439.811>
VStem: 28 110.999<159.658 307.718> 191.001 105<187.476 356.65> 577.027 96.259<264.047 378.203>
LayerCount: 2
Fore
SplineSet
376 130.46875 m 0x3f
 387 130.46875 390 136.46875 409 136.46875 c 0
 414 136.46875 419 135.46875 420 131.46875 c 1
 412 98.46875 352 19.46875 295 5.46875 c 1
 219.000976562 26.46875 191.000976562 184.46875 191.000976562 308.46875 c 1
 191.000976562 308.46875 216.000976562 374.46875 226.000976562 394.46875 c 1
 235.000976562 400.46875 248.000976562 423.46875 302 469.46875 c 1
 317 488.46875 335 495.46875 355 495.46875 c 0
 407 495.46875 466 441.46875 477 396.46875 c 1
 477 388.46875 471 382.46875 456 380.46875 c 1
 446 372.46875 426 360.46875 418 350.46875 c 1
 413 339.46875 406 323.46875 385 323.46875 c 2
 373 323.46875 l 2
 336 323.46875 342 357.46875 313 357.46875 c 0
 300.000976562 357.46875 296.000976562 344.46875 296.000976562 325.46875 c 0
 296.000976562 294.46875 306.120722186 246.491565007 314 204.46875 c 0
 323 156.46875 332 130.46875 376 130.46875 c 0x3f
553 145.46875 m 0
 565 171.001 l 1
 574.966 195.622 577.027 225.054 577.027 249.627 c 0
 577.027 266.973 576 281.897 576 291.001 c 2
 576 315.001 l 1
 562.627 371.359 491.768 567.326 373.883 567.326 c 0
 368.358 567.326 362.73 566.896 357 566 c 0
 208 543 138.999 406.002 138.999 247.002 c 0
 138.999 119.002 175.999 3.00195 224.999 0.00195312 c 1
 224.999 0.00195312 245.627 -19.0391 309.194 -19.0391 c 0
 333.032 -19.0391 362.908 -16.3613 399.999 -8.99805 c 0
 419.31 -5.5498 433.655 -4.12305 444.175 -4.12305 c 0
 464.437 -4.12305 470.502 -9.41699 470.502 -15.7559 c 0
 470.502 -25.2139 456.999 -36.999 456.999 -36.999 c 1
 378.976 -117.859 310.512 -152.937 241.972 -152.937 c 0xbf
 213.882 -152.937 185.779 -147.045 157 -135.998 c 1
 67 -106.998 26 111.002 26 161.002 c 1
 26 161.002 26.1797 159.652 26.4316 159.652 c 0
 27.0195 159.652 28 167.002 28 216.002 c 0
 28 400.002 318 678.002 446 678.002 c 0
 544 678.002 599 562.002 643 496.002 c 0
 670 456.002 646 472.002 668 414.002 c 0
 671.544 404.732 673.286 391.95 673.286 376.656 c 0
 673.286 279.761 603.37 82.0488 479 38.001 c 0
 474.587 36.4482 470.394 35.7236 466.414 35.7236 c 0
 421.707 35.7236 535 111.9375 553 145.46875 c 0
EndSplineSet
Validated: 33
EndChar
StartChar: ordfeminine
Encoding: 170 170 207
Width: 214
Flags: W
HStem: 538 228.585
VStem: 8.12012 71.9639<670.504 693.326>
AnchorPoint: "Anker-0" 118.677 552.973 mark 0
LayerCount: 2
Fore
SplineSet
122.993164062 682.073242188 m 5
 125.706054688 677.5546875 123.762695312 674.21484375 122.610351562 670.703125 c 4
 118.235351562 657.360351562 91.80859375 643.27734375 87.0966796875 636.419921875 c 6
 87.0966796875 636.419921875 78.8642578125 628.782226562 79.7783203125 625.766601562 c 28
 85.47265625 606.962890625 104.958984375 597.955078125 103.0078125 583.897460938 c 4
 100.823242188 568.147460938 65.1845703125 551.393554688 47.7216796875 555.084960938 c 5
 32.1787109375 556.73046875 5.9794921875 599.447265625 11.7734375 608.153320312 c 5
 24.65625 632.086914062 55.2490234375 649.936523438 79.1796875 658.948242188 c 4
 90.666015625 663.274414062 117.388671875 693.1953125 122.993164062 682.073242188 c 5
157.36328125 538 m 5
 136.87109375 542.78515625 127.55859375 570.034179688 130.9609375 590.208007812 c 4
 133.40234375 604.666992188 137.669921875 637.05078125 140.166992188 651.84375 c 4
 142.15234375 663.612304688 132.299804688 675.262695312 125.268554688 684.56640625 c 4
 118.383789062 693.676757812 95.7587890625 718.721679688 68.7412109375 723.974609375 c 5
 66.1953125 721.376953125 65.1611328125 718.375 64.70703125 715.684570312 c 4
 63.173828125 706.607421875 70.0048828125 697.161132812 78.3212890625 693.408203125 c 5
 79.607421875 691.658203125 80.4248046875 690.267578125 80.083984375 688.249023438 c 4
 78.6650390625 679.84375 61.6923828125 669.750976562 55.943359375 670.00390625 c 4
 42.35546875 670.603515625 50.4580078125 662.455078125 33.732421875 663.192382812 c 4
 10.2138671875 664.227539062 16.279296875 672.08984375 8.1201171875 679.901367188 c 5
 7.4716796875 682.299804688 8.9716796875 684.944335938 9.369140625 687.297851562 c 4
 12.6611328125 706.798828125 43.4833984375 724.0703125 51.6396484375 731.83984375 c 4
 63.5 742.8359375 90.9248046875 752.465820312 105.864257812 762.987304688 c 4
 110.033203125 765.852539062 113.33984375 766.723632812 116.475585938 766.584960938 c 4
 126.928710938 766.125976562 134.405273438 754.279296875 144.166015625 752.833007812 c 5
 151.903320312 748.766601562 160.640625 741.26953125 167.44921875 737.920898438 c 5
 167.392578125 737.583984375 l 6
 166.936523438 734.895507812 176.538085938 729.392578125 176.028320312 726.366210938 c 5
 188.663085938 717.002929688 184.479492188 703.877929688 186.8046875 687.27734375 c 4
 188.40625 675.8515625 190.010742188 660.149414062 187.794921875 647.038085938 c 4
 184.559570312 627.874023438 187.326171875 593.485351562 207.518554688 582.094726562 c 4
 210.427734375 580.61328125 211.190429688 578.884765625 210.961914062 577.541015625 c 4
 210.166992188 572.833007812 197.181640625 567.647460938 196.104492188 561.258789062 c 4
 195.990234375 560.586914062 195.818359375 559.579101562 196.227539062 558.883789062 c 5
 190.504882812 553.037109375 167.631835938 539.580078125 157.36328125 538 c 5
EndSplineSet
Validated: 33
EndChar
StartChar: guillemotleft
Encoding: 171 171 77
Width: 451
GlyphClass: 2
Flags: HMW
VStem: 12.7833 84.7994 235.984 84.8
LayerCount: 2
Fore
SplineSet
12.7832 262.8 m 4
 12.7832 288.77 37.1826 315.601 37.1826 315.601 c 1
 36.3828 318.801 73.582 347.601 72.7832 351.601 c 1
 126.976 410.506 183.983 458.001 211.183 472.401 c 0
 216.839 475.396 223.183 469.201 227.983 461.201 c 1
 227.983 454.801 219.983 436.4 215.983 434 c 0
 166.383 387.6 97.583 336.399 97.583 312.399 c 0
 97.583 282.714 134.295 234.906 179.183 183.601 c 0
 189.939 171.308 223.014 211.4 231.983 196.4 c 1
 222.053 165.535 175.696 93.9863 132.783 73.2002 c 1
 118.856 73.2002 12.7832 197.52 12.7832 262.8 c 4
235.982 278.801 m 0
 235.982 304.771 285.581 352.401 285.581 352.401 c 1
 284.782 355.602 296.782 363.602 295.982 367.602 c 1
 350.175 426.507 407.183 474.002 434.383 488.402 c 0
 440.039 491.397 446.383 485.202 451.183 477.202 c 1
 451.183 470.802 443.183 452.401 439.183 450.001 c 0
 389.582 403.601 320.783 352.4 320.783 328.4 c 0
 320.783 291.601 402.383 254.001 448.783 176.401 c 1
 448.783 129.201 423.184 105.201 377.583 89.2012 c 1
 374.384 89.2012 370.384 90.8008 367.983 93.2012 c 1
 363.184 92.4014 359.184 89.2012 355.983 89.2012 c 0
 351.983 89.2012 348.783 93.2012 346.383 98.8008 c 0
 335.722 123.49 235.982 198.546 235.982 278.801 c 0
EndSplineSet
EndChar
StartChar: registered
Encoding: 174 174 217
Width: 682
Flags: W
HStem: -152.937 133.898<219.654 333.673> -24.123 20G<438.915 454.306> 8.96875 21G<373.643 414.128> 373.031 140<285.643 340.369> 567.326 110.676<375.859 439.811>
VStem: 26.4316 112.567<90.082 159.652 159.658 305.416> 373.643 103<297.339 340.343> 577.027 96.259<258.737 378.203>
LayerCount: 2
Fore
SplineSet
259.642578125 141 m 1xbf
 296.642578125 187 373.642578125 225.03125 373.642578125 292.03125 c 0
 373.642578125 329.03125 329.642578125 373.03125 293.642578125 373.03125 c 0
 277.642578125 373.03125 258.642578125 361.03125 244.642578125 361.03125 c 0
 237.642578125 361.03125 231.642578125 362.03125 227.642578125 373.03125 c 1
 227.642578125 403.03125 242.642578125 433.03125 255.642578125 446.03125 c 0
 271.642578125 462.03125 306.642578125 513.03125 336.642578125 513.03125 c 1
 399.642578125 496.03125 476.642578125 446.03125 476.642578125 379.03125 c 2
 476.642578125 373.03125 l 2
 476.642578125 282.03125 404.642578125 253 359.642578125 192 c 1
 381.642578125 168 403.619140625 142.512695312 432.642578125 128 c 0
 436.642578125 126 440.642578125 132.46875 440.642578125 122.46875 c 0
 440.70529313 117.023393037 487.643554688 84.4697265625 508.142578125 98.46875 c 0
 508.674537862 98.8320361115 509.211093122 99.1760491257 509.751526524 99.5014868998 c 0
 528.606439005 116.654891885 546.678961996 133.69362263 553 145.46875 c 2
 565 171.001 l 1
 574.966 195.622 577.027 225.054 577.027 249.627 c 0
 577.027 266.973 576 281.897 576 291.001 c 2
 576 315.001 l 1
 562.627 371.359 491.768 567.326 373.883 567.326 c 0
 368.358 567.326 362.73 566.896 357 566 c 0
 208 543 138.999 406.002 138.999 247.002 c 0
 138.999 119.002 175.999 3.00195 224.999 0.00195312 c 1
 224.999 0.00195312 245.627 -19.0391 309.194 -19.0391 c 0
 333.032 -19.0391 362.908 -16.3613 399.999 -8.99805 c 0
 419.31 -5.5498 433.655 -4.12305 444.175 -4.12305 c 0
 464.437 -4.12305 470.502 -9.41699 470.502 -15.7559 c 0
 470.502 -25.2139 456.999 -36.999 456.999 -36.999 c 1
 378.976 -117.859 310.512 -152.937 241.972 -152.937 c 0
 213.882 -152.937 185.779 -147.045 157 -135.998 c 0
 67.7870190082 -107.251595014 27.1429977073 107.20378278 26.4316 159.652 c 1
 27.0195 159.652 28 167.002 28 216.002 c 0
 28 400.002 318 678.002 446 678.002 c 0
 544 678.002 599 562.002 643 496.002 c 0
 670 456.002 646 472.002 668 414.002 c 0
 671.544 404.732 673.286 391.95 673.286 376.656 c 0
 673.286 279.494952952 603.505463517 87.0347084552 484.391515711 40.0194706111 c 0
 453.178399732 25.4644882954 420.113460859 14.2359363116 408.142578125 8.96875 c 1
 339.142578125 8.96875 287.642578125 61 259.642578125 105 c 1
 259.642578125 141 l 1xbf
EndSplineSet
Validated: 33
EndChar
StartChar: macron
Encoding: 175 175 148
Width: 218
Flags: W
HStem: 609 71<17.4924 202.755>
VStem: 0.259766 220.077<626.422 662.658>
AnchorPoint: "Anker-0" 113 596 mark 0
LayerCount: 2
Fore
SplineSet
81.5 609 m 6
 73.9209 608.953 43.5 608 43.5 608 c 6
 11.5449 607.159 0.259766 617.92 0.259766 629.7 c 4
 0.259766 639 7.78027 650.78 19.0596 660.08 c 4
 42.5596 679.3 36.3926 679.304 81.5 680 c 6
 202.32 681.866 l 6
 211.603 681.967 220.337 680.556 220.337 670.65 c 4
 220.337 655.771 203.574 612.719 161.5 609.5 c 5
 81.5 609 l 6
EndSplineSet
EndChar
StartChar: plusminus
Encoding: 177 177 204
Width: 500
Flags: W
HStem: -17.5 124.59<38.3677 54 54.2297 202.813 350.028 469.574> 200.5 124.59<54 199.247 319.303 469.574> 525 20G<232.166 281.666>
VStem: 141.166 176<412.571 474.606> 202.166 117.137<143.704 202.164>
LayerCount: 2
Fore
SplineSet
141.166015625 446 m 1xf0
 141.166015625 457 209.166015625 531 255.166015625 545 c 1
 308.166015625 528 317.166015625 459 317.166015625 381 c 0xf0
 317.166015625 362.932591469 316.633066644 344.598708448 316.117397651 326.686137148 c 1
 474.166 325.09 l 2
 484.041 324.924 493.333 322.977 493.333 307 c 0
 493.333 283 482.926 205.691 438.166 200.5 c 1
 378.999 201.5 l 2
 376.865751841 201.536255427 353.100811851 201.798438449 319.302720536 202.164431855 c 1
 328.940267783 150.295786287 352.784775131 129.452880524 362.225844709 108.220375721 c 1
 474.166015625 107.08984375 l 2
 484.041015625 106.923828125 493.333007812 104.9765625 493.333007812 89 c 0
 493.333007812 65 482.92578125 -12.30859375 438.166015625 -17.5 c 1
 378.998046875 -16.5 l 2
 370.9375 -16.36328125 54 -13 54 -13 c 2
 20 -13 8 3 8 22 c 0
 8 37 16 56 28 71 c 0
 53 102 39.013671875 111.484375 87 111 c 2
 202.81266928 109.830358001 l 1
 202.166015625 127.282013711 202.166015625 146.532130689 202.166015625 166 c 2
 202.166015625 203.422256774 l 1xe8
 125.954392832 204.236498548 54 205 54 205 c 1
 20 205 8 221 8 240 c 0
 8 255 16 274 28 289 c 0
 53 320 39.0146 329.484 87 329 c 2
 199.246609552 327.866418427 l 1
 189.789418997 365.990665253 159.545307757 423.443596019 141.166015625 446 c 1xf0
EndSplineSet
Validated: 8912929
EndChar
StartChar: acute
Encoding: 180 180 78
Width: 143
GlyphClass: 2
Flags: W
VStem: 23 9<595.423 614.297>
AnchorPoint: "Anker-0" 62 572 mark 0
LayerCount: 2
Fore
SplineSet
118 725 m 1
 118 717 117 715 106 709 c 0
 87 699 86 692 77 678 c 0
 57 648 32 617 32 598 c 0
 32 597 27 595 26 595 c 0
 24 595 23 597 23 601 c 0
 23 616 36 653 38 662 c 0
 42 678 47 694 49 699 c 0
 53 709 61 731 78 743 c 0
 90 751 92 751 109 743 c 0
 119 738 119 732 118 725 c 1
EndSplineSet
EndChar
StartChar: guillemotright
Encoding: 20 187 79
Width: 492
GlyphClass: 2
Flags: MW
VStem: 142.4 84.8 365.601 84.799
LayerCount: 2
Fore
SplineSet
450.4 295.2 m 0
 450.4 269.23 426.001 242.4 426.001 242.4 c 1
 426.801 239.2 389.602 210.4 390.4 206.4 c 1
 336.208 147.495 279.2 100 252.001 85.5996 c 0
 246.345 82.6055 240.001 88.7998 235.2 96.7998 c 1
 235.2 103.2 243.2 121.601 247.2 124.001 c 0
 296.801 170.401 365.601 221.602 365.601 245.602 c 0
 365.601 275.287 328.889 323.095 284.001 374.4 c 0
 273.244 386.693 240.17 346.601 231.2 361.601 c 1
 241.131 392.466 287.487 464.015 330.4 484.801 c 1
 344.327 484.801 450.4 360.48 450.4 295.2 c 0
227.201 279.2 m 0
 227.201 253.23 177.602 205.601 177.602 205.601 c 1
 178.4 202.4 166.4 194.4 167.2 190.4 c 1
 113.008 131.495 56 84 28.7998 69.5996 c 0
 23.1436 66.6055 16.7998 72.7998 12 80.7998 c 1
 12 87.2002 20 105.6 24 108 c 0
 73.6006 154.4 142.4 205.601 142.4 229.601 c 0
 142.4 266.4 60.7998 304 14.4004 381.6 c 1
 14.4004 428.8 40 452.8 85.6006 468.8 c 1
 88.7998 468.8 92.7998 467.2 95.2002 464.8 c 1
 100 465.6 104 468.8 107.2 468.8 c 0
 111.2 468.8 114.4 464.8 116.801 459.2 c 0
 127.462 434.511 227.201 359.455 227.201 279.2 c 0
EndSplineSet
EndChar
StartChar: Idieresis
Encoding: 207 207 95
Width: 217
GlyphClass: 2
Flags: W
HStem: -7 21G<106.321 137.321> 705 20G<-19.6787 3.8213 158.321 178.321>
VStem: 23.8213 111<125.67 501.612> 73.334 8<822.046 839.984> 76.8213 82.9997<671 706.627>
LayerCount: 2
Fore
SplineSet
226.334 959 m 0xc0
 232.334 961 243.334 960 248.334 959 c 0
 254.334 957 256.334 950 256.334 942 c 0
 256.334 933 253.334 923 251.334 921 c 0
 238.334 909 230.334 928 201.334 882 c 0
 167.334 828 173.903 822.333 171.667 822.333 c 0
 165.5 822.333 167.334 828.333 167.334 832 c 0
 167.334 869 208.334 956 226.334 959 c 0xc0
167.334 952 m 1
 162.654 945.76 166.334 942 155.334 936 c 0
 136.334 926 135.518 918.775 126.334 905 c 0
 106.478 875.215 81.334 844 81.334 825 c 0
 81.334 824 79.334 822 76.834 822 c 0
 74.334 822 73.334 826 73.334 831 c 0xd0
 73.334 848 85.334 881 87.334 889 c 0
 91.334 905 96.334 921 98.334 926 c 0
 102.334 936 110.233 958.6 127.334 970 c 0
 139.334 978 141.334 978 158.334 970 c 0
 168.334 965 163.824 959.02 167.334 952 c 1
23.8213 162 m 2xe0
 23.8213 485 l 1xe0
 24.8213 493 -0.178711 499 -0.178711 505 c 1
 -6.17871 516 -29.1787 537 -38.1787 545 c 1
 -40.1787 550 -110.179 596 -125.179 596 c 0
 -139.179 596 -144.179 602 -144.179 609 c 0
 -144.179 631 -82.1787 674 -68.1787 692 c 1
 -38.1787 712 l 1
 -32.1787 718 -24.1787 725 -15.1787 725 c 0
 22.8213 725 76.8213 671 76.8213 671 c 1
 76.8213 681 l 1
 85.8213 700 139.821 747 176.821 762 c 1
 179.821 754 180.821 746 180.821 739 c 0
 180.821 707 159.821 678 159.821 644 c 0xc8
 159.821 638 160.821 632 161.821 626 c 1
 147.821 514 134.821 348 134.821 227 c 0
 134.821 177 158.821 91 188.821 91 c 1
 188.821 91 197.821 89 197.821 86 c 1
 188.821 64 154.821 -7 119.821 -7 c 0
 92.8213 -7 53.8213 10 41.8213 39 c 0
 24.8213 81 23.8213 121 23.8213 162 c 2xe0
EndSplineSet
Validated: 1
EndChar
StartChar: Eth
Encoding: 208 208 189
Width: 462
Flags: W
HStem: -10 126<208.852 309.352> 0 116<235.927 285.524> 567 20G<39.3525 88.8522>
VStem: 73.3525 116.999<243.5 426> 346.352 104<224.848 332.569>
LayerCount: 2
Fore
SplineSet
-12.26171875 337 m 4x38
 33.1875 394.307617188 205.4921875 496.518554688 209.248046875 496.518554688 c 4
 209.29296875 496.518554688 209.328125 496.51171875 209.3515625 496.5 c 4
 213.3515625 498.5 227.3515625 508.5 233.3515625 505.5 c 4
 236.3515625 504.5 237.3515625 496.5 236.3515625 489.5 c 4
 234.3515625 480.5 234.0390625 469.83984375 225.3515625 461.5 c 4
 175.352539062 413.5 29.736328125 342.000976562 -8.263671875 287.000976562 c 4
 -9.15234375 286.35546875 -9.994140625 286.0546875 -10.78515625 286.0546875 c 4
 -15.765625 286.0546875 -18.779296875 297.934570312 -18.779296875 310.587890625 c 4
 -18.779296875 320.861328125 -16.79296875 331.646484375 -12.26171875 337 c 4x38
EndSplineSet
Refer: 24 68 N 1 0 0 1 0 0 2
Validated: 524293
EndChar
StartChar: multiply
Encoding: 215 215 211
Width: 351
Flags: W
LayerCount: 2
Fore
SplineSet
106.034179688 242.40234375 m 4
 83.9541015625 220.115234375 54.4609375 192.885742188 29.8564453125 167.606445312 c 4
 26.2958984375 165.259765625 19.17578125 147.274414062 19.17578125 141.018554688 c 5
 23.44921875 133.198242188 29.0947265625 127.143554688 34.12890625 130.0703125 c 4
 51.962890625 140.439453125 84.193359375 168.365234375 119.212890625 205.374023438 c 4
 131.73046875 218.6015625 144.60546875 232.990234375 157.3046875 248.15234375 c 5
 156.592773438 252.061523438 247.1953125 345.232421875 246.484375 348.362304688 c 5
 268.293945312 372.76953125 301.22265625 404.821289062 330.321289062 431.450195312 c 4
 341.002929688 441.224609375 341.000976562 451.783203125 341.000976562 458.038085938 c 5
 336.728515625 465.858398438 331.083007812 471.9140625 326.048828125 468.986328125 c 4
 301.841796875 454.911132812 251.104492188 408.484375 202.872070312 350.905273438 c 5
 203.584960938 346.995117188 150.234375 287.016601562 106.034179688 242.40234375 c 4
276.52734375 273.31640625 m 12
 222.360351562 329.571289062 188.711914062 372.987304688 167.713867188 402.471679688 c 4
 142.69140625 437.606445312 114.094726562 465.284179688 108.935546875 478.405273438 c 4
 106.799804688 483.879882812 103.952148438 487.790039062 100.391601562 487.790039062 c 4
 97.54296875 487.790039062 93.9833984375 484.662109375 89.7119140625 483.879882812 c 5
 87.576171875 486.225585938 84.015625 487.790039062 81.16796875 487.790039062 c 5
 40.5830078125 472.150390625 17.7998046875 448.690429688 17.7998046875 402.551757812 c 5
 37.8076171875 365.80078125 65.169921875 338.2265625 88.0634765625 315.474609375 c 4
 139.178710938 264.672851562 162.200195312 227.067382812 185.297851562 196.094726562 c 4
 208.899414062 164.4453125 233.946289062 139.671875 238.741210938 127.474609375 c 4
 240.877929688 122.000976562 243.7265625 118.090820312 247.286132812 118.090820312 c 4
 250.134765625 118.090820312 253.694335938 121.21875 257.966796875 122.000976562 c 5
 260.102539062 119.654296875 263.663085938 118.090820312 266.508789062 118.090820312 c 5
 307.094726562 133.73046875 329.877929688 157.19140625 329.877929688 203.329101562 c 5
 314.623046875 231.350585938 295.092773438 254.03515625 276.52734375 273.31640625 c 12
EndSplineSet
Validated: 524325
EndChar
StartChar: Thorn
Encoding: 222 222 190
Width: 529
Flags: W
HStem: 525 20G<405.103 421.103>
VStem: 188.339 7.01465<317.834 370.7> 210.258 124.971<-148.522 74.3383> 396.603 115<235.648 363.306>
LayerCount: 2
Fore
SplineSet
195.353515625 370.700195312 m 0
 195.353515625 368.700195312 197.353515625 366.700195312 199.353515625 366.700195312 c 0
 200.353515625 366.700195312 202.353515625 367.700195312 202.353515625 370.700195312 c 0
 202.353515625 375.543517069 195.353515625 373.444386307 195.353515625 370.700195312 c 0
210.2578125 -49.689453125 m 0
 206.489073301 107.931834627 188.338867188 161.328211814 188.338867188 317.833984375 c 0
 188.338867188 360.833984375 171.338867188 387.833984375 162.338867188 415.833984375 c 1
 138.338867188 442.833984375 121.338867188 493.833984375 77.33984375 499.833984375 c 1
 50.33984375 473.833984375 27.33984375 414.833984375 -15.66015625 414.833984375 c 0
 -26.66015625 414.833984375 -30.66015625 424.833984375 -30.66015625 438.833984375 c 0
 -30.66015625 468.833984375 -10.66015625 517.833984375 8.33984375 531.833984375 c 1
 8.33984375 533.833984375 14.33984375 540.833984375 21.33984375 548.833984375 c 2
 53.33984375 583.833984375 l 1
 73.33984375 617.833984375 101.33984375 631.833984375 129.338867188 631.833984375 c 0
 183.338867188 631.833984375 241.338867188 582.833984375 266.337890625 532.833984375 c 1
 268.337890625 532.833984375 269.337890625 530.833984375 269.337890625 528.833984375 c 1
 289.337890625 498.833984375 297.337890625 459.833984375 297.337890625 418.833984375 c 8
 297.337890625 339.42565848 308.174804688 295.10546875 315.103515625 216 c 17
 318.423155159 172.40206745 l 1
 324.744375683 152.620236692 345.683178309 114 351.603 114 c 0
 395.603 114 396.603 198 396.603 250 c 2
 396.603 257 l 2
 396.603 319 382.603 368 339.603 416 c 1
 314.603 451 l 1
 314.603 451 322.603 505 336.603 505 c 1
 353.603 513 363.603 538 391.603 538 c 0
 396.603 541 402.603 545 407.603 545 c 0
 434.603 545 453.603 505 463.603 494 c 0
 495.603 457 511.603 400 511.603 342 c 0
 511.603 205 417.103271484 131 365.103515625 82 c 0
 342.103271484 61 336.103271484 63 332.103515625 28 c 0
 331.606883423 23.6542029869 335.909179688 -53.392578125 335.228515625 -57 c 0
 342.229492188 -170.206054688 241.6953125 -220.33984375 241.6953125 -220.33984375 c 1
 202.719726562 -240.606445312 190.330078125 -273.264648438 146.5078125 -276.33984375 c 0
 136.883789062 -277.014648438 135.52734375 -260.602539062 140.5078125 -252.33984375 c 0
 162.784179688 -215.3828125 180.170898438 -215.830078125 196.9453125 -185.689453125 c 0
 211.550904384 -159.445814079 211.908203125 -118.716796875 210.2578125 -49.689453125 c 0
EndSplineSet
Validated: 524321
EndChar
StartChar: germandbls
Encoding: 255 223 104
Width: 583
GlyphClass: 2
Flags: MW
HStem: -13 21G<134.5 147 147 158>
VStem: 20 180<499 623.5> 80 116<311 357 357 357> 106 136<62.5 80.5>
LayerCount: 2
Fore
SplineSet
391 527 m 1xc0
 370 611 295 632 218 656 c 1
 210 654 200 631 200 616 c 0xc0
 200 542 196 455 196 370 c 0xa0
 196 252 242 138 242 66 c 0
 242 59 178 -13 158 -13 c 2
 147 -13 l 2
 122 -13 111 24 106 39 c 1x90
 106 122 80 177 80 286 c 2
 80 357 l 1xa0
 80 357 30 460 20 499 c 1
 20 515 40 537 50 545 c 0
 121 598 180 682 275 757 c 0
 285 765 296 769 307 769 c 0
 314 769 321 766 328 762 c 0
 358 747 397 742 431 698 c 0
 467 652 470 613 470 553 c 0
 470 465 381 386 362 334 c 1
 368 330 375 329 382 329 c 0
 395 329 411 333 430 333 c 0
 501 333 552 296 563 248 c 1
 563 239 l 2
 563 163 493 125 468 63 c 1
 452 33 l 1
 441 8 424 0 405 0 c 0
 372 0 334 27 315 50 c 1
 295 62 257 92 257 126 c 0
 257 129 258 131 258 134 c 1
 282 158 317 208 353 216 c 1
 366 216 386 177 396 166 c 1
 402 166 423 142 431 125 c 1
 461 105 l 1
 461 105 471 122 471 134 c 0
 471 138 470 142 466 144 c 1
 456 181 422 209 381 222 c 0
 347 233 275 221 275 263 c 1
 311 365 377 418 391 527 c 1xc0
EndSplineSet
Ligature2: "'liga' Standard Ligatures in Latin lookup 4 subtable" longs s
EndChar
StartChar: ae
Encoding: 230 230 110
Width: 603
GlyphClass: 2
Flags: W
HStem: 0 2G<147.5 176.5 405.925 433.425> 562 20G<208.149 221.149 404.741 430.5>
VStem: 33.1494 134<301.64 360.766> 34 101<54 179 364.869 406.058> 350.925 155<59.8719 117.568>
AnchorPoint: "Anker-0" 211 581 basechar 0
LayerCount: 2
Fore
SplineSet
135 156 m 1xd8
 135 133 215 97 241 97 c 0
 243 97 245 98 247 98 c 0
 261 94 266 87 266 79 c 0
 266 56 226 24 222 12 c 0
 217 -4 191 -19 162 -19 c 1
 133 -6 34 28 34 80 c 0
 34 139 68 154 81 187 c 1
 208 301 l 1
 220 299 224 294 224 288 c 1
 206 247 149 202 135 156 c 1xd8
270.921 292.667 m 2
 265.795 309.525 262.878 326.269 254.149 341 c 0
 238.149 367 187.149 438 134.149 450 c 1
 130.149 442 129.149 433 129.149 425 c 0
 129.149 398 145.149 371 162.149 361 c 1
 165.149 356 167.149 352 167.149 346 c 0
 167.149 321 138.149 289 127.149 289 c 0
 101.149 289 119.149 266 87.1494 266 c 0
 42.1494 266 51.1494 290 33.1494 312 c 1
 31.1494 319 33.1494 327 33.1494 334 c 0xe8
 33.1494 392 86.1494 447 99.1494 471 c 0
 118.149 505 167.149 537 192.149 570 c 0
 199.149 579 205.149 582 211.149 582 c 0
 231.149 582 249.149 548 268.149 545 c 1
 284.149 534 303.149 513 317.149 504 c 1
 317.149 503 l 2
 317.149 500.987 318.415 498.532 320.31 495.84 c 1
 349.542 526.473 385.483 587 424 587 c 0
 437 587 450 580 464 562 c 0
 471 552 478 541 484 533 c 0
 494 522 503 477 519 477 c 2
 521 477 l 2
 544 477 575 525 594 527 c 1
 600 517 602 511 602 506 c 0
 602 494 585 492 563 462 c 0
 517.696 400.222 485 353 426 325 c 1
 420 330 418 336 418 345 c 0
 418 357 421 371 421 383 c 2
 421 389 l 1
 422 392 422 395 422 397 c 0
 422 422 395 439 383 446 c 1
 377 440 375 429 375 415 c 0
 375 378 390 326 390 326 c 1
 390 326 390 309 394 299 c 0
 428 224 443.925 151 496.925 126 c 0
 503.925 123 505.925 117 505.925 110 c 1
 492.925 58 454.925 13 411.925 0 c 1
 399.925 0 387.925 7 377.925 27 c 1
 362.925 38 353.925 56 350.925 74 c 1
 317.219 139.947 289.996 206.967 272.345 288.044 c 1
 270.921 292.667 l 2
EndSplineSet
Validated: 1
EndChar
StartChar: ccedilla
Encoding: 231 231 111
Width: 295
GlyphClass: 2
Flags: W
HStem: 433 138<133.69 209.05>
VStem: 19.0508 105<260.381 384>
LayerCount: 2
Fore
SplineSet
214.05 125 m 0
 225.05 125 228.05 131 247.05 131 c 0
 252.05 131 257.05 130 258.05 126 c 1
 253.105 105.604 228.297 67.6354 196.609 38.3023 c 1
 184.709 22.0844 150.655 5.37014 150.655 -4.5332 c 2
 150.655 -6.5332 l 1
 175.655 -28.5332 206.655 -44.5332 206.655 -80.5332 c 0
 206.655 -86.5166 204.382 -93.6553 200.513 -101.28 c 0
 186.139 -137.062 152.372 -181.815 131.655 -202.533 c 0
 119.655 -214.533 102.655 -246.533 86.6553 -251.533 c 1
 81.6553 -247.533 79.6553 -242.533 79.6553 -237.533 c 0
 79.6553 -218.533 107.655 -192.533 107.655 -180.533 c 2
 107.655 -178.533 l 1
 100.828 -172.525 92.5098 -166.667 84.0234 -160.591 c 0
 76.4424 -156.063 69.5273 -150.726 63.4795 -144.953 c 0
 49.0088 -132.663 37.6553 -118.617 37.6553 -100.533 c 1
 43.3808 -65.2259 93.7255 -19.902 120.043 5.89453 c 1
 52.7151 48.6974 19.0508 267.288 19.0508 384 c 1
 19.0508 384 44.0508 450 54.0508 470 c 1
 63.0508 476 76.0508 499 130.05 545 c 1
 145.05 564 163.05 571 183.05 571 c 0
 235.05 571 294.05 517 305.05 472 c 1
 305.05 464 299.05 458 284.05 456 c 1
 274.05 448 254.05 436 246.05 426 c 1
 241.05 415 234.05 399 213.05 399 c 2
 201.05 399 l 2
 164.05 399 170.05 433 141.05 433 c 0
 128.051 433 124.051 420 124.051 401 c 0
 124.051 370 134.11 322.011 142.05 280 c 0
 151.119 232.013 170.05 125 214.05 125 c 0
EndSplineSet
Validated: 1
EndChar
StartChar: edieresis
Encoding: 235 235 115
Width: 287
GlyphClass: 2
Flags: W
HStem: 0 21G<162.669 190.169> 567 20G<156.744 187.244> 666.083 21.333G<77.7012 80.2012 170.7 174.902>
VStem: 13.7441 118<326.038 445.125> 75.4512 8<666.129 684.067> 107.669 155<59.8719 116.46>
LayerCount: 2
Fore
SplineSet
228.451 803.083 m 0xe0
 234.451 805.083 245.451 804.083 250.451 803.083 c 0
 256.451 801.083 258.451 794.083 258.451 786.083 c 0
 258.451 777.083 255.451 767.083 253.451 765.083 c 0
 240.451 753.083 232.451 772.083 203.451 726.083 c 0
 169.451 672.083 176.02 666.416 173.784 666.416 c 0
 167.617 666.416 169.451 672.416 169.451 676.083 c 0
 169.451 713.083 210.451 800.083 228.451 803.083 c 0xe0
169.451 796.083 m 1
 164.771 789.843 168.451 786.083 157.451 780.083 c 0
 138.451 770.083 137.635 762.858 128.451 749.083 c 0
 108.595 719.298 83.4512 688.083 83.4512 669.083 c 0
 83.4512 668.083 81.4512 666.083 78.9512 666.083 c 0
 76.4512 666.083 75.4512 670.083 75.4512 675.083 c 0xe8
 75.4512 692.083 87.4512 725.083 89.4512 733.083 c 0
 93.4512 749.083 98.4512 765.083 100.451 770.083 c 0
 104.451 780.083 112.351 802.683 129.451 814.083 c 0
 141.451 822.083 143.451 822.083 160.451 814.083 c 0
 170.451 809.083 165.941 803.104 169.451 796.083 c 1
177.744 389 m 1
 178.744 392 178.744 395 178.744 397 c 0
 178.744 422 151.744 439 139.744 446 c 1
 133.744 440 131.744 429 131.744 415 c 0xf0
 131.744 378 146.744 326 146.744 326 c 1
 146.744 326 146.744 309 150.744 299 c 0
 184.744 224 200.669 151 253.669 126 c 0
 260.669 123 262.669 117 262.669 110 c 1
 249.669 58 211.669 13 168.669 0 c 1
 156.669 0 144.669 7 134.669 27 c 1
 119.669 38 110.669 56 107.669 74 c 1xe4
 61.6689 164 27.7441 256 13.7441 383 c 0
 12.7441 388 13.7441 392 13.7441 396 c 0xf0
 13.7441 437 36.7441 458 56.7441 480 c 1
 88.7441 493 132.744 587 180.744 587 c 0
 193.744 587 206.744 580 220.744 562 c 0
 227.744 552 234.744 541 240.744 533 c 0
 250.744 522 259.744 477 275.744 477 c 2
 277.744 477 l 2
 300.744 477 331.744 525 350.744 527 c 1
 356.744 517 358.744 511 358.744 506 c 0
 358.744 494 341.744 492 319.744 462 c 0
 274.744 400 241.744 353 182.744 325 c 1
 176.744 330 174.744 336 174.744 345 c 0
 174.744 357 177.744 371 177.744 383 c 2
 177.744 389 l 1
EndSplineSet
Validated: 1
EndChar

StartChar: igrave
Encoding: 236 236 116
Width: 277
GlyphClass: 2
Flags: MW
HStem: 0 21<150.5 172>
VStem: 22.9685 150 77 117<216.5 251 251 278 216.5 308 216.5 325>
LayerCount: 2
Fore
SplineSet
172.969 672.149 m 1x00
 172.969 671.149 l 2
 172.969 665.149 140.969 651.149 134.969 649.149 c 0
 126.969 646.149 119.969 638.149 112.969 647.149 c 0
 98.9688 664.149 93.9688 685.149 83.9688 698.149 c 0
 67.9688 719.149 57.9688 752.149 32.9688 767.149 c 1
 25.9688 776.149 19.9688 786.149 22.9688 794.149 c 0
 32.9688 819.149 43.9688 817.149 67.9688 827.149 c 1
 92.9688 827.149 126.969 756.149 134.969 746.149 c 1
 134.969 744.149 160.969 700.149 160.969 694.149 c 1
 165.969 687.149 168.969 680.149 172.969 672.149 c 1x00
20 446 m 1xa0
 20 457 68 520 114 534 c 1
 191 509 194 384 194 278 c 2
 194 251 l 2
 194 182 202 123 248 91 c 1
 254 91 257 88 257 85 c 0
 257 70 211 33 201 17 c 0
 193 4 179 0 165 0 c 0
 136 0 103 19 99 39 c 1
 81 50 77 107 77 166 c 2
 77 308 l 2
 77 342 42 419 20 446 c 1xa0
EndSplineSet
EndChar
StartChar: iacute
Encoding: 237 237 117
Width: 198
GlyphClass: 2
Flags: W
HStem: 0 21G<150.5 172>
VStem: 77 117<128.391 379.31> 119.611 9<643.423 662.297>
LayerCount: 2
Fore
SplineSet
214.611 773 m 1xa0
 214.611 765 213.611 763 202.611 757 c 0
 183.611 747 182.611 740 173.611 726 c 0
 153.611 696 128.611 665 128.611 646 c 0
 128.611 645 123.611 643 122.611 643 c 0
 120.611 643 119.611 645 119.611 649 c 0
 119.611 664 132.611 701 134.611 710 c 0
 138.611 726 143.611 742 145.611 747 c 0
 149.611 757 157.611 779 174.611 791 c 0
 186.611 799 188.611 799 205.611 791 c 0
 215.611 786 215.611 780 214.611 773 c 1xa0
20 446 m 1
 20 457 68 520 114 534 c 1
 191 509 194 384 194 278 c 2
 194 251 l 2
 194 182 202 123 248 91 c 1
 254 91 257 88 257 85 c 0
 257 70 211 33 201 17 c 0
 193 4 179 0 165 0 c 0
 136 0 103 19 99 39 c 1
 81 50 77 107 77 166 c 2
 77 308 l 2xc0
 77 342 42 419 20 446 c 1
EndSplineSet
Validated: 1
EndChar
StartChar: icircumflex
Encoding: 238 238 118
Width: 198
GlyphClass: 2
Flags: W
HStem: 0 21G<150.5 172>
VStem: 77 117<128.391 379.31> 146.378 57<656.108 675.179>
LayerCount: 2
Fore
SplineSet
74.3779 651.915 m 0xa0
 72.3779 648.915 70.3779 648.915 66.3779 648.915 c 0
 56.3779 648.915 37.3779 648.915 37.3779 655.915 c 0
 37.3779 658.915 38.3779 662.915 39.3779 665.915 c 1
 46.3779 671.915 38.3779 700.915 48.3779 704.915 c 1
 71.3779 731.915 88.3779 770.915 138.378 770.915 c 1
 154.378 749.915 204.378 739.915 204.378 706.915 c 0
 204.378 703.915 203.378 701.915 203.378 697.915 c 2
 203.378 692.915 l 2
 203.378 670.915 172.378 647.915 168.378 643.915 c 0
 167.378 642.915 146.378 640.915 146.378 649.915 c 0
 146.378 658.915 102.378 694.915 94.3779 697.915 c 1
 77.3779 694.915 84.3779 668.915 74.3779 651.915 c 0xa0
20 446 m 1
 20 457 68 520 114 534 c 1
 191 509 194 384 194 278 c 2
 194 251 l 2
 194 182 202 123 248 91 c 1
 254 91 257 88 257 85 c 0
 257 70 211 33 201 17 c 0
 193 4 179 0 165 0 c 0
 136 0 103 19 99 39 c 1
 81 50 77 107 77 166 c 2
 77 308 l 2xc0
 77 342 42 419 20 446 c 1
EndSplineSet
Validated: 1
EndChar

StartChar: idieresis
Encoding: 239 239 119
Width: 277
GlyphClass: 2
Flags: MW
HStem: 0 21<150.5 172>
VStem: 25.046 8 77 117<216.5 251 251 278 216.5 308 216.5 325>
LayerCount: 2
Fore
SplineSet
178.046 799.083 m 0
 184.046 801.083 195.046 800.083 200.046 799.083 c 0
 206.046 797.083 208.046 790.083 208.046 782.083 c 0
 208.046 773.083 205.046 763.083 203.046 761.083 c 0
 190.046 749.083 182.046 768.083 153.046 722.083 c 0
 119.046 668.083 125.615 662.416 123.379 662.416 c 0
 117.212 662.416 119.046 668.416 119.046 672.083 c 0
 119.046 709.083 160.046 796.083 178.046 799.083 c 0
119.046 792.083 m 1
 114.366 785.843 118.046 782.083 107.046 776.083 c 0
 88.0459 766.083 87.2295 758.858 78.0459 745.083 c 0
 58.1895 715.298 33.0459 684.083 33.0459 665.083 c 0
 33.0459 664.083 31.0459 662.083 28.5459 662.083 c 0
 26.0459 662.083 25.0459 666.083 25.0459 671.083 c 0
 25.0459 688.083 37.0459 721.083 39.0459 729.083 c 0
 43.0459 745.083 48.0459 761.083 50.0459 766.083 c 0
 54.0459 776.083 61.9453 798.683 79.0459 810.083 c 0
 91.0459 818.083 93.0459 818.083 110.046 810.083 c 0
 120.046 805.083 115.536 799.104 119.046 792.083 c 1
20 446 m 1
 20 457 68 520 114 534 c 1
 191 509 194 384 194 278 c 2
 194 251 l 2
 194 182 202 123 248 91 c 1
 254 91 257 88 257 85 c 0
 257 70 211 33 201 17 c 0
 193 4 179 0 165 0 c 0
 136 0 103 19 99 39 c 1
 81 50 77 107 77 166 c 2
 77 308 l 2
 77 342 42 419 20 446 c 1
EndSplineSet
EndChar
StartChar: eth
Encoding: 240 240 185
Width: 351
Flags: W
HStem: -14 136<124.187 192.187> 679.8 20G<215.087 216.987>
VStem: -11.8135 118<250.486 389.355> 229.187 107<171.474 341.492>
LayerCount: 2
Fore
SplineSet
39.5859375 561.193359375 m 4
 85.03515625 618.500976562 213.208984375 699.799804688 216.96484375 699.799804688 c 4
 217.009765625 699.799804688 217.044921875 699.79296875 217.068359375 699.78125 c 4
 221.068359375 701.78125 235.068359375 711.78125 241.068359375 708.78125 c 4
 244.068359375 707.78125 245.068359375 699.78125 244.068359375 692.78125 c 4
 242.068359375 683.78125 241.755859375 673.12109375 233.068359375 664.78125 c 4
 183.068359375 616.78125 81.583984375 566.194335938 43.583984375 511.194335938 c 4
 42.6953125 510.548828125 41.853515625 510.248046875 41.0625 510.248046875 c 4
 36.08203125 510.248046875 33.068359375 522.127929688 33.068359375 534.78125 c 4
 33.068359375 545.0546875 35.0546875 555.83984375 39.5859375 561.193359375 c 4
EndSplineSet
Refer: 52 100 N 1 0 0 1 0 0 2
Validated: 5
EndChar
StartChar: thorn
Encoding: 254 254 190
Width: 418
Flags: W
HStem: -248 21G<45.666 61.166> 549 20G<282.166 316.166> 731.2 20G<-9.33398 21.166 44.166 48.666>
VStem: 223.666 153<447.865 522.529> 287.666 111<245.365 389.808>
LayerCount: 2
Fore
SplineSet
-69.833984375 642.200195312 m 1xf0
 -69.833984375 701.200195312 -37.833984375 731.200195312 19.166015625 751.200195312 c 1
 23.166015625 751.200195312 28.166015625 749.200195312 31.166015625 746.200195312 c 1
 37.166015625 747.200195312 42.166015625 751.200195312 46.166015625 751.200195312 c 0
 51.166015625 751.200195312 55.166015625 746.200195312 58.166015625 739.200195312 c 0
 77.166015625 695.200195312 216.295339179 379.804405471 230.666 284 c 0
 236.666 244 245.666 199 258.666 184 c 1
 262.666 182 265.666 181 268.666 181 c 0
 284.666 181 287.666 211 287.666 232 c 0xe8
 287.666 259 282.666 262 282.666 301 c 0
 282.666 382 255.666 410 223.666 459 c 1
 223.666 461 l 2
 223.666 508 263.666 555 300.666 569 c 1
 331.666 569 363.666 514 376.666 491 c 0xf0
 391.666 464 398.666 424 398.666 382 c 0xe8
 398.666 312 380.666 236 357.666 204 c 0
 307.666 133 267.666 73 223.666 0 c 1
 224.666 -4 207.666 -14 208.666 -19 c 1
 185.666 -44 148.666 -87 148.666 -123 c 0
 148.666 -140 174.666 -151 174.666 -165 c 0
 174.666 -183 133.666 -198 115.666 -205 c 0
 99.666 -211 72.666 -248 49.666 -248 c 0
 41.666 -248 34.666 -244 28.666 -234 c 1
 28.666 -226 38.666 -203 43.666 -200 c 1
 70.666 -119 161.666 -51 177.666 30 c 1
 159.666 164 -11.833984375 545.200195312 -69.833984375 642.200195312 c 1xf0
359.666 413 m 1
 365.666 416 367.666 420 367.666 425 c 0
 367.666 435 356.666 446 346.666 446 c 0
 341.666 446 337.666 444 334.666 438 c 1
 334.666 432 348.666 412 359.666 412 c 1
 359.666 413 l 1
EndSplineSet
Validated: 524289
EndChar
StartChar: ydieresis
Encoding: 255 255 128
Width: 533
GlyphClass: 2
Flags: W
HStem: -248 21G<74 89.5> 525 20G<100.5 131 154 158.5 310.5 344.5>
VStem: 175.7 8<619.546 637.484> 316 111<245.365 387.591>
LayerCount: 2
Fore
SplineSet
40 436 m 1
 40 495 72 525 129 545 c 1
 133 545 138 543 141 540 c 1
 147 541 152 545 156 545 c 0
 161 545 165 540 168 533 c 0
 187 489 246 380 259 284 c 0
 265 244 274 199 287 184 c 1
 291 182 294 181 297 181 c 0
 313 181 316 211 316 232 c 0
 316 259 311 262 311 301 c 0
 311 382 282 410 250 459 c 1
 250 461 l 2
 250 508 292 555 329 569 c 1
 360 569 392 514 405 491 c 0
 420 464 427 424 427 382 c 0
 427 312 409 236 386 204 c 0
 336 133 294 73 250 0 c 1
 251 -4 236 -14 237 -19 c 1
 214 -44 177 -87 177 -123 c 0
 177 -140 203 -151 203 -165 c 0
 203 -183 162 -198 144 -205 c 0
 128 -211 101 -248 78 -248 c 0
 70 -248 63 -244 57 -234 c 1
 57 -226 67 -203 72 -200 c 1
 99 -119 190 -51 206 30 c 1
 188 164 98 339 40 436 c 1
388 413 m 1
 394 416 396 420 396 425 c 0
 396 435 385 446 375 446 c 0
 370 446 366 444 363 438 c 1
 363 432 377 412 388 412 c 1
 388 413 l 1
319.7 755.85 m 4
 325.7 757.85 336.7 756.85 341.7 755.85 c 4
 347.7 753.85 349.7 746.85 349.7 738.85 c 4
 349.7 729.85 346.7 719.85 344.7 717.85 c 4
 331.7 705.85 323.7 724.85 294.7 678.85 c 4
 260.7 624.85 267.269 619.183 265.033 619.183 c 4
 258.866 619.183 260.7 625.183 260.7 628.85 c 4
 260.7 665.85 301.7 752.85 319.7 755.85 c 4
269.7 749.5 m 1
 265.02 743.26 268.7 739.5 257.7 733.5 c 0
 238.7 723.5 237.884 716.275 228.7 702.5 c 0
 208.844 672.715 183.7 641.5 183.7 622.5 c 0
 183.7 621.5 181.7 619.5 179.2 619.5 c 0
 176.7 619.5 175.7 623.5 175.7 628.5 c 0
 175.7 645.5 187.7 678.5 189.7 686.5 c 0
 193.7 702.5 198.7 718.5 200.7 723.5 c 0
 204.7 733.5 212.599 756.1 229.7 767.5 c 0
 241.7 775.5 243.7 775.5 260.7 767.5 c 0
 270.7 762.5 266.19 756.52 269.7 749.5 c 1
EndSplineSet
Validated: 1
EndChar

StartChar: IJ
Encoding: 156 306 130
Width: 651
GlyphClass: 2
Flags: W
HStem: -248 21G<257.5 272.5> 525 20G<524.5 540.5> 712.325 39<576.3 616.861>
VStem: 350 13<-102 -89> 458.9 69<721.519 750.573> 516 115<232.844 363.306> 527.9 0
DStem2: 292 531 193 406 0.529179 -0.848511<-68.2729 181.633>
LayerCount: 2
Fore
SplineSet
57 509 m 0xf4
 30 509 20 515 20 525 c 1
 47 573 86 631 154 631 c 0
 211 631 271 567 292 531 c 1
 350 438 l 1
 396 359 436 269 436 181 c 0
 436 168 464 114 471 114 c 0
 515 114 516 198 516 250 c 2
 516 257 l 2
 516 319 502 368 459 416 c 1
 434 451 l 1
 434 451 440 505 454 505 c 1
 471 513 483 538 511 538 c 1
 516 541 522 545 527 545 c 0
 554 545 573 505 583 494 c 0
 615 457 631 400 631 342 c 0
 631 205 560 163 492 75 c 2
 419 -19 l 2
 395 -51 363 -89 363 -123 c 0
 363 -139 386 -152 386 -165 c 0
 386 -183 344 -198 326 -205 c 0
 310 -211 284 -248 261 -248 c 0
 254 -248 246 -244 240 -234 c 1
 258 -150 350 -102 350 -11 c 0
 350 5 347 23 339 42 c 0
 287 173 279 256 217 367 c 1
 193 406 l 1
 146 466 133 509 57 509 c 0xf4
300 320 m 0
 300 318 302 316 304 316 c 0
 305 316 307 317 307 320 c 0
 307 322 304 323 304 323 c 1
 301 323 300 321 300 320 c 0
589.9 750.325 m 4
 593.9 751.325 596.9 751.325 599.9 751.325 c 4
 610.9 751.325 616.9 746.325 616.9 733.325 c 4
 616.9 724.325 613.9 714.325 611.9 712.325 c 4
 598.9 700.325 590.9 719.325 561.9 673.325 c 4
 527.9 619.325 529.9 595.325 527.9 593.325 c 4
 525.9 592.325 527.9 601.325 527.9 623.325 c 4xf2
 527.9 660.325 571.9 747.325 589.9 750.325 c 4
527.9 746.325 m 4xf8
 526.9 737.325 526.9 733.325 515.9 727.325 c 4
 496.9 717.325 495.9 710.325 486.9 696.325 c 4
 466.9 666.325 441.9 634.325 441.9 616.325 c 4
 441.9 614.325 437.9 613.325 436.9 613.325 c 4
 430.9 613.325 431.9 627.325 436.9 639.325 c 5
 440.9 652.325 452.9 708.325 458.9 719.325 c 5
 462.9 730.325 470.9 744.325 487.9 756.325 c 4
 499.9 765.325 501.9 765.325 518.9 756.325 c 4
 528.9 751.325 527.9 753.325 527.9 746.325 c 4xf8
EndSplineSet
Ligature2: "'liga' Standard Ligatures in Latin lookup 4 subtable" I J
EndChar
StartChar: OE
Encoding: 259 338 132
Width: 589
GlyphClass: 2
Flags: W
HStem: -47 21G<484.5 520.5> 34 55<281.129 329.947> 613 64<663.42 710.594> 697 7<729.456 735.45> 738 19G<282 308.5 527 541.5 714.5 722.5>
VStem: 65 104<212.145 399> 339 99<249.268 385.539> 516 45<477.456 528.596> 729 9<697.246 702.061>
LayerCount: 2
Fore
SplineSet
729 704 m 4
 732 704 738 699 738 697 c 4
 738 696 737 698 735 697 c 5
 732 697 729 700 729 702 c 4
 730 704 728 704 729 704 c 4
379 623 m 1
 407 661 464 716 471 730 c 5
 490 747 527 758 527 758 c 5
 556 754 602 697 608 667 c 5
 625 646 609 635 629 625 c 5
 629 625 629 624 630 624 c 4
 638 624 680 677 685 677 c 5
 690 680 709 697 720 697 c 4
 725 697 729 690 729 683 c 4
 729 673 721 657 721 651 c 5
 712 638 702 613 685 613 c 4
 682 613 679 611 675 613 c 5
 659 613 641 576 621 571 c 5
 613 571 611 570 611 563 c 5
 606 542 561 516 561 507 c 6
 561 506 l 5
 555 496 538 476 538 476 c 5
 525 481 516 502 516 521 c 4
 516 529 518 537 521 543 c 5
 516 563 494 621 459 621 c 4
 454 621 449 616 443 613 c 5
 439 582 438 524 438 456 c 4
 438 344 465 214 471 197 c 0
 498 122 547 62 589 56 c 0
 596 55 599 52 599 48 c 1
 576 11 544 -36 497 -47 c 1
 472 -47 445 -28 425 -6 c 0
 389 33 371 67 361 107 c 1
 357 100 353 91 353 87 c 1
 339 81 326 34 308 34 c 1
 288 21 238 -22 212 -22 c 0
 76 -22 65 104 65 310 c 2
 65 399 l 1
 65 399 60 397 55 397 c 0
 51 397 46 399 45 405 c 0
 33 476 25 486 20 509 c 1
 20 541 101 600 119 623 c 0
 129 636 164 677 193 677 c 1
 193 677 169 446 169 371 c 0
 169 357 172 342 172 327 c 0
 172 237 214 89 311 89 c 0
 314 89 317 90 321 90 c 1
 335 117 339 140 339 176 c 0
 339 349 305 458 249 585 c 0
 235 617 205 663 205 663 c 1
 214 674 268 757 296 757 c 0
 321 757 337 714 349 692 c 0
 360 673 370 647 379 623 c 1
EndSplineSet
Validated: 1
EndChar
StartChar: uring
Encoding: 261 367 134
Width: 452
GlyphClass: 2
Flags: W
HStem: -19 135<108.342 231.342> 0 21G<317.342 388.842> 526 20G<70.8408 127.341 323.842 338.842> 578 7.214<190.711 195.742> 730.409 31.591<175 185.181>
VStem: 56.3418 113<141.485 392.272> 108.742 52.306<630.673 709.131> 229.742 34<600.785 665.311> 280.342 118<119.075 399.087>
AnchorPoint: "Anker-0" 197.742 596 mark 0
LayerCount: 2
Fore
SplineSet
179.742 578 m 4x3b80
 177.742 578 174.742 579 171.742 578 c 5
 152.742 578 l 5
 131.742 600 l 6
 114.742 618 108.742 631 108.742 645 c 4
 108.742 663 119.742 681 131.742 712 c 4
 148.742 753 157.742 725 177.742 750 c 4
 185.742 759 194.742 762 203.742 762 c 4
 226.742 762 251.742 735 263.742 717 c 5
 263.742 708 278.742 683 278.742 666 c 4
 278.742 651 263.742 656 263.742 643 c 5
 249.742 608 240.742 571 201.742 551 c 5
 183.742 551 195.742 578 179.742 578 c 4x3b80
214.13 585.214 m 4
 228.18 585.214 231.303 603.948 229.742 618.001 c 5
 229.742 625.808 l 6
 229.742 663.275 186.027 727.287 161.048 730.409 c 5
 161.048 688.256 190.711 585.214 214.13 585.214 c 4
442.342 98 m 0
 466.342 92 479.342 87 479.342 78 c 0
 479.342 73 474.342 66 463.342 58 c 0
 436.342 36 416.342 7 361.342 0 c 1
 336.342 0 l 1x7980
 317.342 13 l 1
 286.342 51 280.342 106 280.342 165 c 2
 280.342 266 l 2
 280.342 302 280.342 337 272.342 370 c 0
 263.342 406 238.342 412 238.342 453 c 0
 238.342 480 285.342 519 302.342 536 c 1
 304.342 546 317.342 546 330.342 546 c 0
 347.342 546 366.342 543 369.342 536 c 0
 396.342 484 402.342 419 402.342 353 c 0
 402.342 301 398.342 245 398.342 189 c 0
 398.342 150 421.342 103 442.342 98 c 0
169.342 277 m 2xbd80
 169.342 230 l 2
 169.342 183 191.342 116 223.342 116 c 0xbd80
 239.342 116 255.342 134 264.342 141 c 1
 267.342 139 268.342 136 268.342 132 c 1
 248.342 84 208.342 31 179.342 0 c 1x7d80
 166.342 -6 163.342 -19 136.342 -19 c 0
 80.3418 -19 66.3418 42 51.3418 84 c 1
 51.3418 98 56.3418 117 56.3418 134 c 0
 56.3418 139 57.3418 144 56.3418 149 c 1
 56.3418 265 l 2
 56.3418 325 53.3418 385 33.3418 395 c 1
 29.3418 401 18.3418 426 4.3418 426 c 0
 3.3418 426 1.3418 426 0.341797 425 c 1
 -12.6582 425 -26.6582 431 -26.6582 436 c 1
 -2.6582 470 51.3408 530 90.3408 546 c 1
 164.342 533 169.342 390 169.342 277 c 2xbd80
EndSplineSet
LCarets2: 1 0
Ligature2: "'liga' Standard Ligatures in Latin lookup 4 letters with rings" u uni030A
Substitution2: "Single Substitution lookup 0 subtable" vring
EndChar

StartChar: longs
Encoding: 115 383 151
Width: 245
GlyphClass: 2
Flags: MW
HStem: -13 21G<111.242 123.742 123.742 134.742> 587 182<278.242 343.742>
VStem: -3.25684 179.999 56.7432 115.999 82.7432 135.999
LayerCount: 2
Fore
SplineSet
251.742 757 m 0xe0
 261.742 765 272.742 769 283.742 769 c 0
 290.742 769 297.742 765 304.742 762 c 0
 334.742 746 385.742 740 410.742 688 c 1
 399.742 655 377.742 602 343.742 587 c 1
 326.742 587 310.742 610 287.742 621 c 0
 256.742 635 229.742 648 194.742 656 c 1
 186.742 654 176.742 631 176.742 616 c 0
 176.742 542 172.742 455 172.742 370 c 0
 172.742 252 218.742 138 218.742 66 c 0
 218.742 59 154.742 -13 134.742 -13 c 2
 123.742 -13 l 2
 98.7422 -13 87.7432 24 82.7432 39 c 1xc8
 82.7432 122 56.7432 177 56.7432 286 c 2
 56.7432 357 l 1xd0
 56.7432 357 6.74316 460 -3.25684 499 c 1
 -3.25684 515 16.7432 537 26.7432 545 c 0
 97.7422 598 156.742 682 251.742 757 c 0xe0
EndSplineSet
Substitution2: "'fina' Wortendeformen in Latin lookup 5 subtable" s
EndChar

StartChar: circumflex
Encoding: 2 710 146
Width: 215
Flags: W
HStem: 609 127
VStem: 133 57<610.5 658>
LayerCount: 2
Fore
SplineSet
61 617 m 0
 59 614 57 614 53 614 c 0
 43 614 24 614 24 621 c 0
 24 624 25 628 26 631 c 1
 33 637 25 666 35 670 c 1
 58 697 75 736 125 736 c 1
 141 715 191 705 191 672 c 0
 191 669 190 667 190 663 c 2
 190 658 l 2
 190 636 159 613 155 609 c 0
 154 608 133 606 133 615 c 0
 133 624 89 660 81 663 c 1
 64 660 71 634 61 617 c 0
EndSplineSet
EndChar
StartChar: breve
Encoding: 273 728 147
Width: 218
Flags: W
HStem: 562.262 23.178<111.454 139.677> 658.964 20G<158.442 167.894>
VStem: 144.686 48.394<602.865 662.664> 144.686 33.58<595.965 639.707>
AnchorPoint: "Anker-0" 114.641 540.499 mark 0
LayerCount: 2
Fore
SplineSet
47.8945 595.458 m 0xd0
 40.1172 602.395 35.4512 613.065 23.7842 617.867 c 1
 20.6729 620.534 19.1172 623.735 19.1172 626.403 c 0
 19.1172 639.741 47.833 656.902 59.5 660.104 c 0
 71.167 660.104 86.7842 634.405 90.6729 631.205 c 0
 96.4131 624.634 95.7959 618.042 101.025 611.493 c 0
 109.932 596.439 120.085 585.44 129.266 585.44 c 0
 143.143 585.44 144.686 598.075 144.686 607.654 c 3
 144.686 620.433 143.313 621.078 138 631.104 c 0
 134.062 639.207 129.693 641.142 125.755 647.626 c 1
 125.755 655.19 153.322 678.964 163.562 678.964 c 0
 172.227 678.964 174.314 677.436 180.905 668.382 c 0
 186.383 660.857 193.08 651.69 193.08 640.174 c 0xe0
 193.08 630.011 178.266 633.398 178.266 624.591 c 1
 164.438 600.879 155.55 575.811 117.031 562.262 c 1
 99.2529 562.262 115.681966146 579.603637695 100.345703125 577.9375 c 0
 98.3816736485 577.724127059 94.3095703125 576.6171875 91.3466796875 575.940429688 c 1
 85.0927734375 573.40234375 74.8904 573.075 68.6357 580.554 c 1
 47.8945 595.458 l 0xd0
EndSplineSet
Validated: 1
EndChar

StartChar: dotaccent
Encoding: 10 729 146
Width: 215
Flags: W
HStem: 578.4 164<75.6446 130.61>
VStem: 22 177
LayerCount: 2
Fore
SplineSet
94 578.4 m 1
 71 578.4 31 633.4 22 654.4 c 1
 22 666.4 38 674.4 44 681.4 c 0
 53 691.4 81 742.4 118 742.4 c 2
 122 742.4 l 1
 153 724.4 180 695.4 199 662.4 c 1
 168 635.4 136 594.4 94 578.4 c 1
EndSplineSet
EndChar
StartChar: ring
Encoding: 186 730 136
AltUni2: 0000ba.ffffffff.0
Width: 186
GlyphClass: 2
Flags: W
HStem: 578 7.21387<89.9688 95> 730.409 31.5908<74.2581 84.4392>
VStem: 8 52.3057<630.673 709.131> 129 34<600.786 665.311>
AnchorPoint: "Anker-0" 105 570.467 mark 0
LayerCount: 2
Fore
SplineSet
79 578 m 0
 77 578 74 579 71 578 c 1
 52 578 l 1
 31 600 l 2
 14 618 8 631 8 645 c 0
 8 663 19 681 31 712 c 0
 48 753 57 725 77 750 c 0
 85 759 94 762 103 762 c 0
 126 762 151 735 163 717 c 1
 163 708 178 683 178 666 c 0
 178 651 163 656 163 643 c 1
 149 608 140 571 101 551 c 1
 83 551 95 578 79 578 c 0
113.387695312 585.213867188 m 0
 127.438476562 585.213867188 130.560546875 603.94921875 129 618.000976562 c 1
 129 625.807617188 l 2
 129 663.276367188 85.2861328125 727.287109375 60.3056640625 730.409179688 c 1
 60.3056640625 688.255859375 89.96875 585.213867188 113.387695312 585.213867188 c 0
EndSplineSet
EndChar
StartChar: tilde
Encoding: 274 732 149
Width: 215
Flags: HW
HStem: 612.4 104.174<52.4682 157.409>
VStem: -3.01758 238.018
AnchorPoint: "Anker-0" 118 550 mark 0
LayerCount: 2
Fore
SplineSet
196.563476562 621.3046875 m 0
 165.587890625 595.756835938 133.833007812 567.799804688 107.5 568.299804688 c 1
 92.2080078125 568.094726562 55.8330078125 597.541015625 41.1875 587.580078125 c 1
 29.2216796875 577.560546875 17.91015625 565.870117188 7.4990234375 550.80078125 c 0
 6.611328125 550.155273438 5.76953125 549.85546875 4.9775390625 549.85546875 c 0
 -0.00390625 549.85546875 -3.017578125 561.734375 -3.017578125 574.387695312 c 0
 -3.017578125 584.661132812 -1.03125 595.446289062 3.5 600.799804688 c 0
 10.861328125 610.08203125 19.04296875 618.927734375 27.6005859375 627.237304688 c 0
 30.9921875 631.58203125 35.9052734375 635.322265625 40.029296875 638.725585938 c 0
 41.2314453125 639.78515625 42.4365234375 640.834960938 43.64453125 641.873046875 c 0
 44.33203125 642.525390625 44.95703125 643.166992188 45.5 643.799804688 c 0
 54.5 653.799804688 75.1728515625 672.474609375 112.172851562 672.474609375 c 2
 116.172851562 672.474609375 l 1
 138.166992188 674.1328125 159.166992188 650.799804688 176.575195312 659.135742188 c 1
 199.765625 674.94921875 209.44140625 688.779296875 219 692.299804688 c 0
 222 693.299804688 229 693.299804688 235 690.299804688 c 0
 238 688.299804688 239 680.299804688 238 674.299804688 c 0
 233.944335938 654.01953125 210.5 632.799804688 196.563476562 621.3046875 c 0
EndSplineSet
EndChar
StartChar: hungarumlaut
Encoding: 271 733 145
Width: 231
Flags: W
HStem: 557.433 21G<79.1499 83.3511>
VStem: 24 8<595.046 612.984>
AnchorPoint: "Anker-0" 76 542 mark 0
LayerCount: 2
Fore
SplineSet
136.9 694.1 m 0
 142.9 696.1 153.9 695.1 158.9 694.1 c 0
 164.9 692.1 166.9 685.1 166.9 677.1 c 0
 166.9 668.1 163.9 658.1 161.9 656.1 c 0
 148.9 644.1 140.9 663.1 111.9 617.1 c 0
 77.9004 563.1 84.4688 557.433 82.2334 557.433 c 0
 76.0664 557.433 77.9004 563.433 77.9004 567.1 c 0
 77.9004 604.1 118.9 691.1 136.9 694.1 c 0
118 725 m 1
 113.32 718.76 117 715 106 709 c 0
 87 699 86.1836 691.775 77 678 c 0
 57.1436 648.215 32 617 32 598 c 0
 32 597 30 595 27.5 595 c 0
 25 595 24 599 24 604 c 0
 24 621 36 654 38 662 c 0
 42 678 47 694 49 699 c 0
 53 709 60.8994 731.6 78 743 c 0
 90 751 92 751 109 743 c 0
 119 738 114.49 732.02 118 725 c 1
EndSplineSet
Validated: 1
EndChar
StartChar: uni030A
Encoding: 292 778 169
Width: 218
Flags: W
HStem: 578 7.214<105.969 111> 730.409 31.591<90.2581 100.439>
VStem: 24 52.3057<630.673 709.131> 145 34<600.786 665.311>
AnchorPoint: "Anker-0" 113 596 mark 0
LayerCount: 2
Fore
SplineSet
95 578 m 4
 93 578 90 579 87 578 c 5
 68 578 l 5
 47 600 l 6
 30 618 24 631 24 645 c 4
 24 663 35 681 47 712 c 4
 64 753 73 725 93 750 c 4
 101 759 110 762 119 762 c 4
 142 762 167 735 179 717 c 5
 179 708 194 683 194 666 c 4
 194 651 179 656 179 643 c 5
 165 608 156 571 117 551 c 5
 99 551 111 578 95 578 c 4
129.388 585.214 m 4
 143.438 585.214 146.561 603.949 145 618.001 c 5
 145 625.808 l 6
 145 663.276 101.286 727.287 76.3057 730.409 c 5
 76.3057 688.256 105.969 585.214 129.388 585.214 c 4
EndSplineSet
Validated: 33
EndChar
StartChar: endash
Encoding: 264 8211 137
Width: 500
GlyphClass: 2
Flags: W
HStem: 200.5 124.59<38.3677 54 54.2297 469.574>
LayerCount: 2
Fore
SplineSet
378.999 201.5 m 2
 370.938 201.637 54 205 54 205 c 2
 20 205 8 221 8 240 c 0
 8 255 16 274 28 289 c 0
 53 320 39.0146 329.484 87 329 c 2
 474.166 325.09 l 2
 484.041 324.924 493.333 322.977 493.333 307 c 0
 493.333 283 482.926 205.691 438.166 200.5 c 1
 378.999 201.5 l 2
EndSplineSet
Validated: 33
Ligature2: "'liga' Standard Ligatures in Latin lookup 4 subtable" hyphen hyphen
EndChar
StartChar: emdash
Encoding: 265 8212 138
Width: 1000
GlyphClass: 2
Flags: W
HStem: 200.5 124.59<38.3677 54 54.5936 971.574>
LayerCount: 2
Fore
SplineSet
880.999 201.5 m 2
 872.938 201.637 54 205 54 205 c 2
 20 205 8 221 8 240 c 0
 8 255 16 274 28 289 c 0
 53 320 39.0166 329.211 87 329 c 2
 976.166 325.09 l 2
 986.041 324.924 995.333 322.977 995.333 307 c 0
 995.333 283 984.926 205.691 940.166 200.5 c 1
 880.999 201.5 l 2
EndSplineSet
Validated: 33
Ligature2: "'liga' Standard Ligatures in Latin lookup 4 subtable" endash hyphen
EndChar
StartChar: guilsinglleft
Encoding: 280 8249 156
Width: 228
Flags: W
VStem: 12.7988 84.8008<238.673 340.4>
LayerCount: 2
Fore
SplineSet
12.7988 278.801 m 4
 12.7988 304.771 62.3975 352.401 62.3975 352.401 c 5
 61.5986 355.602 73.5986 363.602 72.7988 367.602 c 5
 126.991 426.507 183.999 474.002 211.199 488.402 c 4
 216.855 491.397 223.199 485.202 227.999 477.202 c 5
 227.999 470.802 219.999 452.401 215.999 450.001 c 4
 166.398 403.601 97.5996 352.4 97.5996 328.4 c 4
 97.5996 291.601 179.199 254.001 225.6 176.401 c 5
 225.6 129.201 200 105.201 154.399 89.2012 c 5
 151.2 89.2012 147.2 90.8008 144.8 93.2012 c 5
 140 92.4014 136 89.2012 132.8 89.2012 c 4
 128.8 89.2012 125.6 93.2012 123.199 98.8008 c 4
 112.538 123.49 12.7988 198.546 12.7988 278.801 c 4
EndSplineSet
EndChar
StartChar: Euro
Encoding: 32 8364 160
Width: 297
Flags: W
HStem: -47 21G<192.947 228.947> 692 41G<218 272.5 445.5 453.5> 692 7<460.903 466.897>
VStem: 78 91<451 600> 460.447 9<692.246 697.061>
LayerCount: 2
Fore
SplineSet
216 374 m 0x98
 267 440 407 551 426 558 c 0
 429 559 436 559 442 556 c 0
 445 554 446 546 445 540 c 0
 443 530 436 510 435 504 c 5
 397 483 254 360 228 330 c 0
 226.792 329.194 225.665 328.825 224.626 328.825 c 0
 219.524 328.825 209.551 341.735 209.551 351.702 c 0
 209.551 359.865 211.546 368.736 216 374 c 0x98
59 258 m 2
 59 264 l 2
 59 353 46 328 30 367 c 1
 26 398 13 432 5 468 c 1
 5 523 l 1
 15 543 68 577 78 600 c 1
 78 639 193 708 202 725 c 1
 221 742 258 753 258 753 c 1
 287 749 333 692 339 662 c 1
 356 641 340 630 360 620 c 1
 360 620 360 619 361 619 c 0
 369 619 411 672 416 672 c 1
 421 675 440 692 451 692 c 0xd8
 456 692 460 685 460 678 c 0
 460 668 452 652 452 646 c 1
 443 633 430.838 622.021 416 608 c 24
 345.79 541.655 284.5 495.5 234 440 c 0
 220.854 425.552 212 466 212 485 c 0
 212 493 249 532 252 538 c 1
 247 558 225 616 190 616 c 0
 185 616 180 611 174 608 c 1
 170 577 169 519 169 451 c 0
 169 339 173 214 179 197 c 0
 206 122 255 62 297 56 c 0
 304 55 307 52 307 48 c 1
 284 11 252.447 -36 205.447 -47 c 1
 180.447 -47 153.447 -28 133.447 -6 c 0
 60.4473 73 59 134 59 258 c 2
460.447 699 m 0xb8
 463.447 699 469.447 694 469.447 692 c 0
 469.447 691 468.447 693 466.447 692 c 1
 463.447 692 460.447 695 460.447 697 c 0
 461.447 699 459.447 699 460.447 699 c 0xb8
EndSplineSet
EndChar
StartChar: uniA75B
Encoding: 16 42843 155
Width: 237
Flags: HW
HStem: 5 21G<112.63 159.63> 449 140<49.1299 103.856>
VStem: 137.13 103<356.444 416.311>
LayerCount: 2
Fore
SplineSet
16 126 m 5
 53 172 134 288 134 355 c 4
 134 392 90 436 54 436 c 4
 38 436 19 424 5 424 c 4
 -2 424 -8 425 -12 436 c 5
 -12 466 3 496 16 509 c 4
 32 525 67 576 97 576 c 5
 160 559 237 509 237 442 c 6
 237 436 l 6
 237 345 161 238 116 177 c 5
 138 153 162 131 189 113 c 4
 193 111 201 126 201 116 c 5
 208 107 211 97 211 87 c 4
 211 48 169 3 144 -8 c 5
 75 -8 44 46 16 90 c 5
 16 126 l 5
EndSplineSet
EndChar
StartChar: uniFB01
Encoding: 268 64257 141
Width: 427
Flags: W
HStem: -14 21G<82.5 117.501 334.943 356.443> 561 21G<306.501 342.001> 732 20G<198.501 273.001>
VStem: 38 114.001<102.537 375.162> 294.443 117<74.9354 295>
LayerCount: 2
Fore
SplineSet
291.443 369 m 0
 283.629 378.377 236.443 372 236.443 372 c 1
 236.443 372 204.443 377 180.443 377 c 0
 165.443 377 153.443 378 153.443 372 c 0
 153.443 349 152.001 325 152.001 288 c 0
 152.001 204 156.001 106 180.001 98 c 0
 190.001 94 194.001 89 194.001 82 c 1
 187.001 57 135.001 -14 100 -14 c 0
 65 -14 38 53 38 114 c 0
 38 121 37 127 38 134 c 1
 37 140 38 146 38 152 c 2
 38 298 l 2
 38 364 -3 409 -3 464 c 0
 -3 479 0 495 8 513 c 1
 38 553 l 1
 93 630 153.001 713 244.001 752 c 1
 302.001 736 376.001 709 393.001 652 c 1
 381.001 621 352.001 585 332.001 561 c 1
 281.001 570 230.001 625 174.001 637 c 1
 168.001 637 163.001 635 162.001 628 c 0
 158.001 610 158.443 496 158.443 496 c 1
 316.443 484 l 0
 389.443 486 l 2
 396.438 486.191 402.752 480.821 404.443 473 c 0
 412.443 436 411.443 329.69 411.443 238 c 27
 411.443 173.518 415.443 93 432.443 74 c 1
 438.443 74 441.443 71 441.443 68 c 0
 441.443 53 395.443 16 385.443 0 c 0
 377.443 -13 363.443 -17 349.443 -17 c 0
 320.443 -17 313.93 -3.05078 307.443 17 c 24
 291.042 67.6943 294.443 93.999 294.443 153 c 2
 294.443 295 l 2
 294.443 295 296.443 363 291.443 369 c 0
EndSplineSet
Ligature2: "'liga' Standard Ligatures in Latin lookup 4 subtable" f.med i
Ligature2: "'liga' Standard Ligatures in Latin lookup 4 subtable" f i
LCarets2: 1 0
EndChar
StartChar: uniFB02
Encoding: 29 64258 140
Width: 527
VWidth: 0
Flags: W
HStem: -12 21G<82.4995 117.499 415.684 435.184 435.184 462.184> 400 103<158.444 347.525> 637 115<170.998 299.293>
VStem: 38 113.998<102.537 387.594> 375.184 125<104.586 443.73>
LayerCount: 2
Fore
SplineSet
98.1836 908 m 25,0,-1
500.184 201 m 0,1,-1
 500.184 138 511.184 101 548.184 84 c 1,4,-1
 524.184 47 476.184 7 448.184 -12 c 1,7,-1
 445.184 -12 441.184 -14 435.184 -12 c 1,10,-1
 433.184 -13 431.184 -12 429.184 -12 c 0,13,-1
 402.184 -12 375.184 37 375.184 37 c 1,16,-1
 375.184 170 l 2,17,-1
 375.184 308.616 369.795 355.64 368.474 446.123 c 1,20,-1
 352.609 424.489 329.295 402.476 316.184 400 c 1,23,-1
 235.998 402 l 1,24,-1
 235.998 402 152.998 397 152.998 381 c 0,27,-1
 152.998 358 151.998 325 151.998 288 c 0,30,-1
 151.998 204 155.998 106 179.998 98 c 0,33,-1
 189.998 94 193.998 89 193.998 82 c 1,36,-1
 186.998 57 134.998 -14 99.999 -14 c 0,39,-1
 65 -14 38 53 38 114 c 0,42,-1
 38 121 37 127 38 134 c 1,45,-1
 37 140 38 146 38 152 c 2,48,-1
 38 298 l 2,49,-1
 38 364 -3 409 -3 464 c 0,52,-1
 -3 479 0 495 8 513 c 1,55,-1
 38 553 l 1,56,-1
 92.999 630 221.373 752 243.998 752 c 3,59,-1
 314.256 752 405.574 695.344 419.184 710 c 0,62,-1
 432.184 724 494.184 800 524.184 790 c 0,65,-1
 530.824 787.786 495.184 742 495.184 708 c 2,68,-1
 495.184 668 l 2,69,-1
 495.184 566 503.184 429 503.184 334 c 0,72,-1
 503.184 296 502.184 259 498.184 222 c 1,75,-1
 499.184 216 500.184 209 500.184 201 c 0,1,-1
368.184 504.765 m 1,78,-1
 368.184 519.899 372.184 572 370.184 598 c 1,81,-1
 362.184 586 348.51 588.968 338.184 596 c 8,84,-1
 283.632 633.146 226.45 625.76 173.998 637 c 1,87,-1
 167.998 637 162.998 635 161.998 628 c 0,90,-1
 157.998 610 157.998 508 157.998 508 c 1,93,-1
 157.998 508 191.998 503 218.998 503 c 2,96,-1
 310.998 503 l 2,97,-1
 324.998 503 337.998 509 348.998 509 c 1,100,-1
 357.044 507.817 363.309 506.41 368.184 504.765 c 1,78,-1
EndSplineSet
Ligature2: "'liga' Standard Ligatures in Latin lookup 4 subtable" f.med l
Ligature2: "'liga' Standard Ligatures in Latin lookup 4 subtable" f l
EndChar
StartChar: uniFB06
Encoding: 266 64262 139
Width: 607
Flags: W
HStem: -13 21G<111.5 145 399 428> 39 47<481.044 530.125> 281 7<501.188 510.95> 384 90<434.963 544.96>
VStem: -3 180<442.877 537.325> 57 116<209.034 357> 83 136<37.9277 193.248> 317 106.144<474.042 585.586> 321 114<115.987 253.295 254.396 381.627> 547 90<352 468.392>
LayerCount: 2
Fore
SplineSet
501 281 m 0xf040
 500 281 499 280 498 281 c 1
 498 284 511 288 511 288 c 1
 510 286 505 281 501 281 c 0xf040
252 757 m 0
 262 765 273 768.999 284 768.999 c 0
 291 768.999 298 764.999 305 761.999 c 0
 315 756.999 326 747.999 336 735.999 c 1
 359 749.999 386 754.999 417 779.999 c 1
 422.577 778.03 423.741 744.417 423.741 700.135 c 0
 423.741 668.396 423.144 631.177 423.144 596.2 c 0xf940
 423.144 531.231 425.207 474 437 474 c 0
 517 474 537 489 596 489 c 0
 636 489 637 486 637 449 c 0
 637 385 582 357 556 317 c 1
 553 315 541 300 532 300 c 0
 530 300 528 301 526 304 c 1
 531 318 547 343 547 361 c 0
 547 373 540 384 516 384 c 2
 483 384 l 2
 445 384 431 377 431 331 c 0
 431 299 439 262 441 254 c 1
 437 239 435 222 435 204 c 0
 435 148 456 86 503 86 c 0
 512 86 528 92 535 92 c 0
 539 92 541 90 541 85 c 0
 541 73 523 48 508 39 c 1
 503 39 475 11 471 11 c 1
 460 -6 439 -13 417 -13 c 0
 381 -13 343 5 343 39 c 1
 322 122 321 216 321 327 c 1
 322 331 321 336 321 340 c 0xf0c0
 321 356 317 460 317 550 c 1
 307 562 297 586 282 606 c 0
 261 633 230 648 195 656 c 1
 187 654 177 631 177 616 c 0xf940
 177 542 173 455 173 370 c 0xf440
 173 252 219 138 219 66 c 0
 219 59 155 -13 135 -13 c 2
 124 -13 l 2
 99 -13 88 24 83 39 c 1xf240
 83 122 57 177 57 286 c 2
 57 357 l 1xf440
 57 357 7 460 -3 499 c 1xf840
 -3 515 17 537 27 545 c 0
 98 598 157 682 252 757 c 0
EndSplineSet
Validated: 1
Ligature2: "'liga' Standard Ligatures in Latin lookup 4 subtable" longs t
Substitution2: "'medi' Medial Forms in Latin lookup-1" uniFB06.med
Substitution2: "'init' Initiale Formen in Latin lookup 2 subtable" uniFB06.med
EndChar
StartChar: Q.var
Encoding: 277 -1 153
Width: 630
Flags: W
HStem: -20 63 -8 94<229 313.5> 675 20G
VStem: 20 168<492 519.5> 84 101<127.5 376.5> 221 39<534 604> 253 29<180.5 255> 433 77<358.5 368>
LayerCount: 2
Fore
SplineSet
510 392 m 0xa5
 510 325 478 249 460 173 c 1
 460 157 466 145 479 140 c 0
 527 119 525 69 610 43 c 1
 583 14 566 -20 523 -20 c 0
 471 -20 462 15 420 55 c 0
 415 60 374 68 374 88 c 0
 374 89 375 91 375 93 c 0
 375 130 415 156 423 192 c 0
 430 226 433 260 433 295 c 0
 433 441 374 582 260 604 c 1xa5
 260 507 282 338 282 196 c 0
 282 165 280 135 280 108 c 1
 273 108 253 160 253 177 c 0xa3
 253 333 252 410 221 534 c 1
 221 572 248 679 287 695 c 1
 428 664 510 567 510 392 c 0xa5
340 131 m 0
 340 66 277 -8 253 -8 c 0
 205 -8 84 50 84 205 c 1x6b
 80 211 79 229 79 287 c 0
 79 387 74 349 46 369 c 1
 43 389 20 434 20 472 c 0
 20 567 108 556 161 604 c 0
 169 611 176 619 182 619 c 0
 186 619 191 614 191 601 c 0
 191 587 188 569 188 553 c 2
 188 520 l 2x71
 188 464 185 405 185 348 c 0
 185 225 201 115 302 86 c 1x69
 325 86 326 144 338 144 c 1
 338 144 340 135 340 131 c 0
EndSplineSet
EndChar

StartChar: f.med
Encoding: 102 -1 162
Width: 289
Flags: W
HStem: -14 21G<94.4986 129.499> 384 124<248 318 248 248> 561 21G 732 20G
VStem: 49.9986 114.001
LayerCount: 2
Fore
SplineSet
170 508 m 1
 414 508 l 2
 421 508 426 507 426 503 c 0
 426 497 417 485 393 461 c 1
 355 415 l 2
 336 391 345 384 318 384 c 2
 248 384 l 1
 248 384 216 389 192 389 c 0
 177 389 165 390 165 384 c 0
 165 361 164 325 164 288 c 0
 164 204 168 106 192 98 c 0
 202 94 206 89 206 82 c 1
 199 57 147 -14 111.999 -14 c 0
 76.999 -14 49.999 53 49.999 114 c 0
 49.999 121 48.999 127 49.999 134 c 1
 48.999 140 49.999 146 49.999 152 c 2
 49.999 298 l 2
 49.999 364 8.99902 409 8.99902 464 c 0
 8.99902 479 11.999 495 19.999 513 c 1
 49.999 553 l 1
 104.999 630 165 713 256 752 c 1
 314 736 388 709 405 652 c 1
 393 621 364 585 344 561 c 1
 293 570 242 625 186 637 c 1
 180 637 175 635 174 628 c 0
 170 610 170 508 170 508 c 1
EndSplineSet
Substitution2: "'fina' Wortendeformen in Latin lookup 5 subtable" f
EndChar
StartChar: g.med
Encoding: 278 -1 154
Width: 401
Flags: W
HStem: -249 119<197.682 261.655> 402 124<333.514 463.468>
VStem: -14.001 119<251.124 435.462> 225 98<176.652 282.435>
LayerCount: 2
Fore
SplineSet
416 31 m 2
 416 -14 l 1
 357 -94 l 1
 320 -146 288 -220 253 -232 c 1
 242 -245 230 -249 216 -249 c 0
 196 -249 173 -240 147 -235 c 1
 143 -228 37.999 -199 37.999 -152 c 0
 37.999 -144 40.999 -135 48.999 -126 c 0
 93.999 -72 104.999 -44 132 0 c 1
 55.999 58 8.99902 160 -14.001 266 c 1
 -14.001 298 l 2
 -14.001 304 -15.001 310 -14.001 316 c 0
 -8.00098 356 -11.001 427 28.999 469 c 0
 34.999 476 35.999 480 43.999 487 c 0
 61.999 504 91.999 533 111.999 545 c 1
 118.999 545 134 575 144 575 c 1
 144 575 173 592 187 592 c 0
 218 592 251 571 269 545 c 0
 280 528 287 523 295 523 c 0
 299 523 303 524 308 524 c 0
 352 524 405 526 486 526 c 2
 529 526 l 2
 536 526 541 525 541 521 c 0
 541 515 532 503 508 479 c 1
 470 433 l 2
 451 409 460 402 433 402 c 2
 363 402 l 2
 338 402 332 387 332 364 c 2
 332 336 l 2
 332 322 335 302 335 284 c 0
 335 250 323 256 323 211 c 0
 323 196 327 182 341 178 c 1
 388 149 376 136 398 85 c 1
 402 80 406 75 406 73 c 1
 414 60 416 63 416 31 c 2
104.999 381 m 0
 104.999 279 153 154 197 149 c 1
 201 149 l 2
 208 149 225 153 225 189 c 2
 225 191 l 1
 226 199 225 208 225 216 c 0
 225 293 202 375 167 418 c 1
 155 420 142 458 123.999 458 c 0
 121.999 458 119.999 459 117.999 458 c 1
 108.999 436 104.999 408 104.999 381 c 0
261 -130 m 0
 289 -130 314 -116 314 -85 c 0
 314 -31 300 12 279 20 c 1
 276 32 248 65 225 65 c 0
 217 65 211 61 206 52 c 0
 188 21 155 -23 133 -37 c 1
 132 -41 131 -42 131 -46 c 0
 131 -83 177 -114 211 -114 c 1
 224 -124 243 -130 261 -130 c 0
EndSplineSet
Substitution2: "'fina' Wortendeformen in Latin lookup 5 subtable" g
EndChar
StartChar: i.var
Encoding: 285 -1 161
Width: 199
Flags: W
HStem: 0 21G<111.805 133.305> 527 20G<52.3047 113.805> 689.002 45.424<246.474 315.307>
VStem: 38.3047 117<128.392 392.31>
AnchorPoint: "Anker-0" 72.5 542.5 basechar 0
LayerCount: 2
Fore
SplineSet
-18.6953 459 m 1
 -18.6953 470 29.3047 533 75.3047 547 c 1
 152.305 522 155.305 397 155.305 291 c 2
 155.305 251 l 2
 155.304 182.003 163.305 123 209.305 91 c 1
 215.305 91 218.305 88 218.305 85 c 0
 218.305 70 172.305 33 162.305 17 c 0
 154.305 4 140.305 0 126.305 0 c 0
 97.3047 0 64.3047 19 60.3047 39 c 1
 42.3047 50 38.3047 107.001 38.3047 166 c 2
 38.3047 321 l 2
 38.3047 355 3.30469 432 -18.6953 459 c 1
296.495 734.426 m 0
 302.685 733.126 311.676 726.711 315.49 723.325 c 0
 319.662 718.571 317.858 711.519 313.822 704.611 c 0
 309.282 696.841 301.647 689.72 298.911 689.002 c 0
 281.632 685.198 284.31 705.641 236.065 680.552 c 0
 179.467 651.077 182.282 642.87 180.351 643.999 c 0
 175.026 647.109 179.636 651.365 181.486 654.531 c 0
 200.151 686.479 279.439 740.916 296.495 734.426 c 0
EndSplineSet
Substitution2: "Single Substitution lookup 0 subtable" iacute
EndChar
StartChar: longs_longs
Encoding: 294 -1 171
Width: 492
Flags: W
HStem: -13 22.7998G<111.239 144.739 359.238 392.738> 588.8 182<531.738 591.738>
VStem: -3.25977 179.999<442.877 537.325> 56.7402 115.999<209.034 357> 82.7402 135.999<37.9277 193.248> 244.739 179.999<444.677 539.125> 304.739 115.999<210.834 358.8> 330.739 135.999<39.7275 195.048>
LayerCount: 2
Fore
SplineSet
251.739257812 757 m 0xe0
 261.739257812 765 272.739257812 769 283.739257812 769 c 0
 290.739257812 769 297.739257812 765 304.739257812 762 c 0xe2
 334.739257812 746 385.739257812 740 410.739257812 688 c 0
 409.129882812 683.171875 407.28515625 677.916015625 405.201171875 672.413085938 c 1
 433.319335938 701.061523438 463.978515625 730.568359375 499.73828125 758.799804688 c 0
 509.73828125 766.799804688 520.73828125 770.799804688 531.73828125 770.799804688 c 0
 538.73828125 770.799804688 545.73828125 766.799804688 552.73828125 763.799804688 c 0
 582.73828125 747.799804688 633.73828125 741.799804688 658.73828125 689.799804688 c 1
 647.73828125 656.799804688 625.73828125 603.799804688 591.73828125 588.799804688 c 1
 574.73828125 588.799804688 558.73828125 611.799804688 535.73828125 622.799804688 c 0
 504.73828125 636.799804688 477.73828125 649.799804688 442.73828125 657.799804688 c 0
 434.73828125 655.799804688 424.73828125 632.799804688 424.73828125 617.799804688 c 0xc4
 424.73828125 543.799804688 420.73828125 456.799804688 420.73828125 371.799804688 c 0xc2
 420.73828125 253.799804688 466.73828125 139.799804688 466.73828125 67.7998046875 c 0
 466.73828125 60.7998046875 402.73828125 -11.2001953125 382.73828125 -11.2001953125 c 2
 371.73828125 -11.2001953125 l 2
 346.73828125 -11.2001953125 335.739257812 25.7998046875 330.739257812 40.7998046875 c 1xc1
 330.739257812 123.799804688 304.739257812 178.799804688 304.739257812 287.799804688 c 2
 304.739257812 358.799804688 l 1xc2
 304.739257812 358.799804688 254.739257812 461.799804688 244.739257812 500.799804688 c 0
 244.739257812 516.799804688 264.739257812 538.799804688 274.739257812 546.799804688 c 0
 292.87890625 560.340820312 310.234375 575.905273438 327.608398438 592.825195312 c 1
 315.883789062 600.383789062 303.443359375 613.489257812 287.739257812 621 c 0
 256.739257812 635 229.739257812 648 194.739257812 656 c 0
 186.739257812 654 176.739257812 631 176.739257812 616 c 0xe4
 176.739257812 542 172.739257812 455 172.739257812 370 c 0xd0
 172.739257812 252 218.739257812 138 218.739257812 66 c 0
 218.739257812 59 154.739257812 -13 134.739257812 -13 c 2
 123.739257812 -13 l 2
 98.7392578125 -13 87.740234375 24 82.740234375 39 c 1xc8
 82.740234375 122 56.740234375 177 56.740234375 286 c 2
 56.740234375 357 l 1xd0
 56.740234375 357 6.740234375 460 -3.259765625 499 c 0
 -3.259765625 515 16.740234375 537 26.740234375 545 c 0
 97.7392578125 598 156.739257812 682 251.739257812 757 c 0xe0
EndSplineSet
Validated: 1
LCarets2: 1 0
Ligature2: "'liga' Standard Ligatures in Latin lookup 4 subtable" longs longs
Substitution2: "'fina' Wortendeformen in Latin lookup 5 subtable" germandbls
EndChar
StartChar: t.med
Encoding: 282 -1 158
Width: 259
Flags: W
HStem: 0 21G<134 163> 54.0537 48.8564<216.044 264.522> 399.168 126.819<174.345 318.328> 412.682 93.5547<170.76 296.938> 542.369 20G<110.5 144.5>
VStem: 56 114<134.082 276.814 277.959 402.848>
LayerCount: 2
Fore
SplineSet
172 506.236328125 m 4xdc
 222 506.236328125 273 525.987304688 375 525.987304688 c 6
 383 525.987304688 l 6
 390 525.987304688 395 524.947265625 395 520.7890625 c 4
 395 514.552734375 386 502.078125 362 477.130859375 c 5
 324 429.313476562 l 5
 308 407.484375 312 402.286132812 297 399.16796875 c 5
 293 399.16796875 l 6xec
 275 399.16796875 247 412.681640625 221 412.681640625 c 6
 218 412.681640625 l 6
 180 412.681640625 166 405.405273438 166 357.587890625 c 4
 166 324.32421875 174 285.862304688 176 277.546875 c 5
 172 261.954101562 170 244.282226562 170 225.571289062 c 4
 170 167.359375 191 102.91015625 238 102.91015625 c 4
 247 102.91015625 263 109.147460938 270 109.147460938 c 4
 274 109.147460938 276 107.068359375 276 101.87109375 c 4
 276 89.3974609375 258 63.4091796875 243 54.0537109375 c 5
 238 54.0537109375 210 24.9482421875 206 24.9482421875 c 5
 195 7.2763671875 174 0 152 0 c 4
 116 0 78 18.7109375 78 54.0537109375 c 5
 57 140.33203125 56 238.045898438 56 353.4296875 c 5
 57 357.587890625 56 362.78515625 56 366.943359375 c 4
 56 397.088867188 21 411.641601562 0 423.076171875 c 5
 27 487.525390625 85 520.7890625 136 562.369140625 c 5
 153 556.1328125 145 506.236328125 172 506.236328125 c 4xdc
EndSplineSet
Substitution2: "'fina' Wortendeformen in Latin lookup 5 subtable" t
EndChar
StartChar: uniFB06.med
Encoding: 288 -1 165
Width: 512
Flags: W
HStem: -13 21G<99.2422 132.742 387 416> 39 47<469.044 518.125> 371 122<475.22 571.861> 384 90<423.771 549.938>
VStem: -15.2568 179.999<442.877 537.325> 44.7432 115.999<209.034 402.16> 70.7432 135.999<37.9277 193.248> 308.999 110.001<124.468 379.803>
LayerCount: 2
Fore
SplineSet
239.742 757 m 0xd9
 249.768 764.968 260.742 769 271.742 769 c 0
 278.742 769 285.742 765 292.742 762 c 0
 302.744 756.666 313.553 747.552 324.445 735.845 c 1
 346.747 750.457 373.599 755.372 405 780 c 1
 422 774 398 474 425 474 c 0xd9
 475 474 526 493 628 493 c 2
 636 493 l 2
 643 493 648 492 648 488 c 0
 648 482 639 470 615 446 c 1
 577 400 l 1
 561 379 565 374 550 371 c 1
 546 371 l 2xe9
 528 371 500 384 474 384 c 0
 436 384 419 377 419 331 c 0
 419 265.613 423 255.94 423 204 c 0
 423 148 444 86 491 86 c 0
 500 86 516 92 523 92 c 0
 527 92 529 90 529 85 c 0
 529 73 511 48 496 39 c 1
 491 39 463 11 459 11 c 1
 448 -6 427 -13 405 -13 c 0
 369 -13 330.999 5 330.999 39 c 1
 309.999 122 308.999 216 308.999 327 c 1
 309.999 331 308.999 336 308.999 340 c 0
 308.999 356.172 305.357 459.73 305.357 550.089 c 1
 294.846 561.924 285.474 586.346 270 606 c 0
 248.958 632.726 217.742 648 182.742 656 c 1
 174.742 654 164.742 631 164.742 616 c 0xd9
 164.742 542 160.742 455 160.742 370 c 0xd5
 160.742 252 206.742 138 206.742 66 c 0
 206.742 59 142.742 -13 122.742 -13 c 2
 111.742 -13 l 2
 86.7422 -13 75.7432 24 70.7432 39 c 1xd3
 70.7432 122 44.7432 177 44.7432 286 c 2
 44.7432 357 l 1xd5
 44.7432 357 -5.25684 460 -15.2568 499 c 1
 -15.2568 515 4.74316 537 14.7432 545 c 0
 85.7422 598 144.985 681.694 239.742 757 c 0xd9
EndSplineSet
Ligature2: "'liga' Standard Ligatures in Latin lookup 4 subtable" longs t.med
Substitution2: "'fina' Wortendeformen in Latin lookup 5 subtable" uniFB06
EndChar
StartChar: v.init
Encoding: 23 -1 150
Width: 540
Flags: W
HStem: -27 141<258.734 393.234> 525 20G<425.734 441.734>
VStem: 416.234 116<236.847 365.658>
DStem2: 193.234 531 118.234 367 0.509041 -0.860742<-57.8252 226.839>
LayerCount: 2
Fore
SplineSet
305.234 -27 m 1
 212.234 -5 215.234 185 174.234 256 c 1
 176.234 262 175.234 265 171.234 271 c 1
 165.234 271 130.234 348 118.234 367 c 2
 94.2344 406 l 1
 48.2344 466 34.2344 509 -41.7656 509 c 0
 -68.7656 509 -78.7656 515 -78.7656 525 c 1
 -51.7656 573 -12.7656 631 55.2344 631 c 0
 63.2344 631 71.2344 631 79.2344 629 c 0
 113.234 623 177.234 559 193.234 531 c 2
 248.234 438 l 1
 293.234 359 337.234 269 337.234 181 c 0
 337.234 168 365.234 114 372.234 114 c 0
 414.234 119 416.234 191 416.234 243 c 2
 416.234 257 l 2
 416.234 319 403.234 368 360.234 416 c 1
 335.234 451 l 1
 335.234 451 343.234 505 357.234 505 c 1
 375.234 512 388.234 538 416.234 538 c 1
 422.234 541 423.234 545 428.234 545 c 0
 455.234 545 474.234 505 484.234 494 c 0
 516.234 458 532.234 400 532.234 341 c 0
 532.234 212 448.234 148 393.234 75 c 1
 401.234 68 404.234 61 404.234 56 c 0
 404.234 39 374.234 29 363.234 6 c 1
 351.234 -7 328.234 -27 305.234 -27 c 1
EndSplineSet
Substitution2: "'medi' Medial Forms in Latin lookup-1" v
EndChar

StartChar: vring
Encoding: 182 -1 166
Width: 394
Flags: W
HStem: -6 110<185.819 262.319> 525 20G<276.819 296.819> 578 7.21387<160.171 165.202> 730.409 31.5908<144.46 154.641>
VStem: -22.1797 151.999<412.422 484.439> 78.2021 52.3057<630.673 709.131> 199.202 34<600.786 665.311> 287.819 103<196.5 369>
LayerCount: 2
Fore
SplineSet
149.202 578 m 4xf7
 147.202 578 144.202 579 141.202 578 c 5
 122.202 578 l 5
 101.202 600 l 6
 84.2021 618 78.2021 631 78.2021 645 c 4
 78.2021 663 89.2021 681 101.202 712 c 4
 118.202 753 127.202 725 147.202 750 c 4
 155.202 759 164.202 762 173.202 762 c 4
 196.202 762 221.202 735 233.202 717 c 5
 233.202 708 248.202 683 248.202 666 c 4
 248.202 651 233.202 656 233.202 643 c 5
 219.202 608 210.202 571 171.202 551 c 5
 153.202 551 165.202 578 149.202 578 c 4xf7
183.59 585.214 m 4
 197.64 585.214 200.763 603.948 199.202 618.001 c 5
 199.202 625.808 l 6
 199.202 663.275 155.487 727.287 130.508 730.409 c 5
 130.508 688.256 160.171 585.214 183.59 585.214 c 4
270.819 127 m 1
 282.819 155 287.819 183 287.819 210 c 0
 287.819 301 232.819 387 206.819 453 c 1
 206.819 476 265.819 545 287.819 545 c 0
 305.819 545 310.819 519 326.819 496 c 1
 348.819 434 390.819 406 390.819 332 c 0
 390.819 219 380.819 232 354.819 190 c 0
 332.819 155 311.819 122 282.819 94 c 1
 277.819 74 266.819 74 262.819 59 c 1
 244.819 38 224.819 -6 188.819 -6 c 0
 182.819 -6 175.819 -3 168.819 0 c 0
 143.819 10 123.819 63 115.819 98 c 0
 97.8203 171 79.8203 288 38.8203 343 c 0
 22.8203 364 12.8203 397 -12.1797 412 c 1
 -19.1797 421 -22.1797 430 -22.1797 439 c 0xfb
 -22.1797 480 38.8203 524 62.8203 534 c 1
 87.8203 534 121.819 463 129.819 453 c 1
 129.819 451 155.819 407 155.819 401 c 1
 205.819 315 205.819 193 248.819 107 c 1
 251.819 105 254.819 104 257.819 104 c 0
 266.819 104 270.819 114 270.819 127 c 1
EndSplineSet
Ligature2: "'liga' Standard Ligatures in Latin lookup 4 letters with rings" v uni030A
Substitution2: "'init' Initiale Formen in Latin lookup 2 subtable" vring.init
EndChar
